<svg width="1584" height="691" viewBox="0 0 1584 691" fill="none" xmlns="http://www.w3.org/2000/svg">
<path d="M347 0L347 691" stroke="white" stroke-opacity="0.6" stroke-width="6" stroke-dasharray="16 16"/>
<path d="M42.1797 34H37.2754V23.2773H28.9785V34H24.0742V8.63477H28.9785V18.9707H37.2754V8.63477H42.1797V34ZM65.1367 23.2598C65.1367 30.3086 61.4629 34.5098 55.3809 34.5098C49.2988 34.5098 45.625 30.3086 45.625 23.2598V19.375C45.625 12.3262 49.2988 8.125 55.3809 8.125C61.4629 8.125 65.1367 12.3262 65.1367 19.375V23.2598ZM55.3809 30.0801C58.4395 30.0801 60.0566 27.7773 60.0566 23.207V19.4277C60.0566 14.8574 58.4395 12.5547 55.3809 12.5547C52.3223 12.5547 50.7051 14.8574 50.7051 19.4277V23.207C50.7051 27.7773 52.3223 30.0801 55.3809 30.0801ZM68.1777 26.8984H72.8887C73.1172 29.0957 74.9102 30.3613 77.793 30.3613C80.5352 30.3613 82.2754 29.043 82.2754 26.9863C82.2754 25.2637 81.1504 24.3496 78.2148 23.6992L75.5781 23.084C70.9902 22.0469 68.7402 19.6211 68.7402 15.8594C68.7402 11.1309 72.2383 8.125 77.7227 8.125C83.0312 8.125 86.5996 11.0957 86.7578 15.6309H82.0469C81.8535 13.5391 80.2539 12.2559 77.7754 12.2559C75.2617 12.2559 73.6973 13.4336 73.6973 15.332C73.6973 17.125 74.8223 18.1094 77.5645 18.707L80.166 19.3047C85.0703 20.3945 87.2148 22.5918 87.2148 26.4766C87.2148 31.4863 83.6289 34.5098 77.7051 34.5098C71.957 34.5098 68.3535 31.6445 68.1777 26.8984ZM102.385 34H97.3926V12.9414H90.1328V8.63477H109.645V12.9414H102.385V34ZM134.939 26.8984H139.65C139.879 29.0957 141.672 30.3613 144.555 30.3613C147.297 30.3613 149.037 29.043 149.037 26.9863C149.037 25.2637 147.912 24.3496 144.977 23.6992L142.34 23.084C137.752 22.0469 135.502 19.6211 135.502 15.8594C135.502 11.1309 139 8.125 144.484 8.125C149.793 8.125 153.361 11.0957 153.52 15.6309H148.809C148.615 13.5391 147.016 12.2559 144.537 12.2559C142.023 12.2559 140.459 13.4336 140.459 15.332C140.459 17.125 141.584 18.1094 144.326 18.707L146.928 19.3047C151.832 20.3945 153.977 22.5918 153.977 26.4766C153.977 31.4863 150.391 34.5098 144.467 34.5098C138.719 34.5098 135.115 31.6445 134.939 26.8984ZM169.146 34H164.154V24.6309L156.016 8.63477H161.412L166.492 19.4453H166.809L171.889 8.63477H177.285L169.146 24.6309V34ZM179.447 26.8984H184.158C184.387 29.0957 186.18 30.3613 189.062 30.3613C191.805 30.3613 193.545 29.043 193.545 26.9863C193.545 25.2637 192.42 24.3496 189.484 23.6992L186.848 23.084C182.26 22.0469 180.01 19.6211 180.01 15.8594C180.01 11.1309 183.508 8.125 188.992 8.125C194.301 8.125 197.869 11.0957 198.027 15.6309H193.316C193.123 13.5391 191.523 12.2559 189.045 12.2559C186.531 12.2559 184.967 13.4336 184.967 15.332C184.967 17.125 186.092 18.1094 188.834 18.707L191.436 19.3047C196.34 20.3945 198.484 22.5918 198.484 26.4766C198.484 31.4863 194.898 34.5098 188.975 34.5098C183.227 34.5098 179.623 31.6445 179.447 26.8984ZM213.654 34H208.662V12.9414H201.402V8.63477H220.914V12.9414H213.654V34ZM241.762 29.6934V34H225.766V8.63477H241.762V12.9414H230.775V19.1816H241.111V23.1719H230.775V29.6934H241.762ZM250.252 25.6328V34H246.068V8.63477H251.236L255.525 23.1367H255.824L260.096 8.63477H265.264V34H261.08V25.6328L261.713 15.5078H261.344L257.354 28.041H253.979L249.988 15.5078H249.619L250.252 25.6328Z" fill="white" fill-opacity="0.6"/>
<path d="M440.623 34H435.631V12.9414H428.371V8.63477H447.883V12.9414H440.623V34ZM457.428 23.8926H462.965L460.328 13.6094H460.1L457.428 23.8926ZM465.549 34L463.967 27.7949H456.426L454.809 34H449.816L457.428 8.63477H463.334L470.945 34H465.549ZM478.996 12.7129V20.834H482.529C485.359 20.834 487.047 19.3047 487.047 16.7383C487.047 14.2246 485.395 12.7129 482.582 12.7129H478.996ZM482.617 24.666H478.996V34H474.021V8.63477H483.232C488.752 8.63477 492.127 11.6934 492.127 16.7207C492.127 20.0078 490.387 22.75 487.627 23.8398L492.707 34H487.082L482.617 24.666ZM509.582 25.6855V24.2793H504.854V20.5176H514.662V25.791C514.662 31.082 510.971 34.5098 505.363 34.5098C499.105 34.5098 495.449 30.625 495.449 23.9102V18.7246C495.449 12.0098 499.105 8.125 505.363 8.125C510.971 8.125 514.504 11.4824 514.645 17.002H509.564C509.441 14.3477 507.701 12.6074 505.223 12.6074C502.129 12.6074 500.529 14.6816 500.529 18.7246V23.9102C500.529 27.9707 502.146 30.0273 505.293 30.0273C507.965 30.0273 509.582 28.4102 509.582 25.6855ZM535.492 29.6934V34H519.496V8.63477H535.492V12.9414H524.506V19.1816H534.842V23.1719H524.506V29.6934H535.492ZM551.893 34H546.9V12.9414H539.641V8.63477H559.152V12.9414H551.893V34ZM584.447 26.8984H589.158C589.387 29.0957 591.18 30.3613 594.062 30.3613C596.805 30.3613 598.545 29.043 598.545 26.9863C598.545 25.2637 597.42 24.3496 594.484 23.6992L591.848 23.084C587.26 22.0469 585.01 19.6211 585.01 15.8594C585.01 11.1309 588.508 8.125 593.992 8.125C599.301 8.125 602.869 11.0957 603.027 15.6309H598.316C598.123 13.5391 596.523 12.2559 594.045 12.2559C591.531 12.2559 589.967 13.4336 589.967 15.332C589.967 17.125 591.092 18.1094 593.834 18.707L596.436 19.3047C601.34 20.3945 603.484 22.5918 603.484 26.4766C603.484 31.4863 599.898 34.5098 593.975 34.5098C588.227 34.5098 584.623 31.6445 584.447 26.8984ZM618.654 34H613.662V24.6309L605.523 8.63477H610.92L616 19.4453H616.316L621.396 8.63477H626.793L618.654 24.6309V34ZM628.955 26.8984H633.666C633.895 29.0957 635.688 30.3613 638.57 30.3613C641.312 30.3613 643.053 29.043 643.053 26.9863C643.053 25.2637 641.928 24.3496 638.992 23.6992L636.355 23.084C631.768 22.0469 629.518 19.6211 629.518 15.8594C629.518 11.1309 633.016 8.125 638.5 8.125C643.809 8.125 647.377 11.0957 647.535 15.6309H642.824C642.631 13.5391 641.031 12.2559 638.553 12.2559C636.039 12.2559 634.475 13.4336 634.475 15.332C634.475 17.125 635.6 18.1094 638.342 18.707L640.943 19.3047C645.848 20.3945 647.992 22.5918 647.992 26.4766C647.992 31.4863 644.406 34.5098 638.482 34.5098C632.734 34.5098 629.131 31.6445 628.955 26.8984ZM663.162 34H658.17V12.9414H650.91V8.63477H670.422V12.9414H663.162V34ZM691.27 29.6934V34H675.273V8.63477H691.27V12.9414H680.283V19.1816H690.619V23.1719H680.283V29.6934H691.27ZM699.76 25.6328V34H695.576V8.63477H700.744L705.033 23.1367H705.332L709.604 8.63477H714.771V34H710.588V25.6328L711.221 15.5078H710.852L706.861 28.041H703.486L699.496 15.5078H699.127L699.76 25.6328Z" fill="white" fill-opacity="0.6"/>
<rect x="542" y="487" width="1038" height="110" fill="#54C75F" stroke="#44894B" stroke-width="6"/>
<path d="M1027.82 540.284L1021.17 540.693C1021.06 540.125 1020.82 539.614 1020.44 539.159C1020.07 538.693 1019.57 538.324 1018.96 538.051C1018.36 537.767 1017.63 537.625 1016.79 537.625C1015.67 537.625 1014.72 537.864 1013.95 538.341C1013.17 538.807 1012.79 539.432 1012.79 540.216C1012.79 540.841 1013.04 541.369 1013.54 541.801C1014.04 542.233 1014.9 542.58 1016.11 542.841L1020.85 543.795C1023.4 544.318 1025.29 545.159 1026.54 546.318C1027.79 547.477 1028.42 549 1028.42 550.886C1028.42 552.602 1027.91 554.108 1026.9 555.403C1025.9 556.699 1024.53 557.71 1022.78 558.438C1021.04 559.153 1019.03 559.511 1016.76 559.511C1013.29 559.511 1010.53 558.79 1008.48 557.347C1006.43 555.892 1005.23 553.915 1004.88 551.415L1012.02 551.04C1012.24 552.097 1012.76 552.903 1013.59 553.46C1014.42 554.006 1015.48 554.278 1016.78 554.278C1018.05 554.278 1019.07 554.034 1019.85 553.545C1020.63 553.045 1021.03 552.403 1021.04 551.619C1021.03 550.96 1020.75 550.42 1020.2 550C1019.66 549.568 1018.82 549.239 1017.68 549.011L1013.15 548.108C1010.59 547.597 1008.69 546.71 1007.44 545.449C1006.2 544.187 1005.58 542.58 1005.58 540.625C1005.58 538.943 1006.03 537.494 1006.94 536.278C1007.86 535.062 1009.15 534.125 1010.81 533.466C1012.48 532.807 1014.44 532.477 1016.67 532.477C1019.98 532.477 1022.58 533.176 1024.48 534.574C1026.39 535.972 1027.5 537.875 1027.82 540.284ZM1044.92 559.511C1042.23 559.511 1039.91 558.966 1037.97 557.875C1036.04 556.773 1034.55 555.216 1033.5 553.205C1032.46 551.182 1031.93 548.79 1031.93 546.028C1031.93 543.335 1032.46 540.972 1033.5 538.938C1034.55 536.903 1036.02 535.318 1037.92 534.182C1039.83 533.045 1042.07 532.477 1044.63 532.477C1046.36 532.477 1047.97 532.756 1049.46 533.312C1050.96 533.858 1052.26 534.682 1053.38 535.784C1054.5 536.886 1055.38 538.273 1056 539.943C1056.63 541.602 1056.94 543.545 1056.94 545.773V547.767H1034.83V543.267H1050.11C1050.11 542.222 1049.88 541.295 1049.42 540.489C1048.97 539.682 1048.34 539.051 1047.53 538.597C1046.74 538.131 1045.81 537.898 1044.75 537.898C1043.65 537.898 1042.67 538.153 1041.82 538.665C1040.98 539.165 1040.32 539.841 1039.84 540.693C1039.37 541.534 1039.12 542.472 1039.11 543.506V547.784C1039.11 549.08 1039.35 550.199 1039.83 551.142C1040.32 552.085 1041 552.812 1041.89 553.324C1042.78 553.835 1043.83 554.091 1045.04 554.091C1045.85 554.091 1046.59 553.977 1047.26 553.75C1047.93 553.523 1048.5 553.182 1048.98 552.727C1049.46 552.273 1049.82 551.716 1050.07 551.057L1056.79 551.5C1056.45 553.114 1055.75 554.523 1054.69 555.727C1053.64 556.92 1052.29 557.852 1050.63 558.523C1048.99 559.182 1047.08 559.511 1044.92 559.511ZM1061.82 559V524.091H1069.2V552.915H1084.16V559H1061.82ZM1088.32 552.864V547.051L1102.89 524.091H1107.9V532.136H1104.94L1095.75 546.676V546.949H1116.46V552.864H1088.32ZM1105.07 559V551.091L1105.21 548.517V524.091H1112.13V559H1105.07Z" fill="white"/>
<rect x="1270.75" y="226" width="309.489" height="137.253" fill="#2C6AB1" stroke="#233E5C" stroke-width="6"/>
<rect x="1250.87" y="245.873" width="309.489" height="137.253" fill="#2C6AB1" stroke="#233E5C" stroke-width="6"/>
<rect x="1231" y="265.747" width="309.489" height="137.253" fill="#2C6AB1" stroke="#233E5C" stroke-width="6"/>
<path d="M1269.53 349V319.909H1281.18C1283.32 319.909 1285.1 320.226 1286.53 320.861C1287.96 321.495 1289.04 322.376 1289.76 323.503C1290.48 324.62 1290.84 325.908 1290.84 327.366C1290.84 328.503 1290.61 329.502 1290.15 330.364C1289.7 331.216 1289.07 331.917 1288.28 332.466C1287.49 333.006 1286.59 333.389 1285.58 333.616V333.901C1286.69 333.948 1287.72 334.26 1288.69 334.838C1289.67 335.416 1290.46 336.225 1291.06 337.267C1291.67 338.299 1291.97 339.53 1291.97 340.96C1291.97 342.504 1291.59 343.882 1290.82 345.094C1290.06 346.296 1288.94 347.248 1287.45 347.949C1285.97 348.65 1284.14 349 1281.96 349H1269.53ZM1275.68 343.972H1280.69C1282.41 343.972 1283.66 343.645 1284.44 342.991C1285.23 342.329 1285.62 341.448 1285.62 340.349C1285.62 339.545 1285.43 338.834 1285.04 338.219C1284.65 337.603 1284.1 337.12 1283.38 336.77C1282.67 336.42 1281.82 336.244 1280.84 336.244H1275.68V343.972ZM1275.68 332.082H1280.24C1281.08 332.082 1281.83 331.936 1282.48 331.642C1283.15 331.339 1283.67 330.913 1284.05 330.364C1284.43 329.814 1284.63 329.156 1284.63 328.389C1284.63 327.338 1284.25 326.491 1283.51 325.847C1282.77 325.203 1281.72 324.881 1280.35 324.881H1275.68V332.082ZM1313.94 319.909H1320.09V338.801C1320.09 340.922 1319.59 342.778 1318.57 344.369C1317.57 345.96 1316.16 347.201 1314.35 348.091C1312.55 348.972 1310.44 349.412 1308.03 349.412C1305.62 349.412 1303.51 348.972 1301.7 348.091C1299.89 347.201 1298.48 345.96 1297.48 344.369C1296.48 342.778 1295.97 340.922 1295.97 338.801V319.909H1302.12V338.276C1302.12 339.384 1302.37 340.368 1302.85 341.23C1303.34 342.092 1304.03 342.769 1304.92 343.261C1305.81 343.754 1306.85 344 1308.03 344C1309.23 344 1310.26 343.754 1311.14 343.261C1312.03 342.769 1312.72 342.092 1313.2 341.23C1313.7 340.368 1313.94 339.384 1313.94 338.276V319.909ZM1344.44 329.312C1344.24 328.621 1343.96 328.01 1343.61 327.48C1343.25 326.94 1342.8 326.486 1342.28 326.116C1341.77 325.738 1341.19 325.449 1340.52 325.25C1339.87 325.051 1339.14 324.952 1338.35 324.952C1336.86 324.952 1335.56 325.321 1334.43 326.06C1333.31 326.798 1332.44 327.873 1331.82 329.284C1331.19 330.686 1330.88 332.4 1330.88 334.426C1330.88 336.453 1331.19 338.176 1331.8 339.597C1332.42 341.017 1333.29 342.101 1334.41 342.849C1335.54 343.588 1336.87 343.957 1338.41 343.957C1339.8 343.957 1340.99 343.711 1341.97 343.219C1342.97 342.717 1343.72 342.011 1344.24 341.102C1344.77 340.193 1345.04 339.118 1345.04 337.878L1346.29 338.062H1338.79V333.432H1350.96V337.097C1350.96 339.653 1350.42 341.85 1349.34 343.688C1348.26 345.515 1346.78 346.926 1344.88 347.92C1342.99 348.905 1340.82 349.398 1338.38 349.398C1335.65 349.398 1333.25 348.796 1331.19 347.594C1329.13 346.382 1327.52 344.663 1326.36 342.438C1325.21 340.203 1324.64 337.551 1324.64 334.483C1324.64 332.125 1324.98 330.023 1325.66 328.176C1326.36 326.32 1327.32 324.748 1328.56 323.46C1329.8 322.172 1331.25 321.192 1332.89 320.52C1334.54 319.848 1336.33 319.511 1338.25 319.511C1339.9 319.511 1341.43 319.753 1342.85 320.236C1344.27 320.709 1345.53 321.382 1346.63 322.253C1347.74 323.124 1348.64 324.161 1349.34 325.364C1350.04 326.557 1350.49 327.873 1350.69 329.312H1344.44ZM1374.87 329.312C1374.67 328.621 1374.39 328.01 1374.03 327.48C1373.67 326.94 1373.23 326.486 1372.71 326.116C1372.2 325.738 1371.62 325.449 1370.95 325.25C1370.3 325.051 1369.57 324.952 1368.78 324.952C1367.29 324.952 1365.99 325.321 1364.86 326.06C1363.74 326.798 1362.87 327.873 1362.25 329.284C1361.62 330.686 1361.31 332.4 1361.31 334.426C1361.31 336.453 1361.62 338.176 1362.23 339.597C1362.85 341.017 1363.72 342.101 1364.84 342.849C1365.97 343.588 1367.3 343.957 1368.84 343.957C1370.23 343.957 1371.42 343.711 1372.4 343.219C1373.4 342.717 1374.15 342.011 1374.67 341.102C1375.2 340.193 1375.47 339.118 1375.47 337.878L1376.72 338.062H1369.22V333.432H1381.39V337.097C1381.39 339.653 1380.85 341.85 1379.77 343.688C1378.69 345.515 1377.21 346.926 1375.31 347.92C1373.42 348.905 1371.25 349.398 1368.81 349.398C1366.08 349.398 1363.68 348.796 1361.62 347.594C1359.56 346.382 1357.95 344.663 1356.79 342.438C1355.64 340.203 1355.07 337.551 1355.07 334.483C1355.07 332.125 1355.41 330.023 1356.09 328.176C1356.79 326.32 1357.75 324.748 1358.99 323.46C1360.23 322.172 1361.68 321.192 1363.32 320.52C1364.97 319.848 1366.76 319.511 1368.68 319.511C1370.33 319.511 1371.86 319.753 1373.28 320.236C1374.7 320.709 1375.96 321.382 1377.06 322.253C1378.17 323.124 1379.07 324.161 1379.77 325.364C1380.47 326.557 1380.92 327.873 1381.12 329.312H1374.87ZM1383.14 319.909H1390.03L1396.66 332.438H1396.94L1403.58 319.909H1410.47L1399.86 338.716V349H1393.75V338.716L1383.14 319.909ZM1423.08 349V319.909H1434.56C1436.77 319.909 1438.65 320.33 1440.2 321.173C1441.75 322.007 1442.94 323.167 1443.75 324.653C1444.57 326.131 1444.99 327.835 1444.99 329.767C1444.99 331.699 1444.57 333.403 1443.74 334.881C1442.9 336.358 1441.7 337.509 1440.11 338.332C1438.54 339.156 1436.64 339.568 1434.4 339.568H1427.09V334.639H1433.41C1434.59 334.639 1435.57 334.436 1436.34 334.028C1437.11 333.612 1437.69 333.039 1438.07 332.31C1438.46 331.571 1438.65 330.723 1438.65 329.767C1438.65 328.801 1438.46 327.958 1438.07 327.239C1437.69 326.509 1437.11 325.946 1436.34 325.548C1435.56 325.141 1434.57 324.938 1433.38 324.938H1429.23V349H1423.08ZM1459.29 349H1448.98V319.909H1459.38C1462.31 319.909 1464.82 320.491 1466.94 321.656C1469.05 322.812 1470.67 324.473 1471.81 326.642C1472.95 328.811 1473.53 331.405 1473.53 334.426C1473.53 337.456 1472.95 340.061 1471.81 342.239C1470.67 344.417 1469.04 346.088 1466.91 347.253C1464.79 348.418 1462.25 349 1459.29 349ZM1455.13 343.73H1459.04C1460.86 343.73 1462.39 343.408 1463.63 342.764C1464.88 342.111 1465.81 341.102 1466.44 339.739C1467.07 338.366 1467.39 336.595 1467.39 334.426C1467.39 332.277 1467.07 330.52 1466.44 329.156C1465.81 327.793 1464.88 326.789 1463.64 326.145C1462.4 325.501 1460.87 325.179 1459.05 325.179H1455.13V343.73ZM1496.12 333.403L1490.58 333.744C1490.49 333.271 1490.28 332.845 1489.97 332.466C1489.66 332.078 1489.25 331.77 1488.74 331.543C1488.23 331.306 1487.63 331.188 1486.93 331.188C1486 331.188 1485.2 331.386 1484.56 331.784C1483.92 332.172 1483.59 332.693 1483.59 333.347C1483.59 333.867 1483.8 334.308 1484.22 334.668C1484.64 335.027 1485.35 335.316 1486.36 335.534L1490.31 336.33C1492.43 336.765 1494.02 337.466 1495.06 338.432C1496.1 339.398 1496.62 340.667 1496.62 342.239C1496.62 343.669 1496.2 344.923 1495.36 346.003C1494.52 347.082 1493.38 347.925 1491.92 348.531C1490.47 349.128 1488.8 349.426 1486.9 349.426C1484.02 349.426 1481.71 348.825 1480 347.622C1478.3 346.41 1477.3 344.762 1477 342.679L1482.96 342.366C1483.14 343.247 1483.57 343.92 1484.26 344.384C1484.95 344.838 1485.84 345.065 1486.92 345.065C1487.98 345.065 1488.83 344.862 1489.48 344.455C1490.13 344.038 1490.46 343.503 1490.47 342.849C1490.46 342.3 1490.23 341.85 1489.77 341.5C1489.32 341.14 1488.62 340.866 1487.67 340.676L1483.89 339.923C1481.76 339.497 1480.18 338.759 1479.13 337.707C1478.1 336.656 1477.59 335.316 1477.59 333.688C1477.59 332.286 1477.96 331.079 1478.72 330.065C1479.49 329.052 1480.56 328.271 1481.95 327.722C1483.34 327.172 1484.97 326.898 1486.83 326.898C1489.59 326.898 1491.76 327.48 1493.34 328.645C1494.93 329.81 1495.86 331.396 1496.12 333.403Z" fill="white"/>
<rect x="542" y="266" width="234" height="137" stroke="white" stroke-width="6" stroke-dasharray="16 16"/>
<path d="M564.253 323V288.091H571.634V316.915H586.599V323H564.253ZM591.351 323V296.818H598.612V323H591.351ZM594.999 293.443C593.919 293.443 592.993 293.085 592.22 292.369C591.459 291.642 591.078 290.773 591.078 289.761C591.078 288.761 591.459 287.903 592.22 287.188C592.993 286.46 593.919 286.097 594.999 286.097C596.078 286.097 596.999 286.46 597.76 287.188C598.533 287.903 598.919 288.761 598.919 289.761C598.919 290.773 598.533 291.642 597.76 292.369C596.999 293.085 596.078 293.443 594.999 293.443ZM616.259 323.511C613.611 323.511 611.321 322.949 609.389 321.824C607.469 320.687 605.986 319.108 604.94 317.085C603.895 315.051 603.372 312.693 603.372 310.011C603.372 307.307 603.895 304.943 604.94 302.92C605.986 300.886 607.469 299.307 609.389 298.182C611.321 297.045 613.611 296.477 616.259 296.477C618.906 296.477 621.19 297.045 623.111 298.182C625.043 299.307 626.531 300.886 627.577 302.92C628.622 304.943 629.145 307.307 629.145 310.011C629.145 312.693 628.622 315.051 627.577 317.085C626.531 319.108 625.043 320.687 623.111 321.824C621.19 322.949 618.906 323.511 616.259 323.511ZM616.293 317.886C617.497 317.886 618.503 317.545 619.31 316.864C620.116 316.17 620.724 315.227 621.134 314.034C621.554 312.841 621.764 311.483 621.764 309.96C621.764 308.438 621.554 307.08 621.134 305.886C620.724 304.693 620.116 303.75 619.31 303.057C618.503 302.364 617.497 302.017 616.293 302.017C615.077 302.017 614.054 302.364 613.224 303.057C612.406 303.75 611.787 304.693 611.366 305.886C610.957 307.08 610.753 308.438 610.753 309.96C610.753 311.483 610.957 312.841 611.366 314.034C611.787 315.227 612.406 316.17 613.224 316.864C614.054 317.545 615.077 317.886 616.293 317.886ZM641.128 307.864V323H633.866V296.818H640.787V301.438H641.094C641.673 299.915 642.645 298.71 644.009 297.824C645.372 296.926 647.026 296.477 648.969 296.477C650.787 296.477 652.372 296.875 653.724 297.67C655.077 298.466 656.128 299.602 656.878 301.08C657.628 302.545 658.003 304.295 658.003 306.33V323H650.741V307.625C650.753 306.023 650.344 304.773 649.514 303.875C648.685 302.966 647.543 302.511 646.088 302.511C645.111 302.511 644.247 302.722 643.497 303.142C642.759 303.562 642.179 304.176 641.759 304.983C641.349 305.778 641.139 306.739 641.128 307.864ZM685.51 304.284L678.862 304.693C678.749 304.125 678.504 303.614 678.129 303.159C677.754 302.693 677.26 302.324 676.646 302.051C676.044 301.767 675.322 301.625 674.482 301.625C673.357 301.625 672.408 301.864 671.635 302.341C670.862 302.807 670.476 303.432 670.476 304.216C670.476 304.841 670.726 305.369 671.226 305.801C671.726 306.233 672.584 306.58 673.8 306.841L678.538 307.795C681.084 308.318 682.982 309.159 684.232 310.318C685.482 311.477 686.107 313 686.107 314.886C686.107 316.602 685.601 318.108 684.589 319.403C683.589 320.699 682.214 321.71 680.464 322.438C678.726 323.153 676.72 323.511 674.447 323.511C670.982 323.511 668.22 322.79 666.163 321.347C664.118 319.892 662.919 317.915 662.567 315.415L669.709 315.04C669.925 316.097 670.447 316.903 671.277 317.46C672.107 318.006 673.169 318.278 674.464 318.278C675.737 318.278 676.76 318.034 677.533 317.545C678.317 317.045 678.714 316.403 678.726 315.619C678.714 314.96 678.436 314.42 677.891 314C677.345 313.568 676.504 313.239 675.368 313.011L670.834 312.108C668.277 311.597 666.374 310.71 665.124 309.449C663.885 308.187 663.266 306.58 663.266 304.625C663.266 302.943 663.72 301.494 664.629 300.278C665.55 299.062 666.839 298.125 668.499 297.466C670.169 296.807 672.124 296.477 674.362 296.477C677.669 296.477 680.271 297.176 682.169 298.574C684.078 299.972 685.192 301.875 685.51 304.284ZM722.895 305.545C722.895 309.352 722.173 312.591 720.73 315.261C719.298 317.932 717.344 319.972 714.866 321.381C712.401 322.778 709.628 323.477 706.548 323.477C703.446 323.477 700.662 322.773 698.196 321.364C695.73 319.955 693.781 317.915 692.349 315.244C690.918 312.574 690.202 309.341 690.202 305.545C690.202 301.739 690.918 298.5 692.349 295.83C693.781 293.159 695.73 291.125 698.196 289.727C700.662 288.318 703.446 287.614 706.548 287.614C709.628 287.614 712.401 288.318 714.866 289.727C717.344 291.125 719.298 293.159 720.73 295.83C722.173 298.5 722.895 301.739 722.895 305.545ZM715.412 305.545C715.412 303.08 715.043 301 714.304 299.307C713.577 297.614 712.548 296.33 711.219 295.455C709.889 294.58 708.332 294.142 706.548 294.142C704.764 294.142 703.207 294.58 701.878 295.455C700.548 296.33 699.514 297.614 698.776 299.307C698.048 301 697.685 303.08 697.685 305.545C697.685 308.011 698.048 310.091 698.776 311.784C699.514 313.477 700.548 314.761 701.878 315.636C703.207 316.511 704.764 316.949 706.548 316.949C708.332 316.949 709.889 316.511 711.219 315.636C712.548 314.761 713.577 313.477 714.304 311.784C715.043 310.091 715.412 308.011 715.412 305.545ZM747.3 298.131C747.163 296.756 746.578 295.687 745.544 294.926C744.51 294.165 743.107 293.784 741.334 293.784C740.129 293.784 739.112 293.955 738.283 294.295C737.453 294.625 736.817 295.085 736.374 295.676C735.942 296.267 735.726 296.938 735.726 297.688C735.703 298.312 735.834 298.858 736.118 299.324C736.413 299.79 736.817 300.193 737.328 300.534C737.839 300.864 738.43 301.153 739.101 301.403C739.771 301.642 740.487 301.847 741.249 302.017L744.385 302.767C745.908 303.108 747.305 303.562 748.578 304.131C749.851 304.699 750.953 305.398 751.885 306.227C752.817 307.057 753.538 308.034 754.05 309.159C754.572 310.284 754.839 311.574 754.851 313.028C754.839 315.165 754.294 317.017 753.214 318.585C752.146 320.142 750.601 321.352 748.578 322.216C746.567 323.068 744.141 323.494 741.3 323.494C738.482 323.494 736.027 323.062 733.936 322.199C731.857 321.335 730.232 320.057 729.061 318.364C727.902 316.659 727.294 314.551 727.237 312.04H734.379C734.459 313.21 734.794 314.187 735.385 314.972C735.987 315.744 736.788 316.33 737.788 316.727C738.8 317.114 739.942 317.307 741.214 317.307C742.464 317.307 743.55 317.125 744.47 316.761C745.402 316.398 746.124 315.892 746.635 315.244C747.146 314.597 747.402 313.852 747.402 313.011C747.402 312.227 747.169 311.568 746.703 311.034C746.249 310.5 745.578 310.045 744.692 309.67C743.817 309.295 742.743 308.955 741.47 308.648L737.669 307.693C734.726 306.977 732.402 305.858 730.697 304.335C728.993 302.812 728.146 300.761 728.158 298.182C728.146 296.068 728.709 294.222 729.845 292.642C730.993 291.062 732.567 289.83 734.567 288.943C736.567 288.057 738.839 287.614 741.385 287.614C743.976 287.614 746.237 288.057 748.169 288.943C750.112 289.83 751.624 291.062 752.703 292.642C753.783 294.222 754.339 296.051 754.374 298.131H747.3ZM634.563 346.091V381H627.183V346.091H634.563ZM655.704 344.455L644.454 386.25H638.198L649.448 344.455H655.704ZM691.418 363.545C691.418 367.352 690.697 370.591 689.254 373.261C687.822 375.932 685.867 377.972 683.39 379.381C680.924 380.778 678.151 381.477 675.072 381.477C671.969 381.477 669.185 380.773 666.719 379.364C664.254 377.955 662.305 375.915 660.873 373.244C659.441 370.574 658.725 367.341 658.725 363.545C658.725 359.739 659.441 356.5 660.873 353.83C662.305 351.159 664.254 349.125 666.719 347.727C669.185 346.318 671.969 345.614 675.072 345.614C678.151 345.614 680.924 346.318 683.39 347.727C685.867 349.125 687.822 351.159 689.254 353.83C690.697 356.5 691.418 359.739 691.418 363.545ZM683.935 363.545C683.935 361.08 683.566 359 682.827 357.307C682.1 355.614 681.072 354.33 679.742 353.455C678.413 352.58 676.856 352.142 675.072 352.142C673.288 352.142 671.731 352.58 670.401 353.455C669.072 354.33 668.038 355.614 667.299 357.307C666.572 359 666.208 361.08 666.208 363.545C666.208 366.011 666.572 368.091 667.299 369.784C668.038 371.477 669.072 372.761 670.401 373.636C671.731 374.511 673.288 374.949 675.072 374.949C676.856 374.949 678.413 374.511 679.742 373.636C681.072 372.761 682.1 371.477 682.827 369.784C683.566 368.091 683.935 366.011 683.935 363.545Z" fill="white"/>
<path d="M539 291L514 276.566V305.434L539 291ZM155 291L180 305.434V276.566L155 291ZM516.5 288.5L177.5 288.5V293.5L516.5 293.5V288.5Z" fill="white"/>
<rect x="860" y="266" width="310" height="137" fill="#2C6AB1" stroke="#233E5C" stroke-width="6"/>
<path d="M934.818 329.312C934.619 328.621 934.34 328.01 933.98 327.48C933.62 326.94 933.18 326.486 932.659 326.116C932.148 325.738 931.561 325.449 930.898 325.25C930.244 325.051 929.52 324.952 928.724 324.952C927.238 324.952 925.931 325.321 924.804 326.06C923.687 326.798 922.815 327.873 922.19 329.284C921.565 330.686 921.253 332.4 921.253 334.426C921.253 336.453 921.561 338.176 922.176 339.597C922.792 341.017 923.663 342.101 924.79 342.849C925.917 343.588 927.247 343.957 928.781 343.957C930.173 343.957 931.362 343.711 932.347 343.219C933.341 342.717 934.098 342.011 934.619 341.102C935.15 340.193 935.415 339.118 935.415 337.878L936.665 338.062H929.165V333.432H941.338V337.097C941.338 339.653 940.798 341.85 939.719 343.688C938.639 345.515 937.152 346.926 935.259 347.92C933.365 348.905 931.196 349.398 928.753 349.398C926.026 349.398 923.63 348.796 921.565 347.594C919.501 346.382 917.891 344.663 916.736 342.438C915.59 340.203 915.017 337.551 915.017 334.483C915.017 332.125 915.358 330.023 916.04 328.176C916.731 326.32 917.697 324.748 918.938 323.46C920.178 322.172 921.622 321.192 923.27 320.52C924.918 319.848 926.703 319.511 928.625 319.511C930.273 319.511 931.807 319.753 933.227 320.236C934.648 320.709 935.907 321.382 937.006 322.253C938.114 323.124 939.018 324.161 939.719 325.364C940.42 326.557 940.869 327.873 941.068 329.312H934.818ZM956.271 349H945.958V319.909H956.356C959.282 319.909 961.801 320.491 963.913 321.656C966.024 322.812 967.648 324.473 968.785 326.642C969.931 328.811 970.504 331.405 970.504 334.426C970.504 337.456 969.931 340.061 968.785 342.239C967.648 344.417 966.015 346.088 963.884 347.253C961.763 348.418 959.225 349 956.271 349ZM952.109 343.73H956.015C957.833 343.73 959.362 343.408 960.603 342.764C961.853 342.111 962.79 341.102 963.415 339.739C964.05 338.366 964.367 336.595 964.367 334.426C964.367 332.277 964.05 330.52 963.415 329.156C962.79 327.793 961.858 326.789 960.617 326.145C959.377 325.501 957.847 325.179 956.029 325.179H952.109V343.73ZM975.06 349V319.909H986.707C988.848 319.909 990.633 320.226 992.062 320.861C993.492 321.495 994.567 322.376 995.287 323.503C996.007 324.62 996.366 325.908 996.366 327.366C996.366 328.503 996.139 329.502 995.685 330.364C995.23 331.216 994.605 331.917 993.81 332.466C993.024 333.006 992.124 333.389 991.111 333.616V333.901C992.219 333.948 993.256 334.26 994.222 334.838C995.197 335.416 995.988 336.225 996.594 337.267C997.2 338.299 997.503 339.53 997.503 340.96C997.503 342.504 997.119 343.882 996.352 345.094C995.595 346.296 994.473 347.248 992.986 347.949C991.499 348.65 989.667 349 987.489 349H975.06ZM981.21 343.972H986.224C987.938 343.972 989.188 343.645 989.974 342.991C990.76 342.329 991.153 341.448 991.153 340.349C991.153 339.545 990.959 338.834 990.571 338.219C990.183 337.603 989.629 337.12 988.909 336.77C988.199 336.42 987.351 336.244 986.366 336.244H981.21V343.972ZM981.21 332.082H985.77C986.613 332.082 987.361 331.936 988.014 331.642C988.677 331.339 989.198 330.913 989.577 330.364C989.965 329.814 990.159 329.156 990.159 328.389C990.159 327.338 989.785 326.491 989.037 325.847C988.298 325.203 987.247 324.881 985.884 324.881H981.21V332.082ZM1026.54 328.276C1026.43 327.13 1025.94 326.24 1025.08 325.605C1024.22 324.971 1023.05 324.653 1021.57 324.653C1020.57 324.653 1019.72 324.795 1019.03 325.08C1018.34 325.354 1017.81 325.738 1017.44 326.23C1017.08 326.723 1016.9 327.281 1016.9 327.906C1016.88 328.427 1016.99 328.882 1017.23 329.27C1017.47 329.658 1017.81 329.994 1018.23 330.278C1018.66 330.553 1019.15 330.795 1019.71 331.003C1020.27 331.202 1020.87 331.372 1021.5 331.514L1024.12 332.139C1025.38 332.423 1026.55 332.802 1027.61 333.276C1028.67 333.749 1029.59 334.331 1030.37 335.023C1031.14 335.714 1031.74 336.528 1032.17 337.466C1032.6 338.403 1032.83 339.478 1032.84 340.69C1032.83 342.471 1032.37 344.014 1031.47 345.321C1030.58 346.618 1029.29 347.627 1027.61 348.347C1025.93 349.057 1023.91 349.412 1021.54 349.412C1019.2 349.412 1017.15 349.052 1015.41 348.332C1013.67 347.613 1012.32 346.547 1011.35 345.136C1010.38 343.716 1009.87 341.959 1009.83 339.866H1015.78C1015.84 340.842 1016.12 341.656 1016.62 342.31C1017.12 342.954 1017.78 343.441 1018.62 343.773C1019.46 344.095 1020.41 344.256 1021.47 344.256C1022.51 344.256 1023.42 344.104 1024.19 343.801C1024.96 343.498 1025.56 343.077 1025.99 342.537C1026.42 341.997 1026.63 341.377 1026.63 340.676C1026.63 340.023 1026.44 339.473 1026.05 339.028C1025.67 338.583 1025.11 338.205 1024.37 337.892C1023.64 337.58 1022.75 337.295 1021.69 337.04L1018.52 336.244C1016.07 335.648 1014.13 334.715 1012.71 333.446C1011.29 332.177 1010.58 330.468 1010.59 328.318C1010.58 326.557 1011.05 325.018 1012 323.702C1012.96 322.385 1014.27 321.358 1015.93 320.619C1017.6 319.881 1019.49 319.511 1021.62 319.511C1023.77 319.511 1025.66 319.881 1027.27 320.619C1028.89 321.358 1030.15 322.385 1031.05 323.702C1031.95 325.018 1032.41 326.543 1032.44 328.276H1026.54ZM1035.87 324.98V319.909H1059.76V324.98H1050.85V349H1044.77V324.98H1035.87ZM1081.66 319.909H1087.81V338.801C1087.81 340.922 1087.31 342.778 1086.29 344.369C1085.29 345.96 1083.88 347.201 1082.07 348.091C1080.26 348.972 1078.16 349.412 1075.75 349.412C1073.34 349.412 1071.23 348.972 1069.42 348.091C1067.61 347.201 1066.2 345.96 1065.2 344.369C1064.19 342.778 1063.69 340.922 1063.69 338.801V319.909H1069.84V338.276C1069.84 339.384 1070.08 340.368 1070.57 341.23C1071.06 342.092 1071.75 342.769 1072.64 343.261C1073.53 343.754 1074.57 344 1075.75 344C1076.95 344 1077.98 343.754 1078.86 343.261C1079.75 342.769 1080.44 342.092 1080.92 341.23C1081.42 340.368 1081.66 339.384 1081.66 338.276V319.909ZM1092.87 349V319.909H1104.52C1106.66 319.909 1108.45 320.226 1109.88 320.861C1111.3 321.495 1112.38 322.376 1113.1 323.503C1113.82 324.62 1114.18 325.908 1114.18 327.366C1114.18 328.503 1113.95 329.502 1113.5 330.364C1113.04 331.216 1112.42 331.917 1111.62 332.466C1110.84 333.006 1109.94 333.389 1108.92 333.616V333.901C1110.03 333.948 1111.07 334.26 1112.03 334.838C1113.01 335.416 1113.8 336.225 1114.41 337.267C1115.01 338.299 1115.32 339.53 1115.32 340.96C1115.32 342.504 1114.93 343.882 1114.16 345.094C1113.41 346.296 1112.29 347.248 1110.8 347.949C1109.31 348.65 1107.48 349 1105.3 349H1092.87ZM1099.02 343.972H1104.04C1105.75 343.972 1107 343.645 1107.79 342.991C1108.57 342.329 1108.97 341.448 1108.97 340.349C1108.97 339.545 1108.77 338.834 1108.38 338.219C1108 337.603 1107.44 337.12 1106.72 336.77C1106.01 336.42 1105.16 336.244 1104.18 336.244H1099.02V343.972ZM1099.02 332.082H1103.58C1104.43 332.082 1105.17 331.936 1105.83 331.642C1106.49 331.339 1107.01 330.913 1107.39 330.364C1107.78 329.814 1107.97 329.156 1107.97 328.389C1107.97 327.338 1107.6 326.491 1106.85 325.847C1106.11 325.203 1105.06 324.881 1103.7 324.881H1099.02V332.082Z" fill="white"/>
<path d="M539 377L514 362.566L514 391.434L539 377ZM155 377L180 391.434L180 362.566L155 377ZM516.5 374.5L177.5 374.5L177.5 379.5L516.5 379.5L516.5 374.5Z" fill="white"/>
<rect x="3" y="260" width="149" height="149" fill="#D9D9D9" stroke="black" stroke-width="6"/>
<path d="M58.6364 329.281C58.4574 328.659 58.206 328.109 57.8821 327.632C57.5582 327.146 57.1619 326.737 56.6932 326.405C56.233 326.064 55.7045 325.804 55.108 325.625C54.5199 325.446 53.8679 325.357 53.152 325.357C51.8139 325.357 50.6378 325.689 49.6236 326.354C48.6179 327.018 47.8338 327.986 47.2713 329.256C46.7088 330.517 46.4276 332.06 46.4276 333.884C46.4276 335.707 46.7045 337.259 47.2585 338.537C47.8125 339.815 48.5966 340.791 49.6108 341.464C50.625 342.129 51.8224 342.462 53.2031 342.462C54.456 342.462 55.5256 342.24 56.4119 341.797C57.3068 341.345 57.9886 340.71 58.4574 339.892C58.9347 339.074 59.1733 338.107 59.1733 336.99L60.2983 337.156H53.5483V332.989H64.5043V336.287C64.5043 338.588 64.0185 340.565 63.0469 342.219C62.0753 343.864 60.7372 345.134 59.0327 346.028C57.3281 346.915 55.3764 347.358 53.1776 347.358C50.723 347.358 48.5668 346.817 46.7088 345.734C44.8509 344.643 43.402 343.097 42.3622 341.094C41.331 339.082 40.8153 336.696 40.8153 333.935C40.8153 331.812 41.1222 329.92 41.7358 328.259C42.358 326.588 43.2273 325.173 44.3438 324.014C45.4602 322.855 46.7599 321.973 48.2429 321.368C49.7259 320.763 51.3324 320.46 53.0625 320.46C54.5455 320.46 55.9261 320.678 57.2045 321.112C58.483 321.538 59.6165 322.143 60.6051 322.928C61.6023 323.712 62.4162 324.645 63.0469 325.727C63.6776 326.801 64.0824 327.986 64.2614 329.281H58.6364ZM77.9435 347H68.6623V320.818H78.0202C80.6538 320.818 82.9208 321.342 84.8214 322.391C86.7219 323.43 88.1836 324.926 89.2063 326.878C90.2376 328.83 90.7532 331.165 90.7532 333.884C90.7532 336.611 90.2376 338.955 89.2063 340.915C88.1836 342.875 86.7134 344.379 84.7958 345.428C82.8867 346.476 80.6026 347 77.9435 347ZM74.1978 342.257H77.7134C79.3498 342.257 80.7262 341.967 81.8427 341.388C82.9677 340.8 83.8114 339.892 84.3739 338.665C84.945 337.429 85.2305 335.835 85.2305 333.884C85.2305 331.949 84.945 330.368 84.3739 329.141C83.8114 327.913 82.9719 327.01 81.8555 326.43C80.739 325.851 79.3626 325.561 77.7262 325.561H74.1978V342.257ZM94.8537 347V320.818H105.337C107.263 320.818 108.869 321.104 110.156 321.675C111.443 322.246 112.411 323.038 113.058 324.053C113.706 325.058 114.03 326.217 114.03 327.53C114.03 328.553 113.825 329.452 113.416 330.227C113.007 330.994 112.445 331.625 111.729 332.119C111.021 332.605 110.212 332.95 109.3 333.155V333.411C110.297 333.453 111.23 333.734 112.099 334.254C112.977 334.774 113.689 335.503 114.234 336.44C114.78 337.369 115.053 338.477 115.053 339.764C115.053 341.153 114.707 342.393 114.017 343.484C113.335 344.567 112.325 345.423 110.987 346.054C109.649 346.685 108 347 106.04 347H94.8537ZM100.389 342.474H104.902C106.445 342.474 107.57 342.18 108.277 341.592C108.984 340.996 109.338 340.203 109.338 339.214C109.338 338.49 109.163 337.851 108.814 337.297C108.464 336.743 107.966 336.308 107.318 335.993C106.679 335.678 105.916 335.52 105.03 335.52H100.389V342.474ZM100.389 331.774H104.493C105.251 331.774 105.925 331.642 106.513 331.378C107.109 331.105 107.578 330.722 107.919 330.227C108.268 329.733 108.443 329.141 108.443 328.45C108.443 327.504 108.107 326.741 107.433 326.162C106.768 325.582 105.822 325.293 104.595 325.293H100.389V331.774Z" fill="black"/>
<rect x="252" y="263" width="189" height="57" fill="white"/>
<path d="M318.398 279.727H323.318V294.841C323.318 296.538 322.913 298.023 322.102 299.295C321.299 300.568 320.174 301.561 318.727 302.273C317.28 302.977 315.595 303.33 313.67 303.33C311.739 303.33 310.049 302.977 308.602 302.273C307.155 301.561 306.03 300.568 305.227 299.295C304.424 298.023 304.023 296.538 304.023 294.841V279.727H308.943V294.42C308.943 295.307 309.136 296.095 309.523 296.784C309.917 297.473 310.47 298.015 311.182 298.409C311.894 298.803 312.723 299 313.67 299C314.625 299 315.455 298.803 316.159 298.409C316.871 298.015 317.42 297.473 317.807 296.784C318.201 296.095 318.398 295.307 318.398 294.42V279.727ZM331.378 303H326.105L334.139 279.727H340.48L348.503 303H343.23L337.401 285.045H337.219L331.378 303ZM331.048 293.852H343.503V297.693H331.048V293.852ZM351.304 303V279.727H360.486C362.243 279.727 363.743 280.042 364.986 280.67C366.236 281.292 367.187 282.174 367.838 283.318C368.497 284.455 368.827 285.792 368.827 287.33C368.827 288.875 368.493 290.205 367.827 291.318C367.16 292.424 366.194 293.273 364.929 293.864C363.671 294.455 362.149 294.75 360.361 294.75H354.213V290.795H359.565C360.505 290.795 361.285 290.667 361.906 290.409C362.527 290.152 362.99 289.765 363.293 289.25C363.603 288.735 363.759 288.095 363.759 287.33C363.759 286.557 363.603 285.905 363.293 285.375C362.99 284.845 362.524 284.443 361.895 284.17C361.274 283.89 360.49 283.75 359.543 283.75H356.224V303H351.304ZM363.872 292.409L369.656 303H364.224L358.565 292.409H363.872ZM371.418 283.784V279.727H390.531V283.784H383.406V303H378.543V283.784H371.418Z" fill="black"/>
<rect x="252" y="349" width="189" height="57" fill="white"/>
<path d="M265.023 389V365.727H280.705V369.784H269.943V375.33H279.898V379.386H269.943V384.943H280.75V389H265.023ZM283.73 369.784V365.727H302.844V369.784H295.719V389H290.855V369.784H283.73ZM305.991 389V365.727H310.912V375.33H320.901V365.727H325.81V389H320.901V379.386H310.912V389H305.991ZM329.866 389V365.727H345.548V369.784H334.787V375.33H344.741V379.386H334.787V384.943H345.594V389H329.866ZM349.46 389V365.727H358.642C360.4 365.727 361.9 366.042 363.142 366.67C364.392 367.292 365.343 368.174 365.994 369.318C366.653 370.455 366.983 371.792 366.983 373.33C366.983 374.875 366.65 376.205 365.983 377.318C365.316 378.424 364.35 379.273 363.085 379.864C361.828 380.455 360.305 380.75 358.517 380.75H352.369V376.795H357.722C358.661 376.795 359.441 376.667 360.062 376.409C360.684 376.152 361.146 375.765 361.449 375.25C361.759 374.735 361.915 374.095 361.915 373.33C361.915 372.557 361.759 371.905 361.449 371.375C361.146 370.845 360.68 370.443 360.051 370.17C359.43 369.89 358.646 369.75 357.699 369.75H354.381V389H349.46ZM362.028 378.409L367.812 389H362.381L356.722 378.409H362.028ZM389.926 365.727V389H385.676L375.551 374.352H375.381V389H370.46V365.727H374.778L384.824 380.364H385.028V365.727H389.926ZM393.991 389V365.727H409.673V369.784H398.912V375.33H408.866V379.386H398.912V384.943H409.719V389H393.991ZM412.699 369.784V365.727H431.812V369.784H424.688V389H419.824V369.784H412.699Z" fill="black"/>
<path d="M857 334L832 319.566L832 348.434L857 334ZM779 334L804 348.434L804 319.566L779 334ZM834.5 331.5L801.5 331.5L801.5 336.5L834.5 336.5L834.5 331.5Z" fill="white"/>
</svg>
