<svg width="1399" height="766" viewBox="0 0 1399 766" fill="none" xmlns="http://www.w3.org/2000/svg">
<rect width="1399" height="766" fill="white"/>
<rect x="56" y="261" width="1287" height="449" fill="#C0DF9A"/>
<path d="M81.0227 676V652.727H85.9432V671.943H95.9205V676H81.0227ZM99.0881 676V658.545H103.929V676H99.0881ZM101.52 656.295C100.8 656.295 100.183 656.057 99.6676 655.58C99.16 655.095 98.9062 654.515 98.9062 653.841C98.9062 653.174 99.16 652.602 99.6676 652.125C100.183 651.64 100.8 651.398 101.52 651.398C102.24 651.398 102.853 651.64 103.361 652.125C103.876 652.602 104.134 653.174 104.134 653.841C104.134 654.515 103.876 655.095 103.361 655.58C102.853 656.057 102.24 656.295 101.52 656.295ZM115.693 676.341C113.928 676.341 112.402 675.966 111.114 675.216C109.833 674.458 108.845 673.405 108.148 672.057C107.451 670.701 107.102 669.129 107.102 667.341C107.102 665.538 107.451 663.962 108.148 662.614C108.845 661.258 109.833 660.205 111.114 659.455C112.402 658.697 113.928 658.318 115.693 658.318C117.458 658.318 118.981 658.697 120.261 659.455C121.549 660.205 122.542 661.258 123.239 662.614C123.936 663.962 124.284 665.538 124.284 667.341C124.284 669.129 123.936 670.701 123.239 672.057C122.542 673.405 121.549 674.458 120.261 675.216C118.981 675.966 117.458 676.341 115.693 676.341ZM115.716 672.591C116.519 672.591 117.189 672.364 117.727 671.909C118.265 671.447 118.67 670.818 118.943 670.023C119.223 669.227 119.364 668.322 119.364 667.307C119.364 666.292 119.223 665.386 118.943 664.591C118.67 663.795 118.265 663.167 117.727 662.705C117.189 662.242 116.519 662.011 115.716 662.011C114.905 662.011 114.223 662.242 113.67 662.705C113.125 663.167 112.712 663.795 112.432 664.591C112.159 665.386 112.023 666.292 112.023 667.307C112.023 668.322 112.159 669.227 112.432 670.023C112.712 670.818 113.125 671.447 113.67 671.909C114.223 672.364 114.905 672.591 115.716 672.591ZM132.273 665.909V676H127.432V658.545H132.045V661.625H132.25C132.636 660.61 133.284 659.807 134.193 659.216C135.102 658.617 136.205 658.318 137.5 658.318C138.712 658.318 139.769 658.583 140.67 659.114C141.572 659.644 142.273 660.402 142.773 661.386C143.273 662.364 143.523 663.53 143.523 664.886V676H138.682V665.75C138.689 664.682 138.417 663.848 137.864 663.25C137.311 662.644 136.549 662.341 135.58 662.341C134.928 662.341 134.352 662.481 133.852 662.761C133.36 663.042 132.973 663.451 132.693 663.989C132.42 664.519 132.28 665.159 132.273 665.909ZM161.861 663.523L157.429 663.795C157.353 663.417 157.19 663.076 156.94 662.773C156.69 662.462 156.361 662.216 155.952 662.034C155.55 661.845 155.069 661.75 154.509 661.75C153.759 661.75 153.126 661.909 152.611 662.227C152.096 662.538 151.838 662.955 151.838 663.477C151.838 663.894 152.005 664.246 152.338 664.534C152.671 664.822 153.243 665.053 154.054 665.227L157.213 665.864C158.91 666.212 160.175 666.773 161.009 667.545C161.842 668.318 162.259 669.333 162.259 670.591C162.259 671.735 161.921 672.739 161.247 673.602C160.58 674.466 159.664 675.14 158.497 675.625C157.338 676.102 156.001 676.341 154.486 676.341C152.175 676.341 150.334 675.86 148.963 674.898C147.599 673.928 146.8 672.61 146.565 670.943L151.327 670.693C151.471 671.398 151.819 671.936 152.372 672.307C152.925 672.67 153.634 672.852 154.497 672.852C155.346 672.852 156.027 672.689 156.543 672.364C157.065 672.03 157.33 671.602 157.338 671.08C157.33 670.64 157.145 670.28 156.781 670C156.418 669.712 155.857 669.492 155.099 669.341L152.077 668.739C150.372 668.398 149.103 667.807 148.27 666.966C147.444 666.125 147.031 665.053 147.031 663.75C147.031 662.629 147.334 661.663 147.94 660.852C148.554 660.042 149.414 659.417 150.52 658.977C151.634 658.538 152.937 658.318 154.429 658.318C156.634 658.318 158.368 658.784 159.634 659.716C160.906 660.648 161.649 661.917 161.861 663.523ZM186.784 664.364C186.784 666.902 186.303 669.061 185.341 670.841C184.386 672.621 183.083 673.981 181.432 674.92C179.788 675.852 177.939 676.318 175.886 676.318C173.818 676.318 171.962 675.848 170.318 674.909C168.674 673.97 167.375 672.61 166.42 670.83C165.466 669.049 164.989 666.894 164.989 664.364C164.989 661.826 165.466 659.667 166.42 657.886C167.375 656.106 168.674 654.75 170.318 653.818C171.962 652.879 173.818 652.409 175.886 652.409C177.939 652.409 179.788 652.879 181.432 653.818C183.083 654.75 184.386 656.106 185.341 657.886C186.303 659.667 186.784 661.826 186.784 664.364ZM181.795 664.364C181.795 662.72 181.549 661.333 181.057 660.205C180.572 659.076 179.886 658.22 179 657.636C178.114 657.053 177.076 656.761 175.886 656.761C174.697 656.761 173.659 657.053 172.773 657.636C171.886 658.22 171.197 659.076 170.705 660.205C170.22 661.333 169.977 662.72 169.977 664.364C169.977 666.008 170.22 667.394 170.705 668.523C171.197 669.652 171.886 670.508 172.773 671.091C173.659 671.674 174.697 671.966 175.886 671.966C177.076 671.966 178.114 671.674 179 671.091C179.886 670.508 180.572 669.652 181.057 668.523C181.549 667.394 181.795 666.008 181.795 664.364ZM203.054 659.42C202.963 658.504 202.573 657.792 201.884 657.284C201.194 656.777 200.259 656.523 199.077 656.523C198.274 656.523 197.596 656.636 197.043 656.864C196.49 657.083 196.065 657.39 195.77 657.784C195.482 658.178 195.338 658.625 195.338 659.125C195.323 659.542 195.41 659.905 195.599 660.216C195.796 660.527 196.065 660.795 196.406 661.023C196.747 661.242 197.141 661.436 197.588 661.602C198.035 661.761 198.512 661.898 199.02 662.011L201.111 662.511C202.126 662.739 203.058 663.042 203.906 663.42C204.755 663.799 205.49 664.265 206.111 664.818C206.732 665.371 207.213 666.023 207.554 666.773C207.902 667.523 208.08 668.383 208.088 669.352C208.08 670.777 207.717 672.011 206.997 673.057C206.285 674.095 205.255 674.902 203.906 675.477C202.565 676.045 200.948 676.33 199.054 676.33C197.175 676.33 195.539 676.042 194.145 675.466C192.759 674.89 191.675 674.038 190.895 672.909C190.122 671.773 189.717 670.367 189.679 668.693H194.44C194.493 669.473 194.717 670.125 195.111 670.648C195.512 671.163 196.046 671.553 196.713 671.818C197.387 672.076 198.149 672.205 198.997 672.205C199.83 672.205 200.554 672.083 201.168 671.841C201.789 671.598 202.27 671.261 202.611 670.83C202.952 670.398 203.122 669.902 203.122 669.341C203.122 668.818 202.967 668.379 202.656 668.023C202.353 667.667 201.906 667.364 201.315 667.114C200.732 666.864 200.016 666.636 199.168 666.432L196.634 665.795C194.671 665.318 193.122 664.572 191.986 663.557C190.849 662.542 190.285 661.174 190.293 659.455C190.285 658.045 190.66 656.814 191.418 655.761C192.183 654.708 193.232 653.886 194.565 653.295C195.899 652.705 197.414 652.409 199.111 652.409C200.838 652.409 202.346 652.705 203.634 653.295C204.929 653.886 205.937 654.708 206.656 655.761C207.376 656.814 207.747 658.034 207.77 659.42H203.054Z" fill="black"/>
<rect x="56" y="93" width="1074" height="135" fill="#FFCA5F"/>
<path d="M494.023 112.727H500.091L506.5 128.364H506.773L513.182 112.727H519.25V136H514.477V120.852H514.284L508.261 135.886H505.011L498.989 120.795H498.795V136H494.023V112.727ZM523.213 136V118.545H528.054V136H523.213ZM525.645 116.295C524.925 116.295 524.308 116.057 523.793 115.58C523.285 115.095 523.031 114.515 523.031 113.841C523.031 113.174 523.285 112.602 523.793 112.125C524.308 111.64 524.925 111.398 525.645 111.398C526.365 111.398 526.978 111.64 527.486 112.125C528.001 112.602 528.259 113.174 528.259 113.841C528.259 114.515 528.001 115.095 527.486 115.58C526.978 116.057 526.365 116.295 525.645 116.295ZM539.818 136.341C538.03 136.341 536.492 135.962 535.205 135.205C533.924 134.439 532.939 133.379 532.25 132.023C531.568 130.667 531.227 129.106 531.227 127.341C531.227 125.553 531.572 123.985 532.261 122.636C532.958 121.28 533.947 120.223 535.227 119.466C536.508 118.701 538.03 118.318 539.795 118.318C541.318 118.318 542.652 118.595 543.795 119.148C544.939 119.701 545.845 120.477 546.511 121.477C547.178 122.477 547.545 123.652 547.614 125H543.045C542.917 124.129 542.576 123.428 542.023 122.898C541.477 122.36 540.761 122.091 539.875 122.091C539.125 122.091 538.47 122.295 537.909 122.705C537.356 123.106 536.924 123.693 536.614 124.466C536.303 125.239 536.148 126.174 536.148 127.273C536.148 128.386 536.299 129.333 536.602 130.114C536.913 130.894 537.348 131.489 537.909 131.898C538.47 132.307 539.125 132.511 539.875 132.511C540.428 132.511 540.924 132.398 541.364 132.17C541.811 131.943 542.178 131.614 542.466 131.182C542.761 130.742 542.955 130.216 543.045 129.602H547.614C547.538 130.936 547.174 132.11 546.523 133.125C545.879 134.133 544.989 134.92 543.852 135.489C542.716 136.057 541.371 136.341 539.818 136.341ZM550.713 136V118.545H555.406V121.591H555.588C555.906 120.508 556.44 119.689 557.19 119.136C557.94 118.576 558.804 118.295 559.781 118.295C560.024 118.295 560.285 118.311 560.565 118.341C560.846 118.371 561.092 118.413 561.304 118.466V122.761C561.077 122.693 560.762 122.633 560.361 122.58C559.959 122.527 559.592 122.5 559.259 122.5C558.546 122.5 557.91 122.655 557.349 122.966C556.796 123.269 556.357 123.693 556.031 124.239C555.713 124.784 555.554 125.413 555.554 126.125V136H550.713ZM570.881 136.341C569.116 136.341 567.589 135.966 566.301 135.216C565.021 134.458 564.032 133.405 563.335 132.057C562.638 130.701 562.29 129.129 562.29 127.341C562.29 125.538 562.638 123.962 563.335 122.614C564.032 121.258 565.021 120.205 566.301 119.455C567.589 118.697 569.116 118.318 570.881 118.318C572.646 118.318 574.169 118.697 575.449 119.455C576.737 120.205 577.729 121.258 578.426 122.614C579.123 123.962 579.472 125.538 579.472 127.341C579.472 129.129 579.123 130.701 578.426 132.057C577.729 133.405 576.737 134.458 575.449 135.216C574.169 135.966 572.646 136.341 570.881 136.341ZM570.903 132.591C571.706 132.591 572.377 132.364 572.915 131.909C573.453 131.447 573.858 130.818 574.131 130.023C574.411 129.227 574.551 128.322 574.551 127.307C574.551 126.292 574.411 125.386 574.131 124.591C573.858 123.795 573.453 123.167 572.915 122.705C572.377 122.242 571.706 122.011 570.903 122.011C570.093 122.011 569.411 122.242 568.858 122.705C568.313 123.167 567.9 123.795 567.619 124.591C567.347 125.386 567.21 126.292 567.21 127.307C567.21 128.322 567.347 129.227 567.619 130.023C567.9 130.818 568.313 131.447 568.858 131.909C569.411 132.364 570.093 132.591 570.903 132.591ZM582.71 136V112.727H591.892C593.657 112.727 595.161 113.064 596.403 113.739C597.646 114.405 598.593 115.333 599.244 116.523C599.903 117.705 600.233 119.068 600.233 120.614C600.233 122.159 599.9 123.523 599.233 124.705C598.566 125.886 597.6 126.807 596.335 127.466C595.078 128.125 593.555 128.455 591.767 128.455H585.915V124.511H590.972C591.919 124.511 592.699 124.348 593.312 124.023C593.934 123.689 594.396 123.231 594.699 122.648C595.009 122.057 595.165 121.379 595.165 120.614C595.165 119.841 595.009 119.167 594.699 118.591C594.396 118.008 593.934 117.557 593.312 117.239C592.691 116.913 591.903 116.75 590.949 116.75H587.631V136H582.71ZM606.327 142.545C605.713 142.545 605.137 142.496 604.599 142.398C604.069 142.307 603.63 142.189 603.281 142.045L604.372 138.432C604.94 138.606 605.452 138.701 605.906 138.716C606.368 138.731 606.766 138.625 607.099 138.398C607.44 138.17 607.717 137.784 607.929 137.239L608.213 136.5L601.952 118.545H607.043L610.656 131.364H610.838L614.486 118.545H619.611L612.827 137.886C612.501 138.826 612.058 139.644 611.497 140.341C610.944 141.045 610.243 141.587 609.395 141.966C608.546 142.352 607.524 142.545 606.327 142.545ZM631.372 118.545V122.182H620.861V118.545H631.372ZM623.247 114.364H628.088V130.636C628.088 131.083 628.156 131.432 628.293 131.682C628.429 131.924 628.618 132.095 628.861 132.193C629.111 132.292 629.399 132.341 629.724 132.341C629.952 132.341 630.179 132.322 630.406 132.284C630.634 132.239 630.808 132.205 630.929 132.182L631.69 135.784C631.448 135.86 631.107 135.947 630.668 136.045C630.228 136.152 629.694 136.216 629.065 136.239C627.899 136.284 626.876 136.129 625.997 135.773C625.126 135.417 624.448 134.864 623.963 134.114C623.478 133.364 623.24 132.417 623.247 131.273V114.364ZM639.741 125.909V136H634.901V112.727H639.605V121.625H639.81C640.204 120.595 640.84 119.788 641.719 119.205C642.598 118.614 643.7 118.318 645.026 118.318C646.238 118.318 647.295 118.583 648.196 119.114C649.105 119.636 649.81 120.39 650.31 121.375C650.817 122.352 651.067 123.523 651.06 124.886V136H646.219V125.75C646.226 124.674 645.954 123.837 645.401 123.239C644.855 122.64 644.09 122.341 643.105 122.341C642.446 122.341 641.863 122.481 641.355 122.761C640.855 123.042 640.461 123.451 640.173 123.989C639.893 124.519 639.749 125.159 639.741 125.909ZM662.756 136.341C660.991 136.341 659.464 135.966 658.176 135.216C656.896 134.458 655.907 133.405 655.21 132.057C654.513 130.701 654.165 129.129 654.165 127.341C654.165 125.538 654.513 123.962 655.21 122.614C655.907 121.258 656.896 120.205 658.176 119.455C659.464 118.697 660.991 118.318 662.756 118.318C664.521 118.318 666.044 118.697 667.324 119.455C668.612 120.205 669.604 121.258 670.301 122.614C670.998 123.962 671.347 125.538 671.347 127.341C671.347 129.129 670.998 130.701 670.301 132.057C669.604 133.405 668.612 134.458 667.324 135.216C666.044 135.966 664.521 136.341 662.756 136.341ZM662.778 132.591C663.581 132.591 664.252 132.364 664.79 131.909C665.328 131.447 665.733 130.818 666.006 130.023C666.286 129.227 666.426 128.322 666.426 127.307C666.426 126.292 666.286 125.386 666.006 124.591C665.733 123.795 665.328 123.167 664.79 122.705C664.252 122.242 663.581 122.011 662.778 122.011C661.968 122.011 661.286 122.242 660.733 122.705C660.188 123.167 659.775 123.795 659.494 124.591C659.222 125.386 659.085 126.292 659.085 127.307C659.085 128.322 659.222 129.227 659.494 130.023C659.775 130.818 660.188 131.447 660.733 131.909C661.286 132.364 661.968 132.591 662.778 132.591ZM679.335 125.909V136H674.494V118.545H679.108V121.625H679.312C679.699 120.61 680.347 119.807 681.256 119.216C682.165 118.617 683.267 118.318 684.562 118.318C685.775 118.318 686.831 118.583 687.733 119.114C688.634 119.644 689.335 120.402 689.835 121.386C690.335 122.364 690.585 123.53 690.585 124.886V136H685.744V125.75C685.752 124.682 685.479 123.848 684.926 123.25C684.373 122.644 683.612 122.341 682.642 122.341C681.991 122.341 681.415 122.481 680.915 122.761C680.422 123.042 680.036 123.451 679.756 123.989C679.483 124.519 679.343 125.159 679.335 125.909Z" fill="black"/>
<rect x="247" y="159" width="148" height="44" fill="#FFE0A2"/>
<path d="M286.098 178.547H282.987C282.93 178.144 282.814 177.787 282.639 177.474C282.464 177.157 282.239 176.887 281.964 176.665C281.69 176.442 281.373 176.272 281.013 176.153C280.658 176.035 280.272 175.976 279.855 175.976C279.102 175.976 278.446 176.163 277.888 176.537C277.329 176.906 276.896 177.446 276.588 178.156C276.28 178.862 276.126 179.719 276.126 180.727C276.126 181.764 276.28 182.635 276.588 183.341C276.901 184.046 277.336 184.579 277.895 184.939C278.454 185.299 279.1 185.479 279.834 185.479C280.246 185.479 280.627 185.424 280.977 185.315C281.332 185.206 281.647 185.048 281.922 184.839C282.196 184.626 282.424 184.368 282.604 184.065C282.788 183.762 282.916 183.417 282.987 183.028L286.098 183.043C286.018 183.71 285.816 184.354 285.494 184.974C285.177 185.59 284.749 186.142 284.209 186.629C283.674 187.112 283.035 187.496 282.291 187.78C281.553 188.059 280.717 188.199 279.784 188.199C278.487 188.199 277.327 187.905 276.304 187.318C275.286 186.731 274.481 185.881 273.889 184.768C273.302 183.656 273.009 182.309 273.009 180.727C273.009 179.141 273.307 177.792 273.903 176.679C274.5 175.566 275.31 174.719 276.332 174.136C277.355 173.549 278.506 173.256 279.784 173.256C280.627 173.256 281.408 173.374 282.128 173.611C282.852 173.848 283.494 174.193 284.053 174.648C284.611 175.098 285.066 175.649 285.416 176.303C285.771 176.956 285.999 177.704 286.098 178.547ZM301.67 180.727C301.67 182.313 301.369 183.663 300.768 184.776C300.171 185.888 299.357 186.738 298.325 187.325C297.297 187.908 296.142 188.199 294.859 188.199C293.566 188.199 292.406 187.905 291.379 187.318C290.351 186.731 289.539 185.881 288.942 184.768C288.346 183.656 288.048 182.309 288.048 180.727C288.048 179.141 288.346 177.792 288.942 176.679C289.539 175.566 290.351 174.719 291.379 174.136C292.406 173.549 293.566 173.256 294.859 173.256C296.142 173.256 297.297 173.549 298.325 174.136C299.357 174.719 300.171 175.566 300.768 176.679C301.369 177.792 301.67 179.141 301.67 180.727ZM298.552 180.727C298.552 179.7 298.398 178.833 298.09 178.128C297.787 177.422 297.359 176.887 296.805 176.523C296.251 176.158 295.602 175.976 294.859 175.976C294.115 175.976 293.467 176.158 292.913 176.523C292.359 176.887 291.928 177.422 291.62 178.128C291.317 178.833 291.165 179.7 291.165 180.727C291.165 181.755 291.317 182.621 291.62 183.327C291.928 184.032 292.359 184.567 292.913 184.932C293.467 185.296 294.115 185.479 294.859 185.479C295.602 185.479 296.251 185.296 296.805 184.932C297.359 184.567 297.787 184.032 298.09 183.327C298.398 182.621 298.552 181.755 298.552 180.727ZM316.114 173.455V188H313.458L307.13 178.845H307.023V188H303.948V173.455H306.647L312.925 182.602H313.053V173.455H316.114ZM326.545 177.638C326.489 177.065 326.245 176.62 325.814 176.303C325.383 175.985 324.798 175.827 324.06 175.827C323.558 175.827 323.134 175.898 322.788 176.04C322.443 176.177 322.178 176.369 321.993 176.615C321.813 176.861 321.723 177.141 321.723 177.453C321.714 177.714 321.768 177.941 321.886 178.135C322.009 178.329 322.178 178.497 322.391 178.639C322.604 178.777 322.85 178.897 323.129 179.001C323.409 179.101 323.707 179.186 324.024 179.257L325.331 179.57C325.965 179.712 326.548 179.901 327.078 180.138C327.608 180.375 328.068 180.666 328.456 181.011C328.844 181.357 329.145 181.764 329.358 182.233C329.576 182.702 329.687 183.239 329.692 183.845C329.687 184.735 329.46 185.507 329.01 186.161C328.565 186.809 327.921 187.313 327.078 187.673C326.24 188.028 325.229 188.206 324.045 188.206C322.871 188.206 321.848 188.026 320.977 187.666C320.111 187.306 319.434 186.774 318.946 186.068C318.463 185.358 318.21 184.48 318.186 183.433H321.162C321.195 183.921 321.335 184.328 321.581 184.655C321.832 184.977 322.166 185.221 322.582 185.386C323.004 185.547 323.48 185.628 324.01 185.628C324.531 185.628 324.983 185.552 325.366 185.401C325.755 185.249 326.055 185.038 326.268 184.768C326.482 184.499 326.588 184.188 326.588 183.838C326.588 183.511 326.491 183.237 326.297 183.014C326.107 182.792 325.828 182.602 325.459 182.446C325.094 182.29 324.647 182.148 324.116 182.02L322.533 181.622C321.306 181.324 320.338 180.857 319.628 180.223C318.918 179.589 318.565 178.734 318.57 177.659C318.565 176.778 318.799 176.009 319.273 175.351C319.751 174.693 320.407 174.179 321.24 173.81C322.073 173.44 323.02 173.256 324.081 173.256C325.161 173.256 326.103 173.44 326.908 173.81C327.717 174.179 328.347 174.693 328.797 175.351C329.247 176.009 329.479 176.771 329.493 177.638H326.545ZM345.127 180.727C345.127 182.313 344.826 183.663 344.225 184.776C343.628 185.888 342.814 186.738 341.782 187.325C340.754 187.908 339.599 188.199 338.316 188.199C337.023 188.199 335.863 187.905 334.836 187.318C333.808 186.731 332.996 185.881 332.4 184.768C331.803 183.656 331.505 182.309 331.505 180.727C331.505 179.141 331.803 177.792 332.4 176.679C332.996 175.566 333.808 174.719 334.836 174.136C335.863 173.549 337.023 173.256 338.316 173.256C339.599 173.256 340.754 173.549 341.782 174.136C342.814 174.719 343.628 175.566 344.225 176.679C344.826 177.792 345.127 179.141 345.127 180.727ZM342.009 180.727C342.009 179.7 341.855 178.833 341.547 178.128C341.244 177.422 340.816 176.887 340.262 176.523C339.708 176.158 339.059 175.976 338.316 175.976C337.572 175.976 336.924 176.158 336.37 176.523C335.816 176.887 335.385 177.422 335.077 178.128C334.774 178.833 334.623 179.7 334.623 180.727C334.623 181.755 334.774 182.621 335.077 183.327C335.385 184.032 335.816 184.567 336.37 184.932C336.924 185.296 337.572 185.479 338.316 185.479C339.059 185.479 339.708 185.296 340.262 184.932C340.816 184.567 341.244 184.032 341.547 183.327C341.855 182.621 342.009 181.755 342.009 180.727ZM347.405 188V173.455H350.48V185.464H356.716V188H347.405ZM358.752 188V173.455H368.554V175.99H361.828V179.456H368.049V181.991H361.828V185.464H368.582V188H358.752Z" fill="black"/>
<rect x="71" y="159" width="148" height="44" fill="#FFE0A2"/>
<path d="M113.71 175.99V173.455H125.656V175.99H121.203V188H118.163V175.99H113.71ZM130.699 173.455V188H127.624V173.455H130.699ZM133.229 173.455H137.022L141.027 183.227H141.198L145.203 173.455H148.996V188H146.013V178.533H145.892L142.128 187.929H140.097L136.333 178.497H136.212V188H133.229V173.455ZM151.53 188V173.455H161.331V175.99H154.605V179.456H160.827V181.991H154.605V185.464H161.359V188H151.53ZM163.776 188V173.455H169.515C170.613 173.455 171.551 173.651 172.327 174.044C173.108 174.432 173.703 174.984 174.11 175.699C174.522 176.409 174.728 177.245 174.728 178.206C174.728 179.172 174.519 180.003 174.103 180.699C173.686 181.39 173.082 181.92 172.292 182.29C171.506 182.659 170.554 182.844 169.436 182.844H165.594V180.372H168.939C169.526 180.372 170.014 180.292 170.402 180.131C170.791 179.97 171.079 179.728 171.269 179.406C171.463 179.084 171.56 178.684 171.56 178.206C171.56 177.723 171.463 177.316 171.269 176.984C171.079 176.653 170.788 176.402 170.395 176.232C170.007 176.056 169.517 175.969 168.925 175.969H166.851V188H163.776ZM171.631 181.381L175.246 188H171.851L168.314 181.381H171.631Z" fill="black"/>
<rect x="248" y="524" width="147" height="59" fill="#668B37"/>
<path d="M295.339 550.453C295.273 549.833 294.994 549.35 294.501 549.004C294.014 548.659 293.379 548.486 292.598 548.486C292.049 548.486 291.578 548.569 291.185 548.734C290.792 548.9 290.491 549.125 290.283 549.409C290.074 549.693 289.968 550.018 289.963 550.382C289.963 550.685 290.032 550.948 290.169 551.17C290.311 551.393 290.503 551.582 290.744 551.739C290.986 551.89 291.253 552.018 291.547 552.122C291.84 552.226 292.136 552.314 292.435 552.385L293.798 552.726C294.348 552.854 294.875 553.027 295.382 553.244C295.893 553.462 296.35 553.737 296.753 554.068C297.16 554.4 297.482 554.8 297.719 555.268C297.955 555.737 298.074 556.286 298.074 556.916C298.074 557.768 297.856 558.519 297.42 559.168C296.985 559.812 296.355 560.316 295.531 560.68C294.712 561.04 293.72 561.22 292.555 561.22C291.424 561.22 290.441 561.045 289.608 560.695C288.779 560.344 288.131 559.833 287.662 559.161C287.198 558.488 286.947 557.669 286.909 556.703H289.501C289.539 557.21 289.696 557.631 289.97 557.967C290.245 558.304 290.602 558.554 291.043 558.72C291.488 558.886 291.985 558.969 292.534 558.969C293.107 558.969 293.609 558.884 294.04 558.713C294.475 558.538 294.816 558.296 295.062 557.989C295.309 557.676 295.434 557.312 295.439 556.895C295.434 556.516 295.323 556.204 295.105 555.957C294.887 555.706 294.582 555.498 294.189 555.332C293.801 555.162 293.346 555.01 292.825 554.878L291.17 554.452C289.973 554.144 289.026 553.678 288.33 553.053C287.638 552.423 287.293 551.587 287.293 550.545C287.293 549.688 287.525 548.938 287.989 548.294C288.457 547.65 289.094 547.151 289.899 546.795C290.704 546.436 291.616 546.256 292.634 546.256C293.666 546.256 294.57 546.436 295.347 546.795C296.128 547.151 296.741 547.645 297.186 548.28C297.631 548.91 297.861 549.634 297.875 550.453H295.339ZM300.423 561V546.455H309.883V548.663H303.058V552.612H309.393V554.821H303.058V558.791H309.94V561H300.423ZM312.571 561V546.455H318.026C319.143 546.455 320.081 546.649 320.838 547.037C321.601 547.425 322.176 547.97 322.564 548.67C322.957 549.366 323.154 550.179 323.154 551.107C323.154 552.039 322.955 552.849 322.557 553.536C322.164 554.217 321.584 554.745 320.817 555.119C320.05 555.489 319.108 555.673 317.99 555.673H314.105V553.486H317.635C318.289 553.486 318.824 553.396 319.24 553.216C319.657 553.031 319.965 552.764 320.164 552.413C320.367 552.058 320.469 551.623 320.469 551.107C320.469 550.59 320.367 550.15 320.164 549.786C319.96 549.416 319.65 549.137 319.233 548.947C318.817 548.753 318.279 548.656 317.621 548.656H315.206V561H312.571ZM320.086 554.409L323.686 561H320.746L317.209 554.409H320.086ZM328.214 546.455V561H325.579V546.455H328.214ZM332.935 561H330.123L335.244 546.455H338.496L343.624 561H340.812L336.927 549.438H336.813L332.935 561ZM333.028 555.297H340.698V557.413H333.028V555.297ZM345.54 561V546.455H348.175V558.791H354.581V561H345.54Z" fill="white"/>
<rect x="537" y="415" width="147" height="59" fill="#668B37"/>
<path d="M590.381 437.455L594.166 448.903H594.315L598.094 437.455H600.991L595.864 452H592.611L587.49 437.455H590.381ZM605.542 437.455V452H602.907V437.455H605.542ZM608.396 452V437.455H613.85C614.968 437.455 615.905 437.649 616.663 438.037C617.425 438.425 618 438.97 618.388 439.67C618.781 440.366 618.978 441.179 618.978 442.107C618.978 443.039 618.779 443.849 618.381 444.536C617.988 445.217 617.408 445.745 616.641 446.119C615.874 446.489 614.932 446.673 613.815 446.673H609.93V444.486H613.46C614.113 444.486 614.648 444.396 615.065 444.216C615.481 444.031 615.789 443.764 615.988 443.413C616.192 443.058 616.293 442.623 616.293 442.107C616.293 441.59 616.192 441.15 615.988 440.786C615.784 440.416 615.474 440.137 615.058 439.947C614.641 439.753 614.103 439.656 613.445 439.656H611.031V452H608.396ZM615.91 445.409L619.511 452H616.57L613.033 445.409H615.91ZM620.764 439.663V437.455H632.369V439.663H627.874V452H625.26V439.663H620.764Z" fill="white"/>
<rect x="72" y="524" width="147" height="59" fill="#668B37"/>
<path d="M114.795 548.663V546.455H126.401V548.663H121.905V561H119.291V548.663H114.795ZM131.273 546.455V561H128.638V546.455H131.273ZM134.126 546.455H137.35L141.669 556.994H141.839L146.157 546.455H149.382V561H146.853V551.007H146.718L142.699 560.957H140.809L136.789 550.986H136.654V561H134.126V546.455ZM152.251 561V546.455H161.711V548.663H154.886V552.612H161.221V554.821H154.886V558.791H161.768V561H152.251ZM164.4 561V546.455H169.854C170.971 546.455 171.909 546.649 172.667 547.037C173.429 547.425 174.004 547.97 174.392 548.67C174.785 549.366 174.982 550.179 174.982 551.107C174.982 552.039 174.783 552.849 174.385 553.536C173.992 554.217 173.412 554.745 172.645 555.119C171.878 555.489 170.936 555.673 169.819 555.673H165.934V553.486H169.463C170.117 553.486 170.652 553.396 171.069 553.216C171.485 553.031 171.793 552.764 171.992 552.413C172.195 552.058 172.297 551.623 172.297 551.107C172.297 550.59 172.195 550.15 171.992 549.786C171.788 549.416 171.478 549.137 171.061 548.947C170.645 548.753 170.107 548.656 169.449 548.656H167.034V561H164.4ZM171.914 554.409L175.515 561H172.574L169.037 554.409H171.914Z" fill="white"/>
<rect x="423" y="298" width="147" height="106" fill="#668B37"/>
<path d="M489.388 319.455V334H487.044L480.19 324.092H480.07V334H477.435V319.455H479.793L486.639 329.369H486.767V319.455H489.388ZM492.259 334V319.455H501.577V321.663H494.894V325.612H500.938V327.821H494.894V334H492.259ZM511.882 323.453C511.816 322.833 511.537 322.35 511.044 322.004C510.557 321.659 509.922 321.486 509.141 321.486C508.592 321.486 508.121 321.569 507.728 321.734C507.335 321.9 507.034 322.125 506.826 322.409C506.617 322.693 506.511 323.018 506.506 323.382C506.506 323.685 506.575 323.948 506.712 324.17C506.854 324.393 507.046 324.582 507.287 324.739C507.529 324.89 507.796 325.018 508.09 325.122C508.383 325.226 508.679 325.314 508.978 325.385L510.341 325.726C510.891 325.854 511.418 326.027 511.925 326.244C512.436 326.462 512.893 326.737 513.296 327.068C513.703 327.4 514.025 327.8 514.262 328.268C514.498 328.737 514.617 329.286 514.617 329.916C514.617 330.768 514.399 331.519 513.963 332.168C513.528 332.812 512.898 333.316 512.074 333.68C511.255 334.04 510.263 334.22 509.098 334.22C507.967 334.22 506.984 334.045 506.151 333.695C505.322 333.344 504.674 332.833 504.205 332.161C503.741 331.488 503.49 330.669 503.452 329.703H506.044C506.082 330.21 506.239 330.631 506.513 330.967C506.788 331.304 507.145 331.554 507.586 331.72C508.031 331.886 508.528 331.969 509.077 331.969C509.65 331.969 510.152 331.884 510.583 331.713C511.018 331.538 511.359 331.296 511.605 330.989C511.852 330.676 511.977 330.312 511.982 329.895C511.977 329.516 511.866 329.204 511.648 328.957C511.43 328.706 511.125 328.498 510.732 328.332C510.344 328.162 509.889 328.01 509.368 327.878L507.713 327.452C506.516 327.144 505.569 326.678 504.873 326.053C504.181 325.423 503.836 324.587 503.836 323.545C503.836 322.688 504.068 321.938 504.532 321.294C505 320.65 505.637 320.151 506.442 319.795C507.247 319.436 508.158 319.256 509.176 319.256C510.209 319.256 511.113 319.436 511.89 319.795C512.671 320.151 513.284 320.645 513.729 321.28C514.174 321.91 514.404 322.634 514.418 323.453H511.882Z" fill="white"/>
<rect x="448" y="348" width="97" height="44" fill="#4C6729"/>
<path d="M472.264 377V362.455H475.339V374.464H481.575V377H472.264ZM486.066 377L481.904 362.455H485.263L487.671 372.561H487.792L490.448 362.455H493.324L495.973 372.582H496.101L498.509 362.455H501.868L497.706 377H494.709L491.939 367.49H491.826L489.063 377H486.066ZM506.589 362.455V377H503.514V362.455H506.589ZM509.12 377V362.455H514.858C515.962 362.455 516.901 362.665 517.678 363.087C518.454 363.503 519.046 364.083 519.453 364.827C519.865 365.565 520.071 366.418 520.071 367.384C520.071 368.349 519.863 369.202 519.446 369.94C519.03 370.679 518.426 371.254 517.635 371.666C516.849 372.078 515.898 372.284 514.78 372.284H511.123V369.82H514.283C514.875 369.82 515.363 369.718 515.746 369.514C516.134 369.306 516.423 369.019 516.613 368.655C516.807 368.286 516.904 367.862 516.904 367.384C516.904 366.901 516.807 366.479 516.613 366.119C516.423 365.755 516.134 365.473 515.746 365.274C515.358 365.071 514.865 364.969 514.269 364.969H512.195V377H509.12Z" fill="white"/>
<rect x="775" y="524" width="147" height="59" fill="#668B37"/>
<path d="M836.07 546.455V561H833.435V546.455H836.07ZM838.781 561V559.097L843.831 554.146C844.314 553.659 844.716 553.225 845.038 552.847C845.36 552.468 845.601 552.101 845.762 551.746C845.923 551.391 846.004 551.012 846.004 550.609C846.004 550.15 845.9 549.757 845.691 549.43C845.483 549.099 845.197 548.843 844.832 548.663C844.467 548.483 844.053 548.393 843.589 548.393C843.111 548.393 842.692 548.493 842.332 548.692C841.972 548.886 841.693 549.163 841.494 549.523C841.3 549.883 841.203 550.311 841.203 550.808H838.696C838.696 549.885 838.906 549.082 839.328 548.401C839.749 547.719 840.329 547.191 841.068 546.817C841.811 546.443 842.663 546.256 843.625 546.256C844.6 546.256 845.457 546.438 846.196 546.803C846.934 547.167 847.507 547.667 847.914 548.301C848.326 548.936 848.532 549.66 848.532 550.474C848.532 551.019 848.428 551.554 848.22 552.08C848.011 552.605 847.645 553.187 847.119 553.827C846.598 554.466 845.867 555.24 844.924 556.149L842.417 558.699V558.798H848.752V561H838.781ZM863.795 551.362H861.139C861.063 550.927 860.923 550.541 860.72 550.205C860.516 549.864 860.263 549.575 859.96 549.338C859.657 549.101 859.311 548.924 858.923 548.805C858.539 548.682 858.125 548.621 857.68 548.621C856.889 548.621 856.189 548.82 855.578 549.217C854.967 549.61 854.489 550.188 854.143 550.95C853.797 551.708 853.625 552.634 853.625 553.727C853.625 554.84 853.797 555.777 854.143 556.54C854.493 557.297 854.972 557.87 855.578 558.259C856.189 558.642 856.887 558.834 857.673 558.834C858.109 558.834 858.516 558.777 858.895 558.663C859.278 558.545 859.621 558.372 859.924 558.145C860.232 557.918 860.49 557.638 860.699 557.307C860.912 556.975 861.058 556.597 861.139 556.17L863.795 556.185C863.696 556.876 863.48 557.525 863.149 558.131C862.822 558.737 862.394 559.272 861.863 559.736C861.333 560.195 860.713 560.555 860.002 560.815C859.292 561.071 858.504 561.199 857.637 561.199C856.359 561.199 855.218 560.903 854.214 560.311C853.21 559.719 852.42 558.865 851.842 557.747C851.264 556.63 850.975 555.29 850.975 553.727C850.975 552.16 851.267 550.82 851.849 549.707C852.431 548.59 853.225 547.735 854.228 547.143C855.232 546.552 856.368 546.256 857.637 546.256C858.447 546.256 859.2 546.369 859.896 546.597C860.592 546.824 861.212 547.158 861.757 547.598C862.301 548.034 862.749 548.569 863.099 549.203C863.454 549.833 863.686 550.553 863.795 551.362Z" fill="white"/>
<rect x="537" y="524" width="147" height="59" fill="#668B37"/>
<path d="M558.435 561V546.455H567.895V548.663H561.07V552.612H567.405V554.821H561.07V558.791H567.952V561H558.435ZM569.944 548.663V546.455H581.549V548.663H577.053V561H574.44V548.663H569.944ZM583.786 561V546.455H586.421V552.612H593.161V546.455H595.803V561H593.161V554.821H586.421V561H583.786ZM598.669 561V546.455H608.129V548.663H601.304V552.612H607.639V554.821H601.304V558.791H608.186V561H598.669ZM610.817 561V546.455H616.272C617.389 546.455 618.327 546.649 619.085 547.037C619.847 547.425 620.422 547.97 620.81 548.67C621.203 549.366 621.4 550.179 621.4 551.107C621.4 552.039 621.201 552.849 620.803 553.536C620.41 554.217 619.83 554.745 619.063 555.119C618.296 555.489 617.354 555.673 616.237 555.673H612.352V553.486H615.881C616.535 553.486 617.07 553.396 617.487 553.216C617.903 553.031 618.211 552.764 618.41 552.413C618.613 552.058 618.715 551.623 618.715 551.107C618.715 550.59 618.613 550.15 618.41 549.786C618.206 549.416 617.896 549.137 617.479 548.947C617.063 548.753 616.525 548.656 615.867 548.656H613.452V561H610.817ZM618.332 554.409L621.933 561H618.992L615.455 554.409H618.332ZM635.778 546.455V561H633.435L626.581 551.092H626.46V561H623.825V546.455H626.183L633.03 556.369H633.158V546.455H635.778ZM638.65 561V546.455H648.11V548.663H641.284V552.612H647.62V554.821H641.284V558.791H648.167V561H638.65ZM650.159 548.663V546.455H661.764V548.663H657.268V561H654.654V548.663H650.159Z" fill="white"/>
<rect x="622" y="298" width="86" height="59" fill="#668B37"/>
<path d="M648.303 334H645.49L650.611 319.455H653.864L658.991 334H656.179L652.294 322.438H652.18L648.303 334ZM648.395 328.297H656.065V330.413H648.395V328.297ZM660.907 334V319.455H666.362C667.479 319.455 668.417 319.649 669.174 320.037C669.937 320.425 670.512 320.97 670.9 321.67C671.293 322.366 671.49 323.179 671.49 324.107C671.49 325.039 671.291 325.849 670.893 326.536C670.5 327.217 669.92 327.745 669.153 328.119C668.386 328.489 667.444 328.673 666.326 328.673H662.441V326.486H665.971C666.625 326.486 667.16 326.396 667.576 326.216C667.993 326.031 668.301 325.764 668.5 325.413C668.703 325.058 668.805 324.623 668.805 324.107C668.805 323.59 668.703 323.15 668.5 322.786C668.296 322.416 667.986 322.137 667.569 321.947C667.153 321.753 666.615 321.656 665.957 321.656H663.542V334H660.907ZM668.422 327.409L672.022 334H669.082L665.545 327.409H668.422ZM673.915 334V319.455H679.37C680.487 319.455 681.425 319.663 682.182 320.08C682.944 320.496 683.52 321.069 683.908 321.798C684.301 322.523 684.498 323.347 684.498 324.27C684.498 325.203 684.301 326.031 683.908 326.756C683.515 327.48 682.935 328.051 682.168 328.467C681.401 328.879 680.456 329.085 679.334 329.085H675.719V326.919H678.979C679.632 326.919 680.167 326.805 680.584 326.578C681.001 326.351 681.309 326.038 681.507 325.641C681.711 325.243 681.813 324.786 681.813 324.27C681.813 323.754 681.711 323.299 681.507 322.906C681.309 322.513 680.998 322.208 680.577 321.99C680.16 321.768 679.623 321.656 678.965 321.656H676.55V334H673.915Z" fill="white"/>
<rect x="1163" y="288" width="147" height="59" fill="#668B37"/>
<path d="M1214.38 309.455L1218.17 320.903H1218.32L1222.09 309.455H1224.99L1219.86 324H1216.61L1211.49 309.455H1214.38ZM1226.91 309.455H1230.13L1234.45 319.994H1234.62L1238.94 309.455H1242.16V324H1239.63V314.007H1239.5L1235.48 323.957H1233.59L1229.57 313.986H1229.44V324H1226.91V309.455ZM1245.03 309.455H1248.26L1252.57 319.994H1252.75L1257.06 309.455H1260.29V324H1257.76V314.007H1257.62L1253.6 323.957H1251.72L1247.7 313.986H1247.56V324H1245.03V309.455Z" fill="white"/>
<rect x="247" y="298" width="147" height="59" fill="#668B37"/>
<path d="M300.381 320.455L304.166 331.903H304.315L308.094 320.455H310.991L305.864 335H302.611L297.49 320.455H300.381ZM315.542 320.455V335H312.907V320.455H315.542ZM318.396 335V320.455H323.85C324.968 320.455 325.905 320.649 326.663 321.037C327.425 321.425 328 321.97 328.388 322.67C328.781 323.366 328.978 324.179 328.978 325.107C328.978 326.039 328.779 326.849 328.381 327.536C327.988 328.217 327.408 328.745 326.641 329.119C325.874 329.489 324.932 329.673 323.815 329.673H319.93V327.486H323.46C324.113 327.486 324.648 327.396 325.065 327.216C325.481 327.031 325.789 326.764 325.988 326.413C326.192 326.058 326.293 325.623 326.293 325.107C326.293 324.59 326.192 324.15 325.988 323.786C325.784 323.416 325.474 323.137 325.058 322.947C324.641 322.753 324.103 322.656 323.445 322.656H321.031V335H318.396ZM325.91 328.409L329.511 335H326.57L323.033 328.409H325.91ZM330.764 322.663V320.455H342.369V322.663H337.874V335H335.26V322.663H330.764Z" fill="white"/>
<rect x="775" y="295" width="147" height="59" fill="#668B37"/>
<path d="M828.381 317.455L832.166 328.903H832.315L836.094 317.455H838.991L833.864 332H830.611L825.49 317.455H828.381ZM843.542 317.455V332H840.907V317.455H843.542ZM846.396 332V317.455H851.85C852.968 317.455 853.905 317.649 854.663 318.037C855.425 318.425 856 318.97 856.388 319.67C856.781 320.366 856.978 321.179 856.978 322.107C856.978 323.039 856.779 323.849 856.381 324.536C855.988 325.217 855.408 325.745 854.641 326.119C853.874 326.489 852.932 326.673 851.815 326.673H847.93V324.486H851.46C852.113 324.486 852.648 324.396 853.065 324.216C853.481 324.031 853.789 323.764 853.988 323.413C854.192 323.058 854.293 322.623 854.293 322.107C854.293 321.59 854.192 321.15 853.988 320.786C853.784 320.416 853.474 320.137 853.058 319.947C852.641 319.753 852.103 319.656 851.445 319.656H849.031V332H846.396ZM853.91 325.409L857.511 332H854.57L851.033 325.409H853.91ZM858.764 319.663V317.455H870.369V319.663H865.874V332H863.26V319.663H858.764Z" fill="white"/>
<rect x="423" y="159" width="148" height="44" fill="#FFE0A2"/>
<path d="M480.892 173.455L484.408 184.506H484.543L488.065 173.455H491.474L486.46 188H482.497L477.476 173.455H480.892ZM493.225 188V173.455H502.856V175.99H496.3V179.456H502.217V181.991H496.3V188H493.225ZM512.815 177.638C512.758 177.065 512.514 176.62 512.083 176.303C511.653 175.985 511.068 175.827 510.329 175.827C509.827 175.827 509.404 175.898 509.058 176.04C508.712 176.177 508.447 176.369 508.262 176.615C508.083 176.861 507.993 177.141 507.993 177.453C507.983 177.714 508.038 177.941 508.156 178.135C508.279 178.329 508.447 178.497 508.66 178.639C508.873 178.777 509.119 178.897 509.399 179.001C509.678 179.101 509.976 179.186 510.294 179.257L511.6 179.57C512.235 179.712 512.817 179.901 513.348 180.138C513.878 180.375 514.337 180.666 514.725 181.011C515.114 181.357 515.414 181.764 515.627 182.233C515.845 182.702 515.957 183.239 515.961 183.845C515.957 184.735 515.729 185.507 515.279 186.161C514.834 186.809 514.19 187.313 513.348 187.673C512.51 188.028 511.499 188.206 510.315 188.206C509.141 188.206 508.118 188.026 507.247 187.666C506.38 187.306 505.703 186.774 505.216 186.068C504.733 185.358 504.479 184.48 504.456 183.433H507.431C507.465 183.921 507.604 184.328 507.85 184.655C508.101 184.977 508.435 185.221 508.852 185.386C509.273 185.547 509.749 185.628 510.279 185.628C510.8 185.628 511.252 185.552 511.636 185.401C512.024 185.249 512.325 185.038 512.538 184.768C512.751 184.499 512.858 184.188 512.858 183.838C512.858 183.511 512.761 183.237 512.566 183.014C512.377 182.792 512.098 182.602 511.728 182.446C511.364 182.29 510.916 182.148 510.386 182.02L508.802 181.622C507.576 181.324 506.608 180.857 505.897 180.223C505.187 179.589 504.834 178.734 504.839 177.659C504.834 176.778 505.069 176.009 505.542 175.351C506.02 174.693 506.676 174.179 507.51 173.81C508.343 173.44 509.29 173.256 510.35 173.256C511.43 173.256 512.372 173.44 513.177 173.81C513.987 174.179 514.617 174.693 515.066 175.351C515.516 176.009 515.748 176.771 515.762 177.638H512.815Z" fill="black"/>
<rect x="599" y="159" width="148" height="44" fill="#FFE0A2"/>
<path d="M649.264 188V173.455H652.339V185.464H658.575V188H649.264ZM663.066 188L658.904 173.455H662.263L664.671 183.561H664.792L667.448 173.455H670.324L672.973 183.582H673.101L675.509 173.455H678.868L674.706 188H671.709L668.939 178.49H668.826L666.063 188H663.066ZM683.589 173.455V188H680.514V173.455H683.589ZM686.12 188V173.455H691.858C692.962 173.455 693.901 173.665 694.678 174.087C695.454 174.503 696.046 175.083 696.453 175.827C696.865 176.565 697.071 177.418 697.071 178.384C697.071 179.349 696.863 180.202 696.446 180.94C696.03 181.679 695.426 182.254 694.635 182.666C693.849 183.078 692.898 183.284 691.78 183.284H688.123V180.82H691.283C691.875 180.82 692.363 180.718 692.746 180.514C693.134 180.306 693.423 180.019 693.613 179.655C693.807 179.286 693.904 178.862 693.904 178.384C693.904 177.901 693.807 177.479 693.613 177.119C693.423 176.755 693.134 176.473 692.746 176.274C692.358 176.071 691.865 175.969 691.269 175.969H689.195V188H686.12Z" fill="black"/>
<rect x="775" y="159" width="148" height="44" fill="#FFE0A2"/>
<path d="M817.264 188V173.455H823.003C824.106 173.455 825.046 173.665 825.822 174.087C826.599 174.503 827.191 175.083 827.598 175.827C828.01 176.565 828.216 177.418 828.216 178.384C828.216 179.349 828.008 180.202 827.591 180.94C827.174 181.679 826.571 182.254 825.78 182.666C824.994 183.078 824.042 183.284 822.925 183.284H819.267V180.82H822.428C823.019 180.82 823.507 180.718 823.891 180.514C824.279 180.306 824.568 180.019 824.757 179.655C824.951 179.286 825.048 178.862 825.048 178.384C825.048 177.901 824.951 177.479 824.757 177.119C824.568 176.755 824.279 176.473 823.891 176.274C823.502 176.071 823.01 175.969 822.413 175.969H820.339V188H817.264ZM842.38 173.455V188H839.723L833.395 178.845H833.289V188H830.213V173.455H832.912L839.191 182.602H839.319V173.455H842.38ZM850.148 188.199C849.144 188.199 848.249 188.014 847.463 187.645C846.682 187.276 846.062 186.767 845.602 186.118C845.143 185.469 844.904 184.726 844.885 183.888H847.868C847.901 184.451 848.138 184.908 848.578 185.259C849.018 185.609 849.542 185.784 850.148 185.784C850.631 185.784 851.057 185.678 851.426 185.464C851.8 185.247 852.091 184.946 852.3 184.562C852.513 184.174 852.619 183.729 852.619 183.227C852.619 182.716 852.51 182.266 852.293 181.878C852.08 181.49 851.784 181.187 851.405 180.969C851.026 180.751 850.593 180.64 850.105 180.635C849.679 180.635 849.265 180.723 848.862 180.898C848.464 181.073 848.154 181.312 847.932 181.615L845.197 181.125L845.886 173.455H854.778V175.969H848.422L848.045 179.612H848.131C848.386 179.252 848.772 178.954 849.288 178.717C849.804 178.481 850.382 178.362 851.021 178.362C851.897 178.362 852.679 178.568 853.365 178.98C854.052 179.392 854.594 179.958 854.991 180.678C855.389 181.393 855.586 182.216 855.581 183.149C855.586 184.129 855.358 185 854.899 185.763C854.445 186.52 853.808 187.117 852.989 187.553C852.174 187.983 851.227 188.199 850.148 188.199ZM863.102 188.199C862.042 188.199 861.097 188.017 860.268 187.652C859.445 187.283 858.794 186.776 858.315 186.132C857.842 185.483 857.598 184.735 857.584 183.888H860.68C860.699 184.243 860.815 184.555 861.028 184.825C861.246 185.09 861.535 185.296 861.895 185.443C862.255 185.59 862.66 185.663 863.109 185.663C863.578 185.663 863.992 185.58 864.352 185.415C864.712 185.249 864.994 185.019 865.197 184.726C865.401 184.432 865.503 184.094 865.503 183.71C865.503 183.322 865.394 182.979 865.176 182.68C864.963 182.377 864.655 182.141 864.253 181.97C863.855 181.8 863.382 181.714 862.832 181.714H861.476V179.456H862.832C863.296 179.456 863.706 179.375 864.061 179.214C864.421 179.054 864.7 178.831 864.899 178.547C865.098 178.258 865.197 177.922 865.197 177.538C865.197 177.174 865.11 176.854 864.935 176.58C864.764 176.3 864.523 176.082 864.21 175.926C863.902 175.77 863.543 175.692 863.131 175.692C862.714 175.692 862.333 175.768 861.987 175.919C861.642 176.066 861.365 176.277 861.156 176.551C860.948 176.826 860.837 177.148 860.822 177.517H857.875C857.889 176.679 858.128 175.94 858.592 175.301C859.056 174.662 859.681 174.162 860.467 173.803C861.258 173.438 862.151 173.256 863.145 173.256C864.149 173.256 865.027 173.438 865.78 173.803C866.533 174.167 867.117 174.66 867.534 175.28C867.955 175.895 868.164 176.587 868.159 177.354C868.164 178.168 867.911 178.848 867.399 179.392C866.893 179.937 866.232 180.282 865.418 180.429V180.543C866.488 180.68 867.302 181.052 867.861 181.658C868.424 182.259 868.704 183.012 868.699 183.916C868.704 184.745 868.464 185.481 867.982 186.125C867.503 186.769 866.843 187.276 866 187.645C865.157 188.014 864.191 188.199 863.102 188.199ZM870.909 188V185.784L876.087 180.99C876.527 180.564 876.897 180.18 877.195 179.839C877.498 179.499 877.728 179.165 877.884 178.838C878.04 178.507 878.118 178.149 878.118 177.766C878.118 177.339 878.021 176.973 877.827 176.665C877.633 176.352 877.368 176.113 877.032 175.947C876.695 175.777 876.314 175.692 875.888 175.692C875.443 175.692 875.055 175.782 874.723 175.962C874.392 176.142 874.136 176.4 873.956 176.736C873.776 177.072 873.686 177.472 873.686 177.936H870.767C870.767 176.984 870.983 176.158 871.414 175.457C871.845 174.757 872.448 174.214 873.225 173.831C874.001 173.447 874.896 173.256 875.909 173.256C876.951 173.256 877.858 173.44 878.63 173.81C879.406 174.174 880.01 174.681 880.441 175.33C880.872 175.978 881.087 176.722 881.087 177.56C881.087 178.109 880.978 178.651 880.76 179.186C880.547 179.721 880.166 180.315 879.617 180.969C879.068 181.617 878.293 182.396 877.294 183.305L875.171 185.386V185.486H881.279V188H870.909Z" fill="black"/>
<rect x="951" y="159" width="148" height="44" fill="#FFE0A2"/>
<path d="M971.264 188V173.455H980.895V175.99H974.339V179.456H980.256V181.991H974.339V188H971.264ZM982.963 188V173.455H988.702C989.801 173.455 990.738 173.651 991.515 174.044C992.296 174.432 992.89 174.984 993.297 175.699C993.709 176.409 993.915 177.245 993.915 178.206C993.915 179.172 993.707 180.003 993.29 180.699C992.873 181.39 992.27 181.92 991.479 182.29C990.693 182.659 989.741 182.844 988.624 182.844H984.782V180.372H988.127C988.714 180.372 989.202 180.292 989.59 180.131C989.978 179.97 990.267 179.728 990.456 179.406C990.65 179.084 990.748 178.684 990.748 178.206C990.748 177.723 990.65 177.316 990.456 176.984C990.267 176.653 989.976 176.402 989.583 176.232C989.194 176.056 988.704 175.969 988.113 175.969H986.039V188H982.963ZM990.819 181.381L994.434 188H991.039L987.502 181.381H990.819ZM998.596 188H995.3L1000.32 173.455H1004.28L1009.3 188H1006L1002.36 176.778H1002.25L998.596 188ZM998.39 182.283H1006.17V184.683H998.39V182.283ZM1011.05 173.455H1014.84L1018.85 183.227H1019.02L1023.02 173.455H1026.82V188H1023.83V178.533H1023.71L1019.95 187.929H1017.92L1014.15 178.497H1014.03V188H1011.05V173.455ZM1029.35 188V173.455H1039.15V175.99H1032.43V179.456H1038.65V181.991H1032.43V185.464H1039.18V188H1029.35ZM1041.6 188V173.455H1047.42C1048.49 173.455 1049.38 173.613 1050.1 173.93C1050.81 174.248 1051.35 174.688 1051.71 175.251C1052.07 175.81 1052.25 176.454 1052.25 177.183C1052.25 177.751 1052.14 178.251 1051.91 178.682C1051.68 179.108 1051.37 179.458 1050.97 179.733C1050.58 180.003 1050.13 180.195 1049.62 180.308V180.45C1050.18 180.474 1050.69 180.63 1051.18 180.919C1051.66 181.208 1052.06 181.613 1052.36 182.134C1052.67 182.65 1052.82 183.265 1052.82 183.98C1052.82 184.752 1052.63 185.441 1052.24 186.047C1051.86 186.648 1051.3 187.124 1050.56 187.474C1049.82 187.825 1048.9 188 1047.81 188H1041.6ZM1044.67 185.486H1047.18C1048.04 185.486 1048.66 185.322 1049.05 184.996C1049.45 184.664 1049.64 184.224 1049.64 183.675C1049.64 183.272 1049.55 182.917 1049.35 182.609C1049.16 182.302 1048.88 182.06 1048.52 181.885C1048.17 181.71 1047.74 181.622 1047.25 181.622H1044.67V185.486ZM1044.67 179.541H1046.95C1047.37 179.541 1047.75 179.468 1048.07 179.321C1048.4 179.17 1048.67 178.956 1048.85 178.682C1049.05 178.407 1049.15 178.078 1049.15 177.695C1049.15 177.169 1048.96 176.745 1048.58 176.423C1048.22 176.101 1047.69 175.94 1047.01 175.94H1044.67V179.541ZM1063.8 173.455H1066.88V182.901C1066.88 183.961 1066.63 184.889 1066.12 185.685C1065.62 186.48 1064.91 187.1 1064.01 187.545C1063.1 187.986 1062.05 188.206 1060.85 188.206C1059.64 188.206 1058.59 187.986 1057.68 187.545C1056.78 187.1 1056.07 186.48 1055.57 185.685C1055.07 184.889 1054.82 183.961 1054.82 182.901V173.455H1057.89V182.638C1057.89 183.192 1058.01 183.684 1058.26 184.115C1058.5 184.546 1058.85 184.884 1059.29 185.131C1059.74 185.377 1060.26 185.5 1060.85 185.5C1061.45 185.5 1061.96 185.377 1062.4 185.131C1062.85 184.884 1063.19 184.546 1063.43 184.115C1063.68 183.684 1063.8 183.192 1063.8 182.638V173.455ZM1069.41 188V173.455H1079.04V175.99H1072.48V179.456H1078.4V181.991H1072.48V188H1069.41Z" fill="black"/>
<rect x="1164" y="119" width="146" height="100" fill="#AC5D55"/>
<path d="M1208.26 176V161.455H1211.34V173.464H1217.58V176H1208.26ZM1222.69 161.455V176H1219.61V161.455H1222.69ZM1237.38 161.455V176H1234.73L1228.4 166.845H1228.29V176H1225.22V161.455H1227.92L1234.19 170.602H1234.32V161.455H1237.38ZM1248.91 161.455H1251.98V170.901C1251.98 171.961 1251.73 172.889 1251.22 173.685C1250.72 174.48 1250.02 175.1 1249.11 175.545C1248.21 175.986 1247.16 176.206 1245.95 176.206C1244.75 176.206 1243.69 175.986 1242.79 175.545C1241.88 175.1 1241.18 174.48 1240.68 173.685C1240.18 172.889 1239.92 171.961 1239.92 170.901V161.455H1243V170.638C1243 171.192 1243.12 171.684 1243.36 172.115C1243.61 172.546 1243.95 172.884 1244.4 173.131C1244.84 173.377 1245.36 173.5 1245.95 173.5C1246.55 173.5 1247.07 173.377 1247.51 173.131C1247.95 172.884 1248.3 172.546 1248.54 172.115C1248.79 171.684 1248.91 171.192 1248.91 170.638V161.455ZM1257.4 161.455L1260.33 166.412H1260.44L1263.39 161.455H1266.87L1262.43 168.727L1266.96 176H1263.43L1260.44 171.036H1260.33L1257.35 176H1253.83L1258.38 168.727L1253.91 161.455H1257.4Z" fill="white"/>
<rect x="1164" y="56" width="146" height="63" fill="#D5AEAA"/>
<path d="M1187.2 81.3636H1189.66V88.9205C1189.66 89.7689 1189.46 90.5114 1189.05 91.1477C1188.65 91.7841 1188.09 92.2803 1187.36 92.6364C1186.64 92.9886 1185.8 93.1648 1184.84 93.1648C1183.87 93.1648 1183.02 92.9886 1182.3 92.6364C1181.58 92.2803 1181.02 91.7841 1180.61 91.1477C1180.21 90.5114 1180.01 89.7689 1180.01 88.9205V81.3636H1182.47V88.7102C1182.47 89.1534 1182.57 89.5473 1182.76 89.892C1182.96 90.2367 1183.23 90.5076 1183.59 90.7045C1183.95 90.9015 1184.36 91 1184.84 91C1185.31 91 1185.73 90.9015 1186.08 90.7045C1186.44 90.5076 1186.71 90.2367 1186.9 89.892C1187.1 89.5473 1187.2 89.1534 1187.2 88.7102V81.3636ZM1194.14 81.3636V93H1191.68V81.3636H1194.14ZM1206.86 87.1818C1206.86 88.4508 1206.62 89.5303 1206.14 90.4205C1205.66 91.3106 1205.01 91.9905 1204.18 92.4602C1203.36 92.9261 1202.44 93.1591 1201.41 93.1591C1200.38 93.1591 1199.45 92.9242 1198.63 92.4545C1197.81 91.9848 1197.16 91.3049 1196.68 90.4148C1196.2 89.5246 1195.96 88.447 1195.96 87.1818C1195.96 85.9129 1196.2 84.8333 1196.68 83.9432C1197.16 83.053 1197.81 82.375 1198.63 81.9091C1199.45 81.4394 1200.38 81.2045 1201.41 81.2045C1202.44 81.2045 1203.36 81.4394 1204.18 81.9091C1205.01 82.375 1205.66 83.053 1206.14 83.9432C1206.62 84.8333 1206.86 85.9129 1206.86 87.1818ZM1204.37 87.1818C1204.37 86.3598 1204.24 85.6667 1204 85.1023C1203.75 84.5379 1203.41 84.1098 1202.97 83.8182C1202.53 83.5265 1202.01 83.3807 1201.41 83.3807C1200.82 83.3807 1200.3 83.5265 1199.86 83.8182C1199.41 84.1098 1199.07 84.5379 1198.82 85.1023C1198.58 85.6667 1198.46 86.3598 1198.46 87.1818C1198.46 88.0038 1198.58 88.697 1198.82 89.2614C1199.07 89.8258 1199.41 90.2538 1199.86 90.5455C1200.3 90.8371 1200.82 90.983 1201.41 90.983C1202.01 90.983 1202.53 90.8371 1202.97 90.5455C1203.41 90.2538 1203.75 89.8258 1204 89.2614C1204.24 88.697 1204.37 88.0038 1204.37 87.1818ZM1220.1 85.125C1220.02 84.8485 1219.91 84.6042 1219.77 84.392C1219.62 84.1761 1219.45 83.9943 1219.24 83.8466C1219.03 83.6951 1218.8 83.5795 1218.53 83.5C1218.27 83.4205 1217.98 83.3807 1217.66 83.3807C1217.07 83.3807 1216.55 83.5284 1216.1 83.8239C1215.65 84.1193 1215.3 84.5492 1215.05 85.1136C1214.8 85.6742 1214.68 86.3598 1214.68 87.1705C1214.68 87.9811 1214.8 88.6705 1215.05 89.2386C1215.29 89.8068 1215.64 90.2405 1216.09 90.5398C1216.54 90.8352 1217.07 90.983 1217.69 90.983C1218.24 90.983 1218.72 90.8845 1219.11 90.6875C1219.51 90.4867 1219.81 90.2045 1220.02 89.8409C1220.23 89.4773 1220.34 89.0473 1220.34 88.5511L1220.84 88.625H1217.84V86.7727H1222.71V88.2386C1222.71 89.2614 1222.49 90.1402 1222.06 90.875C1221.63 91.6061 1221.04 92.1705 1220.28 92.5682C1219.52 92.9621 1218.65 93.1591 1217.68 93.1591C1216.59 93.1591 1215.63 92.9186 1214.8 92.4375C1213.98 91.9527 1213.33 91.2652 1212.87 90.375C1212.41 89.4811 1212.18 88.4205 1212.18 87.1932C1212.18 86.25 1212.32 85.4091 1212.59 84.6705C1212.87 83.928 1213.25 83.2992 1213.75 82.7841C1214.25 82.2689 1214.82 81.8769 1215.48 81.608C1216.14 81.339 1216.86 81.2045 1217.62 81.2045C1218.28 81.2045 1218.9 81.3011 1219.47 81.4943C1220.03 81.6837 1220.54 81.9527 1220.98 82.3011C1221.42 82.6496 1221.78 83.0644 1222.06 83.5455C1222.34 84.0227 1222.52 84.5492 1222.6 85.125H1220.1ZM1224.56 93V81.3636H1229.15C1230.03 81.3636 1230.78 81.5208 1231.4 81.8352C1232.02 82.1458 1232.5 82.5871 1232.83 83.1591C1233.15 83.7273 1233.32 84.3958 1233.32 85.1648C1233.32 85.9375 1233.15 86.6023 1232.82 87.1591C1232.49 87.7121 1232 88.1364 1231.37 88.4318C1230.74 88.7273 1229.98 88.875 1229.09 88.875H1226.01V86.8977H1228.69C1229.16 86.8977 1229.55 86.8333 1229.86 86.7045C1230.17 86.5758 1230.4 86.3826 1230.55 86.125C1230.71 85.8674 1230.79 85.5473 1230.79 85.1648C1230.79 84.7784 1230.71 84.4527 1230.55 84.1875C1230.4 83.9223 1230.17 83.7216 1229.85 83.5852C1229.54 83.4451 1229.15 83.375 1228.68 83.375H1227.02V93H1224.56ZM1230.84 87.7045L1233.73 93H1231.02L1228.19 87.7045H1230.84ZM1237.06 93H1234.43L1238.44 81.3636H1241.62L1245.63 93H1242.99L1240.08 84.0227H1239.98L1237.06 93ZM1236.9 88.4261H1243.13V90.3466H1236.9V88.4261ZM1247.03 93V81.3636H1251.62C1252.5 81.3636 1253.25 81.5322 1253.87 81.8693C1254.49 82.2027 1254.97 82.6667 1255.29 83.2614C1255.62 83.8523 1255.79 84.5341 1255.79 85.3068C1255.79 86.0795 1255.62 86.7614 1255.29 87.3523C1254.96 87.9432 1254.47 88.4034 1253.84 88.733C1253.21 89.0625 1252.45 89.2273 1251.56 89.2273H1248.63V87.2557H1251.16C1251.63 87.2557 1252.02 87.1742 1252.33 87.0114C1252.64 86.8447 1252.87 86.6155 1253.02 86.3239C1253.18 86.0284 1253.25 85.6894 1253.25 85.3068C1253.25 84.9205 1253.18 84.5833 1253.02 84.2955C1252.87 84.0038 1252.64 83.7784 1252.33 83.6193C1252.02 83.4564 1251.62 83.375 1251.15 83.375H1249.49V93H1247.03ZM1257.39 93V81.3636H1259.85V86.1648H1264.84V81.3636H1267.3V93H1264.84V88.1932H1259.85V93H1257.39ZM1271.78 81.3636V93H1269.32V81.3636H1271.78ZM1284.08 85.4375H1281.59C1281.54 85.1155 1281.45 84.8295 1281.31 84.5795C1281.17 84.3258 1280.99 84.1098 1280.77 83.9318C1280.55 83.7538 1280.29 83.6174 1280.01 83.5227C1279.72 83.428 1279.41 83.3807 1279.08 83.3807C1278.48 83.3807 1277.95 83.5303 1277.51 83.8295C1277.06 84.125 1276.71 84.5568 1276.47 85.125C1276.22 85.6894 1276.1 86.375 1276.1 87.1818C1276.1 88.0114 1276.22 88.7083 1276.47 89.2727C1276.72 89.8371 1277.07 90.2633 1277.51 90.5511C1277.96 90.839 1278.48 90.983 1279.06 90.983C1279.39 90.983 1279.7 90.9394 1279.98 90.8523C1280.26 90.7652 1280.51 90.6383 1280.73 90.4716C1280.95 90.3011 1281.14 90.0947 1281.28 89.8523C1281.43 89.6098 1281.53 89.3333 1281.59 89.0227L1284.08 89.0341C1284.01 89.5682 1283.85 90.0833 1283.59 90.5795C1283.34 91.072 1283 91.5133 1282.56 91.9034C1282.14 92.2898 1281.62 92.5966 1281.03 92.8239C1280.44 93.0473 1279.77 93.1591 1279.02 93.1591C1277.99 93.1591 1277.06 92.9242 1276.24 92.4545C1275.43 91.9848 1274.78 91.3049 1274.31 90.4148C1273.84 89.5246 1273.6 88.447 1273.6 87.1818C1273.6 85.9129 1273.84 84.8333 1274.32 83.9432C1274.8 83.053 1275.44 82.375 1276.26 81.9091C1277.08 81.4394 1278 81.2045 1279.02 81.2045C1279.7 81.2045 1280.32 81.2992 1280.9 81.4886C1281.48 81.678 1281.99 81.9545 1282.44 82.3182C1282.89 82.678 1283.25 83.1193 1283.53 83.642C1283.81 84.1648 1284 84.7633 1284.08 85.4375ZM1292.15 84.7102C1292.11 84.2519 1291.91 83.8958 1291.57 83.642C1291.22 83.3883 1290.75 83.2614 1290.16 83.2614C1289.76 83.2614 1289.42 83.3182 1289.15 83.4318C1288.87 83.5417 1288.66 83.6951 1288.51 83.892C1288.37 84.089 1288.29 84.3125 1288.29 84.5625C1288.29 84.7708 1288.33 84.9527 1288.42 85.108C1288.52 85.2633 1288.66 85.3977 1288.83 85.5114C1289 85.6212 1289.2 85.7178 1289.42 85.8011C1289.64 85.8807 1289.88 85.9489 1290.13 86.0057L1291.18 86.2557C1291.69 86.3693 1292.15 86.5208 1292.58 86.7102C1293 86.8996 1293.37 87.1326 1293.68 87.4091C1293.99 87.6856 1294.23 88.0114 1294.4 88.3864C1294.58 88.7614 1294.67 89.1913 1294.67 89.6761C1294.67 90.3883 1294.48 91.0057 1294.12 91.5284C1293.77 92.0473 1293.25 92.4508 1292.58 92.7386C1291.91 93.0227 1291.1 93.1648 1290.15 93.1648C1289.21 93.1648 1288.39 93.0208 1287.7 92.733C1287 92.4451 1286.46 92.0189 1286.07 91.4545C1285.69 90.8864 1285.48 90.1837 1285.46 89.3466H1287.85C1287.87 89.7367 1287.98 90.0625 1288.18 90.3239C1288.38 90.5814 1288.65 90.7765 1288.98 90.9091C1289.32 91.0379 1289.7 91.1023 1290.12 91.1023C1290.54 91.1023 1290.9 91.0417 1291.21 90.9205C1291.52 90.7992 1291.76 90.6307 1291.93 90.4148C1292.1 90.1989 1292.19 89.9508 1292.19 89.6705C1292.19 89.4091 1292.11 89.1894 1291.95 89.0114C1291.8 88.8333 1291.58 88.6818 1291.28 88.5568C1290.99 88.4318 1290.63 88.3182 1290.21 88.2159L1288.94 87.8977C1287.96 87.6591 1287.19 87.286 1286.62 86.7784C1286.05 86.2708 1285.77 85.5871 1285.77 84.7273C1285.77 84.0227 1285.96 83.4072 1286.33 82.8807C1286.72 82.3542 1287.24 81.9432 1287.91 81.6477C1288.57 81.3523 1289.33 81.2045 1290.18 81.2045C1291.04 81.2045 1291.8 81.3523 1292.44 81.6477C1293.09 81.9432 1293.59 82.3542 1293.95 82.8807C1294.31 83.4072 1294.5 84.017 1294.51 84.7102H1292.15Z" fill="black"/>
<path d="M497 203L485.243 222.877L508.336 223.12L497 203ZM496 298L507.757 278.123L484.664 277.88L496 298ZM494.811 220.978L494.19 279.98L498.189 280.022L498.81 221.02L494.811 220.978Z" fill="black"/>
<path d="M320 203L308.243 222.877L331.336 223.12L320 203ZM319 298L330.757 278.123L307.664 277.88L319 298ZM317.811 220.978L317.19 279.98L321.189 280.022L321.81 221.02L317.811 220.978Z" fill="black"/>
<path d="M321 357L309.453 377L332.547 377L321 357ZM321 524L332.547 504L309.453 504L321 524ZM319 375L319 506L323 506L323 375L319 375Z" fill="black"/>
<path d="M145 203L133.453 223L156.547 223L145 203ZM145 524L156.547 504L133.453 504L145 524ZM143 221L143 506L147 506L147 221L143 221Z" fill="black"/>
<path d="M849 203L837.453 223L860.547 223L849 203ZM849 295L860.547 275L837.453 275L849 295ZM847 221L847 277L851 277L851 221L847 221Z" fill="black"/>
<path d="M725 203L713.453 223H736.547L725 203ZM723 221V445H727V221H723Z" fill="black"/>
<path fill-rule="evenodd" clip-rule="evenodd" d="M496 404L484.884 424.065L494.431 424.007L495 450.462V452.452H517V461.999L537 450.452L517 438.905V448.452H498.957L498.43 423.983L507.977 423.926L496 404Z" fill="black"/>
<path d="M665 203L653.453 223L676.547 223L665 203ZM665 298L676.547 278L653.453 278L665 298ZM663 221L663 280L667 280L667 221L663 221Z" fill="black"/>
<path d="M665 357L642.859 363.567L659.617 379.458L665 357ZM610 415L632.141 408.433L615.383 392.542L610 415ZM651.163 368.685L620.934 400.563L623.837 403.315L654.066 371.437L651.163 368.685Z" fill="black"/>
<path d="M610 474L598.453 494L621.547 494L610 474ZM610 524L621.547 504L598.453 504L610 524ZM608 492L608 506L612 506L612 492L608 492Z" fill="black"/>
<path d="M619 328L604 319.34V336.66L619 328ZM568 328L583 336.66V319.34L568 328ZM605.5 326.5H581.5V329.5H605.5V326.5Z" fill="black"/>
<path d="M849 354L840.34 369L857.66 369L849 354ZM849 524L857.66 509L840.34 509L849 524ZM847.5 367.5L847.5 510.5L850.5 510.5L850.5 367.5L847.5 367.5Z" fill="black"/>
<path fill-rule="evenodd" clip-rule="evenodd" d="M1025 203L1013.45 223H1023V319H1027H1143V328.547L1163 317L1143 305.453V315L1027 315V223H1036.55L1025 203Z" fill="black"/>
<path d="M1237 219L1225.45 239H1248.55L1237 219ZM1237 288L1248.55 268H1225.45L1237 288ZM1235 237V270H1239V237H1235Z" fill="black"/>
<path d="M685 445L705 456.547V433.453L685 445ZM727 443H703V447H727V443Z" fill="black"/>
</svg>
