<svg width="1287" height="654" viewBox="0 0 1287 654" fill="none" xmlns="http://www.w3.org/2000/svg">
<rect y="205" width="1287" height="449" fill="#9EC8E0"/>
<path d="M25.0227 620V596.727H29.9432V615.943H39.9205V620H25.0227ZM43.0881 620V602.545H47.929V620H43.0881ZM45.5199 600.295C44.8002 600.295 44.1828 600.057 43.6676 599.58C43.16 599.095 42.9062 598.515 42.9062 597.841C42.9062 597.174 43.16 596.602 43.6676 596.125C44.1828 595.64 44.8002 595.398 45.5199 595.398C46.2396 595.398 46.8532 595.64 47.3608 596.125C47.8759 596.602 48.1335 597.174 48.1335 597.841C48.1335 598.515 47.8759 599.095 47.3608 599.58C46.8532 600.057 46.2396 600.295 45.5199 600.295ZM59.6932 620.341C57.928 620.341 56.4015 619.966 55.1136 619.216C53.8333 618.458 52.8447 617.405 52.1477 616.057C51.4508 614.701 51.1023 613.129 51.1023 611.341C51.1023 609.538 51.4508 607.962 52.1477 606.614C52.8447 605.258 53.8333 604.205 55.1136 603.455C56.4015 602.697 57.928 602.318 59.6932 602.318C61.4583 602.318 62.9811 602.697 64.2614 603.455C65.5492 604.205 66.5417 605.258 67.2386 606.614C67.9356 607.962 68.2841 609.538 68.2841 611.341C68.2841 613.129 67.9356 614.701 67.2386 616.057C66.5417 617.405 65.5492 618.458 64.2614 619.216C62.9811 619.966 61.4583 620.341 59.6932 620.341ZM59.7159 616.591C60.5189 616.591 61.1894 616.364 61.7273 615.909C62.2652 615.447 62.6705 614.818 62.9432 614.023C63.2235 613.227 63.3636 612.322 63.3636 611.307C63.3636 610.292 63.2235 609.386 62.9432 608.591C62.6705 607.795 62.2652 607.167 61.7273 606.705C61.1894 606.242 60.5189 606.011 59.7159 606.011C58.9053 606.011 58.2235 606.242 57.6705 606.705C57.125 607.167 56.7121 607.795 56.4318 608.591C56.1591 609.386 56.0227 610.292 56.0227 611.307C56.0227 612.322 56.1591 613.227 56.4318 614.023C56.7121 614.818 57.125 615.447 57.6705 615.909C58.2235 616.364 58.9053 616.591 59.7159 616.591ZM76.2727 609.909V620H71.4318V602.545H76.0455V605.625H76.25C76.6364 604.61 77.2841 603.807 78.1932 603.216C79.1023 602.617 80.2045 602.318 81.5 602.318C82.7121 602.318 83.7689 602.583 84.6705 603.114C85.572 603.644 86.2727 604.402 86.7727 605.386C87.2727 606.364 87.5227 607.53 87.5227 608.886V620H82.6818V609.75C82.6894 608.682 82.4167 607.848 81.8636 607.25C81.3106 606.644 80.5492 606.341 79.5795 606.341C78.928 606.341 78.3523 606.481 77.8523 606.761C77.3598 607.042 76.9735 607.451 76.6932 607.989C76.4205 608.519 76.2803 609.159 76.2727 609.909ZM105.861 607.523L101.429 607.795C101.353 607.417 101.19 607.076 100.94 606.773C100.69 606.462 100.361 606.216 99.9517 606.034C99.5502 605.845 99.0691 605.75 98.5085 605.75C97.7585 605.75 97.1259 605.909 96.6108 606.227C96.0956 606.538 95.8381 606.955 95.8381 607.477C95.8381 607.894 96.0047 608.246 96.3381 608.534C96.6714 608.822 97.2434 609.053 98.054 609.227L101.213 609.864C102.91 610.212 104.175 610.773 105.009 611.545C105.842 612.318 106.259 613.333 106.259 614.591C106.259 615.735 105.921 616.739 105.247 617.602C104.58 618.466 103.664 619.14 102.497 619.625C101.338 620.102 100.001 620.341 98.4858 620.341C96.1752 620.341 94.3343 619.86 92.9631 618.898C91.5994 617.928 90.8002 616.61 90.5653 614.943L95.3267 614.693C95.4706 615.398 95.8191 615.936 96.3722 616.307C96.9252 616.67 97.6335 616.852 98.4972 616.852C99.3456 616.852 100.027 616.689 100.543 616.364C101.065 616.03 101.33 615.602 101.338 615.08C101.33 614.64 101.145 614.28 100.781 614C100.418 613.712 99.857 613.492 99.0994 613.341L96.0767 612.739C94.3722 612.398 93.1032 611.807 92.2699 610.966C91.4441 610.125 91.0312 609.053 91.0312 607.75C91.0312 606.629 91.3343 605.663 91.9403 604.852C92.554 604.042 93.4138 603.417 94.5199 602.977C95.6335 602.538 96.9366 602.318 98.429 602.318C100.634 602.318 102.368 602.784 103.634 603.716C104.906 604.648 105.649 605.917 105.861 607.523ZM130.784 608.364C130.784 610.902 130.303 613.061 129.341 614.841C128.386 616.621 127.083 617.981 125.432 618.92C123.788 619.852 121.939 620.318 119.886 620.318C117.818 620.318 115.962 619.848 114.318 618.909C112.674 617.97 111.375 616.61 110.42 614.83C109.466 613.049 108.989 610.894 108.989 608.364C108.989 605.826 109.466 603.667 110.42 601.886C111.375 600.106 112.674 598.75 114.318 597.818C115.962 596.879 117.818 596.409 119.886 596.409C121.939 596.409 123.788 596.879 125.432 597.818C127.083 598.75 128.386 600.106 129.341 601.886C130.303 603.667 130.784 605.826 130.784 608.364ZM125.795 608.364C125.795 606.72 125.549 605.333 125.057 604.205C124.572 603.076 123.886 602.22 123 601.636C122.114 601.053 121.076 600.761 119.886 600.761C118.697 600.761 117.659 601.053 116.773 601.636C115.886 602.22 115.197 603.076 114.705 604.205C114.22 605.333 113.977 606.72 113.977 608.364C113.977 610.008 114.22 611.394 114.705 612.523C115.197 613.652 115.886 614.508 116.773 615.091C117.659 615.674 118.697 615.966 119.886 615.966C121.076 615.966 122.114 615.674 123 615.091C123.886 614.508 124.572 613.652 125.057 612.523C125.549 611.394 125.795 610.008 125.795 608.364ZM147.054 603.42C146.963 602.504 146.573 601.792 145.884 601.284C145.194 600.777 144.259 600.523 143.077 600.523C142.274 600.523 141.596 600.636 141.043 600.864C140.49 601.083 140.065 601.39 139.77 601.784C139.482 602.178 139.338 602.625 139.338 603.125C139.323 603.542 139.41 603.905 139.599 604.216C139.796 604.527 140.065 604.795 140.406 605.023C140.747 605.242 141.141 605.436 141.588 605.602C142.035 605.761 142.512 605.898 143.02 606.011L145.111 606.511C146.126 606.739 147.058 607.042 147.906 607.42C148.755 607.799 149.49 608.265 150.111 608.818C150.732 609.371 151.213 610.023 151.554 610.773C151.902 611.523 152.08 612.383 152.088 613.352C152.08 614.777 151.717 616.011 150.997 617.057C150.285 618.095 149.255 618.902 147.906 619.477C146.565 620.045 144.948 620.33 143.054 620.33C141.175 620.33 139.539 620.042 138.145 619.466C136.759 618.89 135.675 618.038 134.895 616.909C134.122 615.773 133.717 614.367 133.679 612.693H138.44C138.493 613.473 138.717 614.125 139.111 614.648C139.512 615.163 140.046 615.553 140.713 615.818C141.387 616.076 142.149 616.205 142.997 616.205C143.83 616.205 144.554 616.083 145.168 615.841C145.789 615.598 146.27 615.261 146.611 614.83C146.952 614.398 147.122 613.902 147.122 613.341C147.122 612.818 146.967 612.379 146.656 612.023C146.353 611.667 145.906 611.364 145.315 611.114C144.732 610.864 144.016 610.636 143.168 610.432L140.634 609.795C138.671 609.318 137.122 608.572 135.986 607.557C134.849 606.542 134.285 605.174 134.293 603.455C134.285 602.045 134.66 600.814 135.418 599.761C136.183 598.708 137.232 597.886 138.565 597.295C139.899 596.705 141.414 596.409 143.111 596.409C144.838 596.409 146.346 596.705 147.634 597.295C148.929 597.886 149.937 598.708 150.656 599.761C151.376 600.814 151.747 602.034 151.77 603.42H147.054Z" fill="black"/>
<rect y="37" width="1074" height="135" fill="#F0DD77"/>
<path d="M438.023 56.7273H444.091L450.5 72.3636H450.773L457.182 56.7273H463.25V80H458.477V64.8523H458.284L452.261 79.8864H449.011L442.989 64.7955H442.795V80H438.023V56.7273ZM467.213 80V62.5455H472.054V80H467.213ZM469.645 60.2955C468.925 60.2955 468.308 60.0568 467.793 59.5795C467.285 59.0947 467.031 58.5152 467.031 57.8409C467.031 57.1742 467.285 56.6023 467.793 56.125C468.308 55.6402 468.925 55.3977 469.645 55.3977C470.365 55.3977 470.978 55.6402 471.486 56.125C472.001 56.6023 472.259 57.1742 472.259 57.8409C472.259 58.5152 472.001 59.0947 471.486 59.5795C470.978 60.0568 470.365 60.2955 469.645 60.2955ZM483.818 80.3409C482.03 80.3409 480.492 79.9621 479.205 79.2045C477.924 78.4394 476.939 77.3788 476.25 76.0227C475.568 74.6667 475.227 73.1061 475.227 71.3409C475.227 69.553 475.572 67.9848 476.261 66.6364C476.958 65.2803 477.947 64.2235 479.227 63.4659C480.508 62.7008 482.03 62.3182 483.795 62.3182C485.318 62.3182 486.652 62.5947 487.795 63.1477C488.939 63.7008 489.845 64.4773 490.511 65.4773C491.178 66.4773 491.545 67.6515 491.614 69H487.045C486.917 68.1288 486.576 67.428 486.023 66.8977C485.477 66.3598 484.761 66.0909 483.875 66.0909C483.125 66.0909 482.47 66.2955 481.909 66.7045C481.356 67.1061 480.924 67.6932 480.614 68.4659C480.303 69.2386 480.148 70.1742 480.148 71.2727C480.148 72.3864 480.299 73.3333 480.602 74.1136C480.913 74.8939 481.348 75.4886 481.909 75.8977C482.47 76.3068 483.125 76.5114 483.875 76.5114C484.428 76.5114 484.924 76.3977 485.364 76.1705C485.811 75.9432 486.178 75.6136 486.466 75.1818C486.761 74.7424 486.955 74.2159 487.045 73.6023H491.614C491.538 74.9356 491.174 76.1098 490.523 77.125C489.879 78.1326 488.989 78.9205 487.852 79.4886C486.716 80.0568 485.371 80.3409 483.818 80.3409ZM494.713 80V62.5455H499.406V65.5909H499.588C499.906 64.5076 500.44 63.6894 501.19 63.1364C501.94 62.5758 502.804 62.2955 503.781 62.2955C504.024 62.2955 504.285 62.3106 504.565 62.3409C504.846 62.3712 505.092 62.4129 505.304 62.4659V66.7614C505.077 66.6932 504.762 66.6326 504.361 66.5795C503.959 66.5265 503.592 66.5 503.259 66.5C502.546 66.5 501.91 66.6553 501.349 66.9659C500.796 67.2689 500.357 67.6932 500.031 68.2386C499.713 68.7841 499.554 69.4129 499.554 70.125V80H494.713ZM514.881 80.3409C513.116 80.3409 511.589 79.9659 510.301 79.2159C509.021 78.4583 508.032 77.4053 507.335 76.0568C506.638 74.7008 506.29 73.1288 506.29 71.3409C506.29 69.5379 506.638 67.9621 507.335 66.6136C508.032 65.2576 509.021 64.2045 510.301 63.4545C511.589 62.697 513.116 62.3182 514.881 62.3182C516.646 62.3182 518.169 62.697 519.449 63.4545C520.737 64.2045 521.729 65.2576 522.426 66.6136C523.123 67.9621 523.472 69.5379 523.472 71.3409C523.472 73.1288 523.123 74.7008 522.426 76.0568C521.729 77.4053 520.737 78.4583 519.449 79.2159C518.169 79.9659 516.646 80.3409 514.881 80.3409ZM514.903 76.5909C515.706 76.5909 516.377 76.3636 516.915 75.9091C517.453 75.447 517.858 74.8182 518.131 74.0227C518.411 73.2273 518.551 72.322 518.551 71.3068C518.551 70.2917 518.411 69.3864 518.131 68.5909C517.858 67.7955 517.453 67.1667 516.915 66.7045C516.377 66.2424 515.706 66.0114 514.903 66.0114C514.093 66.0114 513.411 66.2424 512.858 66.7045C512.313 67.1667 511.9 67.7955 511.619 68.5909C511.347 69.3864 511.21 70.2917 511.21 71.3068C511.21 72.322 511.347 73.2273 511.619 74.0227C511.9 74.8182 512.313 75.447 512.858 75.9091C513.411 76.3636 514.093 76.5909 514.903 76.5909ZM526.71 80V56.7273H535.892C537.657 56.7273 539.161 57.0644 540.403 57.7386C541.646 58.4053 542.593 59.3333 543.244 60.5227C543.903 61.7045 544.233 63.0682 544.233 64.6136C544.233 66.1591 543.9 67.5227 543.233 68.7045C542.566 69.8864 541.6 70.8068 540.335 71.4659C539.078 72.125 537.555 72.4545 535.767 72.4545H529.915V68.5114H534.972C535.919 68.5114 536.699 68.3485 537.312 68.0227C537.934 67.6894 538.396 67.2311 538.699 66.6477C539.009 66.0568 539.165 65.3788 539.165 64.6136C539.165 63.8409 539.009 63.1667 538.699 62.5909C538.396 62.0076 537.934 61.5568 537.312 61.2386C536.691 60.9129 535.903 60.75 534.949 60.75H531.631V80H526.71ZM550.327 86.5455C549.713 86.5455 549.137 86.4962 548.599 86.3977C548.069 86.3068 547.63 86.1894 547.281 86.0455L548.372 82.4318C548.94 82.6061 549.452 82.7008 549.906 82.7159C550.368 82.7311 550.766 82.625 551.099 82.3977C551.44 82.1705 551.717 81.7841 551.929 81.2386L552.213 80.5L545.952 62.5455H551.043L554.656 75.3636H554.838L558.486 62.5455H563.611L556.827 81.8864C556.501 82.8258 556.058 83.6439 555.497 84.3409C554.944 85.0455 554.243 85.5871 553.395 85.9659C552.546 86.3523 551.524 86.5455 550.327 86.5455ZM575.372 62.5455V66.1818H564.861V62.5455H575.372ZM567.247 58.3636H572.088V74.6364C572.088 75.0833 572.156 75.4318 572.293 75.6818C572.429 75.9242 572.618 76.0947 572.861 76.1932C573.111 76.2917 573.399 76.3409 573.724 76.3409C573.952 76.3409 574.179 76.322 574.406 76.2841C574.634 76.2386 574.808 76.2045 574.929 76.1818L575.69 79.7841C575.448 79.8598 575.107 79.947 574.668 80.0455C574.228 80.1515 573.694 80.2159 573.065 80.2386C571.899 80.2841 570.876 80.1288 569.997 79.7727C569.126 79.4167 568.448 78.8636 567.963 78.1136C567.478 77.3636 567.24 76.4167 567.247 75.2727V58.3636ZM583.741 69.9091V80H578.901V56.7273H583.605V65.625H583.81C584.204 64.5947 584.84 63.7879 585.719 63.2045C586.598 62.6136 587.7 62.3182 589.026 62.3182C590.238 62.3182 591.295 62.5833 592.196 63.1136C593.105 63.6364 593.81 64.3902 594.31 65.375C594.817 66.3523 595.067 67.5227 595.06 68.8864V80H590.219V69.75C590.226 68.6742 589.954 67.8371 589.401 67.2386C588.855 66.6402 588.09 66.3409 587.105 66.3409C586.446 66.3409 585.863 66.4811 585.355 66.7614C584.855 67.0417 584.461 67.4508 584.173 67.9886C583.893 68.5189 583.749 69.1591 583.741 69.9091ZM606.756 80.3409C604.991 80.3409 603.464 79.9659 602.176 79.2159C600.896 78.4583 599.907 77.4053 599.21 76.0568C598.513 74.7008 598.165 73.1288 598.165 71.3409C598.165 69.5379 598.513 67.9621 599.21 66.6136C599.907 65.2576 600.896 64.2045 602.176 63.4545C603.464 62.697 604.991 62.3182 606.756 62.3182C608.521 62.3182 610.044 62.697 611.324 63.4545C612.612 64.2045 613.604 65.2576 614.301 66.6136C614.998 67.9621 615.347 69.5379 615.347 71.3409C615.347 73.1288 614.998 74.7008 614.301 76.0568C613.604 77.4053 612.612 78.4583 611.324 79.2159C610.044 79.9659 608.521 80.3409 606.756 80.3409ZM606.778 76.5909C607.581 76.5909 608.252 76.3636 608.79 75.9091C609.328 75.447 609.733 74.8182 610.006 74.0227C610.286 73.2273 610.426 72.322 610.426 71.3068C610.426 70.2917 610.286 69.3864 610.006 68.5909C609.733 67.7955 609.328 67.1667 608.79 66.7045C608.252 66.2424 607.581 66.0114 606.778 66.0114C605.968 66.0114 605.286 66.2424 604.733 66.7045C604.188 67.1667 603.775 67.7955 603.494 68.5909C603.222 69.3864 603.085 70.2917 603.085 71.3068C603.085 72.322 603.222 73.2273 603.494 74.0227C603.775 74.8182 604.188 75.447 604.733 75.9091C605.286 76.3636 605.968 76.5909 606.778 76.5909ZM623.335 69.9091V80H618.494V62.5455H623.108V65.625H623.312C623.699 64.6098 624.347 63.8068 625.256 63.2159C626.165 62.6174 627.267 62.3182 628.562 62.3182C629.775 62.3182 630.831 62.5833 631.733 63.1136C632.634 63.6439 633.335 64.4015 633.835 65.3864C634.335 66.3636 634.585 67.5303 634.585 68.8864V80H629.744V69.75C629.752 68.6818 629.479 67.8485 628.926 67.25C628.373 66.6439 627.612 66.3409 626.642 66.3409C625.991 66.3409 625.415 66.4811 624.915 66.7614C624.422 67.0417 624.036 67.4508 623.756 67.9886C623.483 68.5189 623.343 69.1591 623.335 69.9091Z" fill="black"/>
<rect x="191" y="103" width="148" height="44" fill="#D598B5"/>
<path d="M230.098 122.547H226.987C226.93 122.144 226.814 121.787 226.639 121.474C226.464 121.157 226.239 120.887 225.964 120.665C225.69 120.442 225.373 120.272 225.013 120.153C224.658 120.035 224.272 119.976 223.855 119.976C223.102 119.976 222.446 120.163 221.888 120.537C221.329 120.906 220.896 121.446 220.588 122.156C220.28 122.862 220.126 123.719 220.126 124.727C220.126 125.764 220.28 126.635 220.588 127.341C220.901 128.046 221.336 128.579 221.895 128.939C222.454 129.299 223.1 129.479 223.834 129.479C224.246 129.479 224.627 129.424 224.977 129.315C225.332 129.206 225.647 129.048 225.922 128.839C226.196 128.626 226.424 128.368 226.604 128.065C226.788 127.762 226.916 127.417 226.987 127.028L230.098 127.043C230.018 127.71 229.816 128.354 229.494 128.974C229.177 129.59 228.749 130.142 228.209 130.629C227.674 131.112 227.035 131.496 226.291 131.78C225.553 132.059 224.717 132.199 223.784 132.199C222.487 132.199 221.327 131.905 220.304 131.318C219.286 130.731 218.481 129.881 217.889 128.768C217.302 127.656 217.009 126.309 217.009 124.727C217.009 123.141 217.307 121.792 217.903 120.679C218.5 119.566 219.31 118.719 220.332 118.136C221.355 117.549 222.506 117.256 223.784 117.256C224.627 117.256 225.408 117.374 226.128 117.611C226.852 117.848 227.494 118.193 228.053 118.648C228.611 119.098 229.066 119.649 229.416 120.303C229.771 120.956 229.999 121.704 230.098 122.547ZM245.67 124.727C245.67 126.313 245.369 127.663 244.768 128.776C244.171 129.888 243.357 130.738 242.325 131.325C241.297 131.908 240.142 132.199 238.859 132.199C237.566 132.199 236.406 131.905 235.379 131.318C234.351 130.731 233.539 129.881 232.942 128.768C232.346 127.656 232.048 126.309 232.048 124.727C232.048 123.141 232.346 121.792 232.942 120.679C233.539 119.566 234.351 118.719 235.379 118.136C236.406 117.549 237.566 117.256 238.859 117.256C240.142 117.256 241.297 117.549 242.325 118.136C243.357 118.719 244.171 119.566 244.768 120.679C245.369 121.792 245.67 123.141 245.67 124.727ZM242.552 124.727C242.552 123.7 242.398 122.833 242.09 122.128C241.787 121.422 241.359 120.887 240.805 120.523C240.251 120.158 239.602 119.976 238.859 119.976C238.115 119.976 237.467 120.158 236.913 120.523C236.359 120.887 235.928 121.422 235.62 122.128C235.317 122.833 235.165 123.7 235.165 124.727C235.165 125.755 235.317 126.621 235.62 127.327C235.928 128.032 236.359 128.567 236.913 128.932C237.467 129.296 238.115 129.479 238.859 129.479C239.602 129.479 240.251 129.296 240.805 128.932C241.359 128.567 241.787 128.032 242.09 127.327C242.398 126.621 242.552 125.755 242.552 124.727ZM260.114 117.455V132H257.458L251.13 122.845H251.023V132H247.948V117.455H250.647L256.925 126.602H257.053V117.455H260.114ZM270.545 121.638C270.489 121.065 270.245 120.62 269.814 120.303C269.383 119.985 268.798 119.827 268.06 119.827C267.558 119.827 267.134 119.898 266.788 120.04C266.443 120.177 266.178 120.369 265.993 120.615C265.813 120.861 265.723 121.141 265.723 121.453C265.714 121.714 265.768 121.941 265.886 122.135C266.009 122.329 266.178 122.497 266.391 122.639C266.604 122.777 266.85 122.897 267.129 123.001C267.409 123.101 267.707 123.186 268.024 123.257L269.331 123.57C269.965 123.712 270.548 123.901 271.078 124.138C271.608 124.375 272.068 124.666 272.456 125.011C272.844 125.357 273.145 125.764 273.358 126.233C273.576 126.702 273.687 127.239 273.692 127.845C273.687 128.735 273.46 129.507 273.01 130.161C272.565 130.809 271.921 131.313 271.078 131.673C270.24 132.028 269.229 132.206 268.045 132.206C266.871 132.206 265.848 132.026 264.977 131.666C264.111 131.306 263.434 130.774 262.946 130.068C262.463 129.358 262.21 128.48 262.186 127.433H265.162C265.195 127.921 265.335 128.328 265.581 128.655C265.832 128.977 266.166 129.221 266.582 129.386C267.004 129.547 267.48 129.628 268.01 129.628C268.531 129.628 268.983 129.552 269.366 129.401C269.755 129.249 270.055 129.038 270.268 128.768C270.482 128.499 270.588 128.188 270.588 127.838C270.588 127.511 270.491 127.237 270.297 127.014C270.107 126.792 269.828 126.602 269.459 126.446C269.094 126.29 268.647 126.148 268.116 126.02L266.533 125.622C265.306 125.324 264.338 124.857 263.628 124.223C262.918 123.589 262.565 122.734 262.57 121.659C262.565 120.778 262.799 120.009 263.273 119.351C263.751 118.693 264.407 118.179 265.24 117.81C266.073 117.44 267.02 117.256 268.081 117.256C269.161 117.256 270.103 117.44 270.908 117.81C271.717 118.179 272.347 118.693 272.797 119.351C273.247 120.009 273.479 120.771 273.493 121.638H270.545ZM289.127 124.727C289.127 126.313 288.826 127.663 288.225 128.776C287.628 129.888 286.814 130.738 285.782 131.325C284.754 131.908 283.599 132.199 282.316 132.199C281.023 132.199 279.863 131.905 278.836 131.318C277.808 130.731 276.996 129.881 276.4 128.768C275.803 127.656 275.505 126.309 275.505 124.727C275.505 123.141 275.803 121.792 276.4 120.679C276.996 119.566 277.808 118.719 278.836 118.136C279.863 117.549 281.023 117.256 282.316 117.256C283.599 117.256 284.754 117.549 285.782 118.136C286.814 118.719 287.628 119.566 288.225 120.679C288.826 121.792 289.127 123.141 289.127 124.727ZM286.009 124.727C286.009 123.7 285.855 122.833 285.547 122.128C285.244 121.422 284.816 120.887 284.262 120.523C283.708 120.158 283.059 119.976 282.316 119.976C281.572 119.976 280.924 120.158 280.37 120.523C279.816 120.887 279.385 121.422 279.077 122.128C278.774 122.833 278.623 123.7 278.623 124.727C278.623 125.755 278.774 126.621 279.077 127.327C279.385 128.032 279.816 128.567 280.37 128.932C280.924 129.296 281.572 129.479 282.316 129.479C283.059 129.479 283.708 129.296 284.262 128.932C284.816 128.567 285.244 128.032 285.547 127.327C285.855 126.621 286.009 125.755 286.009 124.727ZM291.405 132V117.455H294.48V129.464H300.716V132H291.405ZM302.752 132V117.455H312.554V119.99H305.828V123.456H312.049V125.991H305.828V129.464H312.582V132H302.752Z" fill="black"/>
<rect x="15" y="103" width="148" height="44" fill="#D598B5"/>
<path d="M57.7102 119.99V117.455H69.6562V119.99H65.2031V132H62.1634V119.99H57.7102ZM74.6989 117.455V132H71.6236V117.455H74.6989ZM77.229 117.455H81.0217L85.0273 127.227H85.1978L89.2035 117.455H92.9961V132H90.0131V122.533H89.8924L86.1282 131.929H84.0969L80.3327 122.497H80.212V132H77.229V117.455ZM95.5298 132V117.455H105.331V119.99H98.6051V123.456H104.827V125.991H98.6051V129.464H105.359V132H95.5298ZM107.776 132V117.455H113.515C114.613 117.455 115.551 117.651 116.327 118.044C117.108 118.432 117.703 118.984 118.11 119.699C118.522 120.409 118.728 121.245 118.728 122.206C118.728 123.172 118.519 124.003 118.103 124.699C117.686 125.39 117.082 125.92 116.292 126.29C115.506 126.659 114.554 126.844 113.436 126.844H109.594V124.372H112.939C113.526 124.372 114.014 124.292 114.402 124.131C114.791 123.97 115.079 123.728 115.269 123.406C115.463 123.084 115.56 122.684 115.56 122.206C115.56 121.723 115.463 121.316 115.269 120.984C115.079 120.653 114.788 120.402 114.395 120.232C114.007 120.056 113.517 119.969 112.925 119.969H110.851V132H107.776ZM115.631 125.381L119.246 132H115.851L112.314 125.381H115.631Z" fill="black"/>
<rect x="192" y="468" width="147" height="59" fill="#616161"/>
<path d="M239.339 494.453C239.273 493.833 238.994 493.35 238.501 493.004C238.014 492.659 237.379 492.486 236.598 492.486C236.049 492.486 235.578 492.569 235.185 492.734C234.792 492.9 234.491 493.125 234.283 493.409C234.074 493.693 233.968 494.018 233.963 494.382C233.963 494.685 234.032 494.948 234.169 495.17C234.311 495.393 234.503 495.582 234.744 495.739C234.986 495.89 235.253 496.018 235.547 496.122C235.84 496.226 236.136 496.314 236.435 496.385L237.798 496.726C238.348 496.854 238.875 497.027 239.382 497.244C239.893 497.462 240.35 497.737 240.753 498.068C241.16 498.4 241.482 498.8 241.719 499.268C241.955 499.737 242.074 500.286 242.074 500.916C242.074 501.768 241.856 502.519 241.42 503.168C240.985 503.812 240.355 504.316 239.531 504.68C238.712 505.04 237.72 505.22 236.555 505.22C235.424 505.22 234.441 505.045 233.608 504.695C232.779 504.344 232.131 503.833 231.662 503.161C231.198 502.488 230.947 501.669 230.909 500.703H233.501C233.539 501.21 233.696 501.631 233.97 501.967C234.245 502.304 234.602 502.554 235.043 502.72C235.488 502.886 235.985 502.969 236.534 502.969C237.107 502.969 237.609 502.884 238.04 502.713C238.475 502.538 238.816 502.296 239.062 501.989C239.309 501.676 239.434 501.312 239.439 500.895C239.434 500.516 239.323 500.204 239.105 499.957C238.887 499.706 238.582 499.498 238.189 499.332C237.801 499.162 237.346 499.01 236.825 498.878L235.17 498.452C233.973 498.144 233.026 497.678 232.33 497.053C231.638 496.423 231.293 495.587 231.293 494.545C231.293 493.688 231.525 492.938 231.989 492.294C232.457 491.65 233.094 491.151 233.899 490.795C234.704 490.436 235.616 490.256 236.634 490.256C237.666 490.256 238.57 490.436 239.347 490.795C240.128 491.151 240.741 491.645 241.186 492.28C241.631 492.91 241.861 493.634 241.875 494.453H239.339ZM244.423 505V490.455H253.883V492.663H247.058V496.612H253.393V498.821H247.058V502.791H253.94V505H244.423ZM256.571 505V490.455H262.026C263.143 490.455 264.081 490.649 264.838 491.037C265.601 491.425 266.176 491.97 266.564 492.67C266.957 493.366 267.154 494.179 267.154 495.107C267.154 496.039 266.955 496.849 266.557 497.536C266.164 498.217 265.584 498.745 264.817 499.119C264.05 499.489 263.108 499.673 261.99 499.673H258.105V497.486H261.635C262.289 497.486 262.824 497.396 263.24 497.216C263.657 497.031 263.965 496.764 264.164 496.413C264.367 496.058 264.469 495.623 264.469 495.107C264.469 494.59 264.367 494.15 264.164 493.786C263.96 493.416 263.65 493.137 263.233 492.947C262.817 492.753 262.279 492.656 261.621 492.656H259.206V505H256.571ZM264.086 498.409L267.686 505H264.746L261.209 498.409H264.086ZM272.214 490.455V505H269.579V490.455H272.214ZM276.935 505H274.123L279.244 490.455H282.496L287.624 505H284.812L280.927 493.438H280.813L276.935 505ZM277.028 499.297H284.698V501.413H277.028V499.297ZM289.54 505V490.455H292.175V502.791H298.581V505H289.54Z" fill="white"/>
<rect x="481" y="359" width="147" height="59" fill="#616161"/>
<path d="M534.381 381.455L538.166 392.903H538.315L542.094 381.455H544.991L539.864 396H536.611L531.49 381.455H534.381ZM549.542 381.455V396H546.907V381.455H549.542ZM552.396 396V381.455H557.85C558.968 381.455 559.905 381.649 560.663 382.037C561.425 382.425 562 382.97 562.388 383.67C562.781 384.366 562.978 385.179 562.978 386.107C562.978 387.039 562.779 387.849 562.381 388.536C561.988 389.217 561.408 389.745 560.641 390.119C559.874 390.489 558.932 390.673 557.815 390.673H553.93V388.486H557.46C558.113 388.486 558.648 388.396 559.065 388.216C559.481 388.031 559.789 387.764 559.988 387.413C560.192 387.058 560.293 386.623 560.293 386.107C560.293 385.59 560.192 385.15 559.988 384.786C559.784 384.416 559.474 384.137 559.058 383.947C558.641 383.753 558.103 383.656 557.445 383.656H555.031V396H552.396ZM559.91 389.409L563.511 396H560.57L557.033 389.409H559.91ZM564.764 383.663V381.455H576.369V383.663H571.874V396H569.26V383.663H564.764Z" fill="white"/>
<rect x="16" y="468" width="147" height="59" fill="#616161"/>
<path d="M58.7955 492.663V490.455H70.4006V492.663H65.9048V505H63.2912V492.663H58.7955ZM75.2727 490.455V505H72.6378V490.455H75.2727ZM78.1261 490.455H81.3505L85.6687 500.994H85.8391L90.1573 490.455H93.3817V505H90.8533V495.007H90.7184L86.6985 504.957H84.8093L80.7894 494.986H80.6545V505H78.1261V490.455ZM96.2511 505V490.455H105.711V492.663H98.886V496.612H105.221V498.821H98.886V502.791H105.768V505H96.2511ZM108.4 505V490.455H113.854C114.971 490.455 115.909 490.649 116.667 491.037C117.429 491.425 118.004 491.97 118.392 492.67C118.785 493.366 118.982 494.179 118.982 495.107C118.982 496.039 118.783 496.849 118.385 497.536C117.992 498.217 117.412 498.745 116.645 499.119C115.878 499.489 114.936 499.673 113.819 499.673H109.934V497.486H113.463C114.117 497.486 114.652 497.396 115.069 497.216C115.485 497.031 115.793 496.764 115.992 496.413C116.195 496.058 116.297 495.623 116.297 495.107C116.297 494.59 116.195 494.15 115.992 493.786C115.788 493.416 115.478 493.137 115.061 492.947C114.645 492.753 114.107 492.656 113.449 492.656H111.034V505H108.4ZM115.914 498.409L119.515 505H116.574L113.037 498.409H115.914Z" fill="white"/>
<rect x="367" y="242" width="147" height="59" fill="#616161"/>
<path d="M433.388 263.455V278H431.044L424.19 268.092H424.07V278H421.435V263.455H423.793L430.639 273.369H430.767V263.455H433.388ZM436.259 278V263.455H445.577V265.663H438.894V269.612H444.938V271.821H438.894V278H436.259ZM455.882 267.453C455.816 266.833 455.537 266.35 455.044 266.004C454.557 265.659 453.922 265.486 453.141 265.486C452.592 265.486 452.121 265.569 451.728 265.734C451.335 265.9 451.034 266.125 450.826 266.409C450.617 266.693 450.511 267.018 450.506 267.382C450.506 267.685 450.575 267.948 450.712 268.17C450.854 268.393 451.046 268.582 451.287 268.739C451.529 268.89 451.796 269.018 452.09 269.122C452.383 269.226 452.679 269.314 452.978 269.385L454.341 269.726C454.891 269.854 455.418 270.027 455.925 270.244C456.436 270.462 456.893 270.737 457.296 271.068C457.703 271.4 458.025 271.8 458.262 272.268C458.498 272.737 458.617 273.286 458.617 273.916C458.617 274.768 458.399 275.519 457.963 276.168C457.528 276.812 456.898 277.316 456.074 277.68C455.255 278.04 454.263 278.22 453.098 278.22C451.967 278.22 450.984 278.045 450.151 277.695C449.322 277.344 448.674 276.833 448.205 276.161C447.741 275.488 447.49 274.669 447.452 273.703H450.044C450.082 274.21 450.239 274.631 450.513 274.967C450.788 275.304 451.145 275.554 451.586 275.72C452.031 275.886 452.528 275.969 453.077 275.969C453.65 275.969 454.152 275.884 454.583 275.713C455.018 275.538 455.359 275.296 455.605 274.989C455.852 274.676 455.977 274.312 455.982 273.895C455.977 273.516 455.866 273.204 455.648 272.957C455.43 272.706 455.125 272.498 454.732 272.332C454.344 272.162 453.889 272.01 453.368 271.878L451.713 271.452C450.516 271.144 449.569 270.678 448.873 270.053C448.181 269.423 447.836 268.587 447.836 267.545C447.836 266.688 448.068 265.938 448.532 265.294C449 264.65 449.637 264.151 450.442 263.795C451.247 263.436 452.158 263.256 453.176 263.256C454.209 263.256 455.113 263.436 455.89 263.795C456.671 264.151 457.284 264.645 457.729 265.28C458.174 265.91 458.404 266.634 458.418 267.453H455.882Z" fill="white"/>
<rect x="719" y="468" width="147" height="59" fill="#616161"/>
<path d="M780.07 490.455V505H777.435V490.455H780.07ZM782.781 505V503.097L787.831 498.146C788.314 497.659 788.716 497.225 789.038 496.847C789.36 496.468 789.601 496.101 789.762 495.746C789.923 495.391 790.004 495.012 790.004 494.609C790.004 494.15 789.9 493.757 789.691 493.43C789.483 493.099 789.197 492.843 788.832 492.663C788.467 492.483 788.053 492.393 787.589 492.393C787.111 492.393 786.692 492.493 786.332 492.692C785.972 492.886 785.693 493.163 785.494 493.523C785.3 493.883 785.203 494.311 785.203 494.808H782.696C782.696 493.885 782.906 493.082 783.328 492.401C783.749 491.719 784.329 491.191 785.068 490.817C785.811 490.443 786.663 490.256 787.625 490.256C788.6 490.256 789.457 490.438 790.196 490.803C790.934 491.167 791.507 491.667 791.914 492.301C792.326 492.936 792.532 493.66 792.532 494.474C792.532 495.019 792.428 495.554 792.22 496.08C792.011 496.605 791.645 497.187 791.119 497.827C790.598 498.466 789.867 499.24 788.924 500.149L786.417 502.699V502.798H792.752V505H782.781ZM807.795 495.362H805.139C805.063 494.927 804.923 494.541 804.72 494.205C804.516 493.864 804.263 493.575 803.96 493.338C803.657 493.101 803.311 492.924 802.923 492.805C802.539 492.682 802.125 492.621 801.68 492.621C800.889 492.621 800.189 492.82 799.578 493.217C798.967 493.61 798.489 494.188 798.143 494.95C797.797 495.708 797.625 496.634 797.625 497.727C797.625 498.84 797.797 499.777 798.143 500.54C798.493 501.297 798.972 501.87 799.578 502.259C800.189 502.642 800.887 502.834 801.673 502.834C802.109 502.834 802.516 502.777 802.895 502.663C803.278 502.545 803.621 502.372 803.924 502.145C804.232 501.918 804.49 501.638 804.699 501.307C804.912 500.975 805.058 500.597 805.139 500.17L807.795 500.185C807.696 500.876 807.48 501.525 807.149 502.131C806.822 502.737 806.394 503.272 805.863 503.736C805.333 504.195 804.713 504.555 804.002 504.815C803.292 505.071 802.504 505.199 801.637 505.199C800.359 505.199 799.218 504.903 798.214 504.311C797.21 503.719 796.42 502.865 795.842 501.747C795.264 500.63 794.975 499.29 794.975 497.727C794.975 496.16 795.267 494.82 795.849 493.707C796.431 492.59 797.225 491.735 798.228 491.143C799.232 490.552 800.368 490.256 801.637 490.256C802.447 490.256 803.2 490.369 803.896 490.597C804.592 490.824 805.212 491.158 805.757 491.598C806.301 492.034 806.749 492.569 807.099 493.203C807.454 493.833 807.686 494.553 807.795 495.362Z" fill="white"/>
<rect x="481" y="468" width="147" height="59" fill="#616161"/>
<path d="M508.435 505V490.455H517.895V492.663H511.07V496.612H517.405V498.821H511.07V502.791H517.952V505H508.435ZM519.944 492.663V490.455H531.549V492.663H527.053V505H524.44V492.663H519.944ZM533.786 505V490.455H536.421V496.612H543.161V490.455H545.803V505H543.161V498.821H536.421V505H533.786ZM548.669 505V490.455H558.129V492.663H551.304V496.612H557.639V498.821H551.304V502.791H558.186V505H548.669ZM560.817 505V490.455H566.272C567.389 490.455 568.327 490.649 569.085 491.037C569.847 491.425 570.422 491.97 570.81 492.67C571.203 493.366 571.4 494.179 571.4 495.107C571.4 496.039 571.201 496.849 570.803 497.536C570.41 498.217 569.83 498.745 569.063 499.119C568.296 499.489 567.354 499.673 566.237 499.673H562.352V497.486H565.881C566.535 497.486 567.07 497.396 567.487 497.216C567.903 497.031 568.211 496.764 568.41 496.413C568.613 496.058 568.715 495.623 568.715 495.107C568.715 494.59 568.613 494.15 568.41 493.786C568.206 493.416 567.896 493.137 567.479 492.947C567.063 492.753 566.525 492.656 565.867 492.656H563.452V505H560.817ZM568.332 498.409L571.933 505H568.992L565.455 498.409H568.332ZM585.778 490.455V505H583.435L576.581 495.092H576.46V505H573.825V490.455H576.183L583.03 500.369H583.158V490.455H585.778ZM588.65 505V490.455H598.11V492.663H591.284V496.612H597.62V498.821H591.284V502.791H598.167V505H588.65ZM600.159 492.663V490.455H611.764V492.663H607.268V505H604.654V492.663H600.159Z" fill="white"/>
<rect x="566" y="242" width="86" height="59" fill="#616161"/>
<path d="M592.303 278H589.49L594.611 263.455H597.864L602.991 278H600.179L596.294 266.438H596.18L592.303 278ZM592.395 272.297H600.065V274.413H592.395V272.297ZM604.907 278V263.455H610.362C611.479 263.455 612.417 263.649 613.174 264.037C613.937 264.425 614.512 264.97 614.9 265.67C615.293 266.366 615.49 267.179 615.49 268.107C615.49 269.039 615.291 269.849 614.893 270.536C614.5 271.217 613.92 271.745 613.153 272.119C612.386 272.489 611.444 272.673 610.326 272.673H606.441V270.486H609.971C610.625 270.486 611.16 270.396 611.576 270.216C611.993 270.031 612.301 269.764 612.5 269.413C612.703 269.058 612.805 268.623 612.805 268.107C612.805 267.59 612.703 267.15 612.5 266.786C612.296 266.416 611.986 266.137 611.569 265.947C611.153 265.753 610.615 265.656 609.957 265.656H607.542V278H604.907ZM612.422 271.409L616.022 278H613.082L609.545 271.409H612.422ZM617.915 278V263.455H623.37C624.487 263.455 625.425 263.663 626.182 264.08C626.944 264.496 627.52 265.069 627.908 265.798C628.301 266.523 628.498 267.347 628.498 268.27C628.498 269.203 628.301 270.031 627.908 270.756C627.515 271.48 626.935 272.051 626.168 272.467C625.401 272.879 624.456 273.085 623.334 273.085H619.719V270.919H622.979C623.632 270.919 624.167 270.805 624.584 270.578C625.001 270.351 625.309 270.038 625.507 269.641C625.711 269.243 625.813 268.786 625.813 268.27C625.813 267.754 625.711 267.299 625.507 266.906C625.309 266.513 624.998 266.208 624.577 265.99C624.16 265.768 623.623 265.656 622.965 265.656H620.55V278H617.915Z" fill="white"/>
<rect x="1107" y="232" width="147" height="59" fill="#616161"/>
<path d="M1158.38 253.455L1162.17 264.903H1162.32L1166.09 253.455H1168.99L1163.86 268H1160.61L1155.49 253.455H1158.38ZM1170.91 253.455H1174.13L1178.45 263.994H1178.62L1182.94 253.455H1186.16V268H1183.63V258.007H1183.5L1179.48 267.957H1177.59L1173.57 257.986H1173.44V268H1170.91V253.455ZM1189.03 253.455H1192.26L1196.57 263.994H1196.75L1201.06 253.455H1204.29V268H1201.76V258.007H1201.62L1197.6 267.957H1195.72L1191.7 257.986H1191.56V268H1189.03V253.455Z" fill="white"/>
<rect x="191" y="242" width="147" height="59" fill="#616161"/>
<path d="M244.381 264.455L248.166 275.903H248.315L252.094 264.455H254.991L249.864 279H246.611L241.49 264.455H244.381ZM259.542 264.455V279H256.907V264.455H259.542ZM262.396 279V264.455H267.85C268.968 264.455 269.905 264.649 270.663 265.037C271.425 265.425 272 265.97 272.388 266.67C272.781 267.366 272.978 268.179 272.978 269.107C272.978 270.039 272.779 270.849 272.381 271.536C271.988 272.217 271.408 272.745 270.641 273.119C269.874 273.489 268.932 273.673 267.815 273.673H263.93V271.486H267.46C268.113 271.486 268.648 271.396 269.065 271.216C269.481 271.031 269.789 270.764 269.988 270.413C270.192 270.058 270.293 269.623 270.293 269.107C270.293 268.59 270.192 268.15 269.988 267.786C269.784 267.416 269.474 267.137 269.058 266.947C268.641 266.753 268.103 266.656 267.445 266.656H265.031V279H262.396ZM269.91 272.409L273.511 279H270.57L267.033 272.409H269.91ZM274.764 266.663V264.455H286.369V266.663H281.874V279H279.26V266.663H274.764Z" fill="white"/>
<rect x="719" y="239" width="147" height="59" fill="#616161"/>
<path d="M772.381 261.455L776.166 272.903H776.315L780.094 261.455H782.991L777.864 276H774.611L769.49 261.455H772.381ZM787.542 261.455V276H784.907V261.455H787.542ZM790.396 276V261.455H795.85C796.968 261.455 797.905 261.649 798.663 262.037C799.425 262.425 800 262.97 800.388 263.67C800.781 264.366 800.978 265.179 800.978 266.107C800.978 267.039 800.779 267.849 800.381 268.536C799.988 269.217 799.408 269.745 798.641 270.119C797.874 270.489 796.932 270.673 795.815 270.673H791.93V268.486H795.46C796.113 268.486 796.648 268.396 797.065 268.216C797.481 268.031 797.789 267.764 797.988 267.413C798.192 267.058 798.293 266.623 798.293 266.107C798.293 265.59 798.192 265.15 797.988 264.786C797.784 264.416 797.474 264.137 797.058 263.947C796.641 263.753 796.103 263.656 795.445 263.656H793.031V276H790.396ZM797.91 269.409L801.511 276H798.57L795.033 269.409H797.91ZM802.764 263.663V261.455H814.369V263.663H809.874V276H807.26V263.663H802.764Z" fill="white"/>
<rect x="367" y="103" width="148" height="44" fill="#D598B5"/>
<path d="M424.892 117.455L428.408 128.506H428.543L432.065 117.455H435.474L430.46 132H426.497L421.476 117.455H424.892ZM437.225 132V117.455H446.856V119.99H440.3V123.456H446.217V125.991H440.3V132H437.225ZM456.815 121.638C456.758 121.065 456.514 120.62 456.083 120.303C455.653 119.985 455.068 119.827 454.329 119.827C453.827 119.827 453.404 119.898 453.058 120.04C452.712 120.177 452.447 120.369 452.262 120.615C452.083 120.861 451.993 121.141 451.993 121.453C451.983 121.714 452.038 121.941 452.156 122.135C452.279 122.329 452.447 122.497 452.66 122.639C452.873 122.777 453.119 122.897 453.399 123.001C453.678 123.101 453.976 123.186 454.294 123.257L455.6 123.57C456.235 123.712 456.817 123.901 457.348 124.138C457.878 124.375 458.337 124.666 458.725 125.011C459.114 125.357 459.414 125.764 459.627 126.233C459.845 126.702 459.957 127.239 459.961 127.845C459.957 128.735 459.729 129.507 459.279 130.161C458.834 130.809 458.19 131.313 457.348 131.673C456.51 132.028 455.499 132.206 454.315 132.206C453.141 132.206 452.118 132.026 451.247 131.666C450.38 131.306 449.703 130.774 449.216 130.068C448.733 129.358 448.479 128.48 448.456 127.433H451.431C451.465 127.921 451.604 128.328 451.85 128.655C452.101 128.977 452.435 129.221 452.852 129.386C453.273 129.547 453.749 129.628 454.279 129.628C454.8 129.628 455.252 129.552 455.636 129.401C456.024 129.249 456.325 129.038 456.538 128.768C456.751 128.499 456.858 128.188 456.858 127.838C456.858 127.511 456.761 127.237 456.566 127.014C456.377 126.792 456.098 126.602 455.728 126.446C455.364 126.29 454.916 126.148 454.386 126.02L452.802 125.622C451.576 125.324 450.608 124.857 449.897 124.223C449.187 123.589 448.834 122.734 448.839 121.659C448.834 120.778 449.069 120.009 449.542 119.351C450.02 118.693 450.676 118.179 451.51 117.81C452.343 117.44 453.29 117.256 454.35 117.256C455.43 117.256 456.372 117.44 457.177 117.81C457.987 118.179 458.617 118.693 459.066 119.351C459.516 120.009 459.748 120.771 459.762 121.638H456.815Z" fill="black"/>
<rect x="543" y="103" width="148" height="44" fill="#D598B5"/>
<path d="M593.264 132V117.455H596.339V129.464H602.575V132H593.264ZM607.066 132L602.904 117.455H606.263L608.671 127.561H608.792L611.448 117.455H614.324L616.973 127.582H617.101L619.509 117.455H622.868L618.706 132H615.709L612.939 122.49H612.826L610.063 132H607.066ZM627.589 117.455V132H624.514V117.455H627.589ZM630.12 132V117.455H635.858C636.962 117.455 637.901 117.665 638.678 118.087C639.454 118.503 640.046 119.083 640.453 119.827C640.865 120.565 641.071 121.418 641.071 122.384C641.071 123.349 640.863 124.202 640.446 124.94C640.03 125.679 639.426 126.254 638.635 126.666C637.849 127.078 636.898 127.284 635.78 127.284H632.123V124.82H635.283C635.875 124.82 636.363 124.718 636.746 124.514C637.134 124.306 637.423 124.019 637.613 123.655C637.807 123.286 637.904 122.862 637.904 122.384C637.904 121.901 637.807 121.479 637.613 121.119C637.423 120.755 637.134 120.473 636.746 120.274C636.358 120.071 635.865 119.969 635.269 119.969H633.195V132H630.12Z" fill="black"/>
<rect x="719" y="103" width="148" height="44" fill="#D598B5"/>
<path d="M761.264 132V117.455H767.003C768.106 117.455 769.046 117.665 769.822 118.087C770.599 118.503 771.191 119.083 771.598 119.827C772.01 120.565 772.216 121.418 772.216 122.384C772.216 123.349 772.008 124.202 771.591 124.94C771.174 125.679 770.571 126.254 769.78 126.666C768.994 127.078 768.042 127.284 766.925 127.284H763.267V124.82H766.428C767.019 124.82 767.507 124.718 767.891 124.514C768.279 124.306 768.568 124.019 768.757 123.655C768.951 123.286 769.048 122.862 769.048 122.384C769.048 121.901 768.951 121.479 768.757 121.119C768.568 120.755 768.279 120.473 767.891 120.274C767.502 120.071 767.01 119.969 766.413 119.969H764.339V132H761.264ZM786.38 117.455V132H783.723L777.395 122.845H777.289V132H774.213V117.455H776.912L783.191 126.602H783.319V117.455H786.38ZM794.148 132.199C793.144 132.199 792.249 132.014 791.463 131.645C790.682 131.276 790.062 130.767 789.602 130.118C789.143 129.469 788.904 128.726 788.885 127.888H791.868C791.901 128.451 792.138 128.908 792.578 129.259C793.018 129.609 793.542 129.784 794.148 129.784C794.631 129.784 795.057 129.678 795.426 129.464C795.8 129.247 796.091 128.946 796.3 128.562C796.513 128.174 796.619 127.729 796.619 127.227C796.619 126.716 796.51 126.266 796.293 125.878C796.08 125.49 795.784 125.187 795.405 124.969C795.026 124.751 794.593 124.64 794.105 124.635C793.679 124.635 793.265 124.723 792.862 124.898C792.464 125.073 792.154 125.312 791.932 125.615L789.197 125.125L789.886 117.455H798.778V119.969H792.422L792.045 123.612H792.131C792.386 123.252 792.772 122.954 793.288 122.717C793.804 122.481 794.382 122.362 795.021 122.362C795.897 122.362 796.679 122.568 797.365 122.98C798.052 123.392 798.594 123.958 798.991 124.678C799.389 125.393 799.586 126.216 799.581 127.149C799.586 128.129 799.358 129 798.899 129.763C798.445 130.52 797.808 131.117 796.989 131.553C796.174 131.983 795.227 132.199 794.148 132.199ZM807.102 132.199C806.042 132.199 805.097 132.017 804.268 131.652C803.445 131.283 802.794 130.776 802.315 130.132C801.842 129.483 801.598 128.735 801.584 127.888H804.68C804.699 128.243 804.815 128.555 805.028 128.825C805.246 129.09 805.535 129.296 805.895 129.443C806.255 129.59 806.66 129.663 807.109 129.663C807.578 129.663 807.992 129.58 808.352 129.415C808.712 129.249 808.994 129.019 809.197 128.726C809.401 128.432 809.503 128.094 809.503 127.71C809.503 127.322 809.394 126.979 809.176 126.68C808.963 126.377 808.655 126.141 808.253 125.97C807.855 125.8 807.382 125.714 806.832 125.714H805.476V123.456H806.832C807.296 123.456 807.706 123.375 808.061 123.214C808.421 123.054 808.7 122.831 808.899 122.547C809.098 122.258 809.197 121.922 809.197 121.538C809.197 121.174 809.11 120.854 808.935 120.58C808.764 120.3 808.523 120.082 808.21 119.926C807.902 119.77 807.543 119.692 807.131 119.692C806.714 119.692 806.333 119.768 805.987 119.919C805.642 120.066 805.365 120.277 805.156 120.551C804.948 120.826 804.837 121.148 804.822 121.517H801.875C801.889 120.679 802.128 119.94 802.592 119.301C803.056 118.662 803.681 118.162 804.467 117.803C805.258 117.438 806.151 117.256 807.145 117.256C808.149 117.256 809.027 117.438 809.78 117.803C810.533 118.167 811.117 118.66 811.534 119.28C811.955 119.895 812.164 120.587 812.159 121.354C812.164 122.168 811.911 122.848 811.399 123.392C810.893 123.937 810.232 124.282 809.418 124.429V124.543C810.488 124.68 811.302 125.052 811.861 125.658C812.424 126.259 812.704 127.012 812.699 127.916C812.704 128.745 812.464 129.481 811.982 130.125C811.503 130.769 810.843 131.276 810 131.645C809.157 132.014 808.191 132.199 807.102 132.199ZM814.909 132V129.784L820.087 124.99C820.527 124.564 820.897 124.18 821.195 123.839C821.498 123.499 821.728 123.165 821.884 122.838C822.04 122.507 822.118 122.149 822.118 121.766C822.118 121.339 822.021 120.973 821.827 120.665C821.633 120.352 821.368 120.113 821.032 119.947C820.695 119.777 820.314 119.692 819.888 119.692C819.443 119.692 819.055 119.782 818.723 119.962C818.392 120.142 818.136 120.4 817.956 120.736C817.776 121.072 817.686 121.472 817.686 121.936H814.767C814.767 120.984 814.983 120.158 815.414 119.457C815.845 118.757 816.448 118.214 817.225 117.831C818.001 117.447 818.896 117.256 819.909 117.256C820.951 117.256 821.858 117.44 822.63 117.81C823.406 118.174 824.01 118.681 824.441 119.33C824.872 119.978 825.087 120.722 825.087 121.56C825.087 122.109 824.978 122.651 824.76 123.186C824.547 123.721 824.166 124.315 823.617 124.969C823.068 125.617 822.293 126.396 821.294 127.305L819.171 129.386V129.486H825.279V132H814.909Z" fill="black"/>
<rect x="895" y="103" width="148" height="44" fill="#D598B5"/>
<path d="M915.264 132V117.455H924.895V119.99H918.339V123.456H924.256V125.991H918.339V132H915.264ZM926.963 132V117.455H932.702C933.801 117.455 934.738 117.651 935.515 118.044C936.296 118.432 936.89 118.984 937.297 119.699C937.709 120.409 937.915 121.245 937.915 122.206C937.915 123.172 937.707 124.003 937.29 124.699C936.873 125.39 936.27 125.92 935.479 126.29C934.693 126.659 933.741 126.844 932.624 126.844H928.782V124.372H932.127C932.714 124.372 933.202 124.292 933.59 124.131C933.978 123.97 934.267 123.728 934.456 123.406C934.65 123.084 934.748 122.684 934.748 122.206C934.748 121.723 934.65 121.316 934.456 120.984C934.267 120.653 933.976 120.402 933.583 120.232C933.194 120.056 932.704 119.969 932.113 119.969H930.039V132H926.963ZM934.819 125.381L938.434 132H935.039L931.502 125.381H934.819ZM942.596 132H939.3L944.321 117.455H948.284L953.299 132H950.003L946.36 120.778H946.246L942.596 132ZM942.39 126.283H950.174V128.683H942.39V126.283ZM955.049 117.455H958.842L962.848 127.227H963.018L967.024 117.455H970.816V132H967.833V122.533H967.713L963.949 131.929H961.917L958.153 122.497H958.032V132H955.049V117.455ZM973.35 132V117.455H983.151V119.99H976.425V123.456H982.647V125.991H976.425V129.464H983.18V132H973.35ZM985.596 132V117.455H991.42C992.49 117.455 993.383 117.613 994.098 117.93C994.813 118.248 995.35 118.688 995.71 119.251C996.07 119.81 996.25 120.454 996.25 121.183C996.25 121.751 996.136 122.251 995.909 122.682C995.681 123.108 995.369 123.458 994.971 123.733C994.578 124.003 994.128 124.195 993.622 124.308V124.45C994.176 124.474 994.694 124.63 995.177 124.919C995.665 125.208 996.06 125.613 996.363 126.134C996.666 126.65 996.818 127.265 996.818 127.98C996.818 128.752 996.626 129.441 996.243 130.047C995.864 130.648 995.303 131.124 994.559 131.474C993.816 131.825 992.9 132 991.811 132H985.596ZM988.672 129.486H991.179C992.036 129.486 992.661 129.322 993.054 128.996C993.447 128.664 993.643 128.224 993.643 127.675C993.643 127.272 993.546 126.917 993.352 126.609C993.158 126.302 992.881 126.06 992.521 125.885C992.166 125.71 991.742 125.622 991.25 125.622H988.672V129.486ZM988.672 123.541H990.951C991.373 123.541 991.747 123.468 992.074 123.321C992.405 123.17 992.665 122.956 992.855 122.682C993.049 122.407 993.146 122.078 993.146 121.695C993.146 121.169 992.959 120.745 992.585 120.423C992.216 120.101 991.69 119.94 991.008 119.94H988.672V123.541ZM1007.8 117.455H1010.88V126.901C1010.88 127.961 1010.63 128.889 1010.12 129.685C1009.62 130.48 1008.91 131.1 1008.01 131.545C1007.1 131.986 1006.05 132.206 1004.85 132.206C1003.64 132.206 1002.59 131.986 1001.68 131.545C1000.78 131.1 1000.07 130.48 999.572 129.685C999.07 128.889 998.819 127.961 998.819 126.901V117.455H1001.89V126.638C1001.89 127.192 1002.01 127.684 1002.26 128.115C1002.5 128.546 1002.85 128.884 1003.29 129.131C1003.74 129.377 1004.26 129.5 1004.85 129.5C1005.45 129.5 1005.96 129.377 1006.4 129.131C1006.85 128.884 1007.19 128.546 1007.43 128.115C1007.68 127.684 1007.8 127.192 1007.8 126.638V117.455ZM1013.41 132V117.455H1023.04V119.99H1016.48V123.456H1022.4V125.991H1016.48V132H1013.41Z" fill="black"/>
<rect x="1108" y="63" width="146" height="100" fill="#FFAD31"/>
<path d="M1152.26 120V105.455H1155.34V117.464H1161.58V120H1152.26ZM1166.69 105.455V120H1163.61V105.455H1166.69ZM1181.38 105.455V120H1178.73L1172.4 110.845H1172.29V120H1169.22V105.455H1171.92L1178.19 114.602H1178.32V105.455H1181.38ZM1192.91 105.455H1195.98V114.901C1195.98 115.961 1195.73 116.889 1195.22 117.685C1194.72 118.48 1194.02 119.1 1193.11 119.545C1192.21 119.986 1191.16 120.206 1189.95 120.206C1188.75 120.206 1187.69 119.986 1186.79 119.545C1185.88 119.1 1185.18 118.48 1184.68 117.685C1184.18 116.889 1183.92 115.961 1183.92 114.901V105.455H1187V114.638C1187 115.192 1187.12 115.684 1187.36 116.115C1187.61 116.546 1187.95 116.884 1188.4 117.131C1188.84 117.377 1189.36 117.5 1189.95 117.5C1190.55 117.5 1191.07 117.377 1191.51 117.131C1191.95 116.884 1192.3 116.546 1192.54 116.115C1192.79 115.684 1192.91 115.192 1192.91 114.638V105.455ZM1201.4 105.455L1204.33 110.412H1204.44L1207.39 105.455H1210.87L1206.43 112.727L1210.96 120H1207.43L1204.44 115.036H1204.33L1201.35 120H1197.83L1202.38 112.727L1197.91 105.455H1201.4Z" fill="black"/>
<rect x="1108" width="146" height="63" fill="#D73535"/>
<path d="M1131.2 25.3636H1133.66V32.9205C1133.66 33.7689 1133.46 34.5114 1133.05 35.1477C1132.65 35.7841 1132.09 36.2803 1131.36 36.6364C1130.64 36.9886 1129.8 37.1648 1128.84 37.1648C1127.87 37.1648 1127.02 36.9886 1126.3 36.6364C1125.58 36.2803 1125.02 35.7841 1124.61 35.1477C1124.21 34.5114 1124.01 33.7689 1124.01 32.9205V25.3636H1126.47V32.7102C1126.47 33.1534 1126.57 33.5473 1126.76 33.892C1126.96 34.2367 1127.23 34.5076 1127.59 34.7045C1127.95 34.9015 1128.36 35 1128.84 35C1129.31 35 1129.73 34.9015 1130.08 34.7045C1130.44 34.5076 1130.71 34.2367 1130.9 33.892C1131.1 33.5473 1131.2 33.1534 1131.2 32.7102V25.3636ZM1138.14 25.3636V37H1135.68V25.3636H1138.14ZM1150.86 31.1818C1150.86 32.4508 1150.62 33.5303 1150.14 34.4205C1149.66 35.3106 1149.01 35.9905 1148.18 36.4602C1147.36 36.9261 1146.44 37.1591 1145.41 37.1591C1144.38 37.1591 1143.45 36.9242 1142.63 36.4545C1141.81 35.9848 1141.16 35.3049 1140.68 34.4148C1140.2 33.5246 1139.96 32.447 1139.96 31.1818C1139.96 29.9129 1140.2 28.8333 1140.68 27.9432C1141.16 27.053 1141.81 26.375 1142.63 25.9091C1143.45 25.4394 1144.38 25.2045 1145.41 25.2045C1146.44 25.2045 1147.36 25.4394 1148.18 25.9091C1149.01 26.375 1149.66 27.053 1150.14 27.9432C1150.62 28.8333 1150.86 29.9129 1150.86 31.1818ZM1148.37 31.1818C1148.37 30.3598 1148.24 29.6667 1148 29.1023C1147.75 28.5379 1147.41 28.1098 1146.97 27.8182C1146.53 27.5265 1146.01 27.3807 1145.41 27.3807C1144.82 27.3807 1144.3 27.5265 1143.86 27.8182C1143.41 28.1098 1143.07 28.5379 1142.82 29.1023C1142.58 29.6667 1142.46 30.3598 1142.46 31.1818C1142.46 32.0038 1142.58 32.697 1142.82 33.2614C1143.07 33.8258 1143.41 34.2538 1143.86 34.5455C1144.3 34.8371 1144.82 34.983 1145.41 34.983C1146.01 34.983 1146.53 34.8371 1146.97 34.5455C1147.41 34.2538 1147.75 33.8258 1148 33.2614C1148.24 32.697 1148.37 32.0038 1148.37 31.1818ZM1164.1 29.125C1164.02 28.8485 1163.91 28.6042 1163.77 28.392C1163.62 28.1761 1163.45 27.9943 1163.24 27.8466C1163.03 27.6951 1162.8 27.5795 1162.53 27.5C1162.27 27.4205 1161.98 27.3807 1161.66 27.3807C1161.07 27.3807 1160.55 27.5284 1160.1 27.8239C1159.65 28.1193 1159.3 28.5492 1159.05 29.1136C1158.8 29.6742 1158.68 30.3598 1158.68 31.1705C1158.68 31.9811 1158.8 32.6705 1159.05 33.2386C1159.29 33.8068 1159.64 34.2405 1160.09 34.5398C1160.54 34.8352 1161.07 34.983 1161.69 34.983C1162.24 34.983 1162.72 34.8845 1163.11 34.6875C1163.51 34.4867 1163.81 34.2045 1164.02 33.8409C1164.23 33.4773 1164.34 33.0473 1164.34 32.5511L1164.84 32.625H1161.84V30.7727H1166.71V32.2386C1166.71 33.2614 1166.49 34.1402 1166.06 34.875C1165.63 35.6061 1165.04 36.1705 1164.28 36.5682C1163.52 36.9621 1162.65 37.1591 1161.68 37.1591C1160.59 37.1591 1159.63 36.9186 1158.8 36.4375C1157.98 35.9527 1157.33 35.2652 1156.87 34.375C1156.41 33.4811 1156.18 32.4205 1156.18 31.1932C1156.18 30.25 1156.32 29.4091 1156.59 28.6705C1156.87 27.928 1157.25 27.2992 1157.75 26.7841C1158.25 26.2689 1158.82 25.8769 1159.48 25.608C1160.14 25.339 1160.86 25.2045 1161.62 25.2045C1162.28 25.2045 1162.9 25.3011 1163.47 25.4943C1164.03 25.6837 1164.54 25.9527 1164.98 26.3011C1165.42 26.6496 1165.78 27.0644 1166.06 27.5455C1166.34 28.0227 1166.52 28.5492 1166.6 29.125H1164.1ZM1168.56 37V25.3636H1173.15C1174.03 25.3636 1174.78 25.5208 1175.4 25.8352C1176.02 26.1458 1176.5 26.5871 1176.83 27.1591C1177.15 27.7273 1177.32 28.3958 1177.32 29.1648C1177.32 29.9375 1177.15 30.6023 1176.82 31.1591C1176.49 31.7121 1176 32.1364 1175.37 32.4318C1174.74 32.7273 1173.98 32.875 1173.09 32.875H1170.01V30.8977H1172.69C1173.16 30.8977 1173.55 30.8333 1173.86 30.7045C1174.17 30.5758 1174.4 30.3826 1174.55 30.125C1174.71 29.8674 1174.79 29.5473 1174.79 29.1648C1174.79 28.7784 1174.71 28.4527 1174.55 28.1875C1174.4 27.9223 1174.17 27.7216 1173.85 27.5852C1173.54 27.4451 1173.15 27.375 1172.68 27.375H1171.02V37H1168.56ZM1174.84 31.7045L1177.73 37H1175.02L1172.19 31.7045H1174.84ZM1181.06 37H1178.43L1182.44 25.3636H1185.62L1189.63 37H1186.99L1184.08 28.0227H1183.98L1181.06 37ZM1180.9 32.4261H1187.13V34.3466H1180.9V32.4261ZM1191.03 37V25.3636H1195.62C1196.5 25.3636 1197.25 25.5322 1197.87 25.8693C1198.49 26.2027 1198.97 26.6667 1199.29 27.2614C1199.62 27.8523 1199.79 28.5341 1199.79 29.3068C1199.79 30.0795 1199.62 30.7614 1199.29 31.3523C1198.96 31.9432 1198.47 32.4034 1197.84 32.733C1197.21 33.0625 1196.45 33.2273 1195.56 33.2273H1192.63V31.2557H1195.16C1195.63 31.2557 1196.02 31.1742 1196.33 31.0114C1196.64 30.8447 1196.87 30.6155 1197.02 30.3239C1197.18 30.0284 1197.25 29.6894 1197.25 29.3068C1197.25 28.9205 1197.18 28.5833 1197.02 28.2955C1196.87 28.0038 1196.64 27.7784 1196.33 27.6193C1196.02 27.4564 1195.62 27.375 1195.15 27.375H1193.49V37H1191.03ZM1201.39 37V25.3636H1203.85V30.1648H1208.84V25.3636H1211.3V37H1208.84V32.1932H1203.85V37H1201.39ZM1215.78 25.3636V37H1213.32V25.3636H1215.78ZM1228.08 29.4375H1225.59C1225.54 29.1155 1225.45 28.8295 1225.31 28.5795C1225.17 28.3258 1224.99 28.1098 1224.77 27.9318C1224.55 27.7538 1224.29 27.6174 1224.01 27.5227C1223.72 27.428 1223.41 27.3807 1223.08 27.3807C1222.48 27.3807 1221.95 27.5303 1221.51 27.8295C1221.06 28.125 1220.71 28.5568 1220.47 29.125C1220.22 29.6894 1220.1 30.375 1220.1 31.1818C1220.1 32.0114 1220.22 32.7083 1220.47 33.2727C1220.72 33.8371 1221.07 34.2633 1221.51 34.5511C1221.96 34.839 1222.48 34.983 1223.06 34.983C1223.39 34.983 1223.7 34.9394 1223.98 34.8523C1224.26 34.7652 1224.51 34.6383 1224.73 34.4716C1224.95 34.3011 1225.14 34.0947 1225.28 33.8523C1225.43 33.6098 1225.53 33.3333 1225.59 33.0227L1228.08 33.0341C1228.01 33.5682 1227.85 34.0833 1227.59 34.5795C1227.34 35.072 1227 35.5133 1226.56 35.9034C1226.14 36.2898 1225.62 36.5966 1225.03 36.8239C1224.44 37.0473 1223.77 37.1591 1223.02 37.1591C1221.99 37.1591 1221.06 36.9242 1220.24 36.4545C1219.43 35.9848 1218.78 35.3049 1218.31 34.4148C1217.84 33.5246 1217.6 32.447 1217.6 31.1818C1217.6 29.9129 1217.84 28.8333 1218.32 27.9432C1218.8 27.053 1219.44 26.375 1220.26 25.9091C1221.08 25.4394 1222 25.2045 1223.02 25.2045C1223.7 25.2045 1224.32 25.2992 1224.9 25.4886C1225.48 25.678 1225.99 25.9545 1226.44 26.3182C1226.89 26.678 1227.25 27.1193 1227.53 27.642C1227.81 28.1648 1228 28.7633 1228.08 29.4375ZM1236.15 28.7102C1236.11 28.2519 1235.91 27.8958 1235.57 27.642C1235.22 27.3883 1234.75 27.2614 1234.16 27.2614C1233.76 27.2614 1233.42 27.3182 1233.15 27.4318C1232.87 27.5417 1232.66 27.6951 1232.51 27.892C1232.37 28.089 1232.29 28.3125 1232.29 28.5625C1232.29 28.7708 1232.33 28.9527 1232.42 29.108C1232.52 29.2633 1232.66 29.3977 1232.83 29.5114C1233 29.6212 1233.2 29.7178 1233.42 29.8011C1233.64 29.8807 1233.88 29.9489 1234.13 30.0057L1235.18 30.2557C1235.69 30.3693 1236.15 30.5208 1236.58 30.7102C1237 30.8996 1237.37 31.1326 1237.68 31.4091C1237.99 31.6856 1238.23 32.0114 1238.4 32.3864C1238.58 32.7614 1238.67 33.1913 1238.67 33.6761C1238.67 34.3883 1238.48 35.0057 1238.12 35.5284C1237.77 36.0473 1237.25 36.4508 1236.58 36.7386C1235.91 37.0227 1235.1 37.1648 1234.15 37.1648C1233.21 37.1648 1232.39 37.0208 1231.7 36.733C1231 36.4451 1230.46 36.0189 1230.07 35.4545C1229.69 34.8864 1229.48 34.1837 1229.46 33.3466H1231.85C1231.87 33.7367 1231.98 34.0625 1232.18 34.3239C1232.38 34.5814 1232.65 34.7765 1232.98 34.9091C1233.32 35.0379 1233.7 35.1023 1234.12 35.1023C1234.54 35.1023 1234.9 35.0417 1235.21 34.9205C1235.52 34.7992 1235.76 34.6307 1235.93 34.4148C1236.1 34.1989 1236.19 33.9508 1236.19 33.6705C1236.19 33.4091 1236.11 33.1894 1235.95 33.0114C1235.8 32.8333 1235.58 32.6818 1235.28 32.5568C1234.99 32.4318 1234.63 32.3182 1234.21 32.2159L1232.94 31.8977C1231.96 31.6591 1231.19 31.286 1230.62 30.7784C1230.05 30.2708 1229.77 29.5871 1229.77 28.7273C1229.77 28.0227 1229.96 27.4072 1230.33 26.8807C1230.72 26.3542 1231.24 25.9432 1231.91 25.6477C1232.57 25.3523 1233.33 25.2045 1234.18 25.2045C1235.04 25.2045 1235.8 25.3523 1236.44 25.6477C1237.09 25.9432 1237.59 26.3542 1237.95 26.8807C1238.31 27.4072 1238.5 28.017 1238.51 28.7102H1236.15Z" fill="black"/>
<path d="M441 147L429.243 166.877L452.336 167.12L441 147ZM440 242L451.757 222.123L428.664 221.88L440 242ZM438.811 164.978L438.19 223.98L442.189 224.022L442.81 165.02L438.811 164.978Z" fill="black"/>
<path d="M264 147L252.243 166.877L275.336 167.12L264 147ZM263 242L274.757 222.123L251.664 221.88L263 242ZM261.811 164.978L261.19 223.98L265.189 224.022L265.81 165.02L261.811 164.978Z" fill="black"/>
<path d="M265 301L253.453 321L276.547 321L265 301ZM265 468L276.547 448L253.453 448L265 468ZM263 319L263 450L267 450L267 319L263 319Z" fill="black"/>
<path d="M89 147L77.453 167L100.547 167L89 147ZM89 468L100.547 448L77.453 448L89 468ZM87 165L87 450L91 450L91 165L87 165Z" fill="black"/>
<path d="M793 147L781.453 167L804.547 167L793 147ZM793 239L804.547 219L781.453 219L793 239ZM791 165L791 221L795 221L795 165L791 165Z" fill="black"/>
<path d="M669 147L657.453 167H680.547L669 147ZM667 165V389H671V165H667Z" fill="black"/>
<path fill-rule="evenodd" clip-rule="evenodd" d="M440 301L428.681 321.13L438.227 321.021L439 389.011V391H461V400.547L481 389L461 377.453V387H442.977L442.227 320.976L451.773 320.868L440 301Z" fill="black"/>
<path d="M609 147L597.453 167L620.547 167L609 147ZM609 242L620.547 222L597.453 222L609 242ZM607 165L607 224L611 224L611 165L607 165Z" fill="black"/>
<path d="M609 301L586.859 307.567L603.617 323.458L609 301ZM554 359L576.141 352.433L559.383 336.542L554 359ZM595.163 312.685L564.934 344.563L567.837 347.315L598.066 315.437L595.163 312.685Z" fill="black"/>
<path d="M563 272L548 263.34V280.66L563 272ZM512 272L527 280.66V263.34L512 272ZM549.5 270.5H525.5V273.5H549.5V270.5Z" fill="black"/>
<path d="M793 298L784.34 313L801.66 313L793 298ZM793 468L801.66 453L784.34 453L793 468ZM791.5 311.5L791.5 454.5L794.5 454.5L794.5 311.5L791.5 311.5Z" fill="black"/>
<path fill-rule="evenodd" clip-rule="evenodd" d="M969 147L957.453 167H967V263H971H1087V272.547L1107 261L1087 249.453V259L971 259V167H980.547L969 147Z" fill="black"/>
<path d="M1181 163L1169.45 183H1192.55L1181 163ZM1181 232L1192.55 212H1169.45L1181 232ZM1179 181V214H1183V181H1179Z" fill="black"/>
<path d="M629 389L649 400.547V377.453L629 389ZM671 387H647V391H671V387Z" fill="black"/>
</svg>
