<svg width="238" height="224" viewBox="0 0 238 224" fill="none" xmlns="http://www.w3.org/2000/svg">
<path d="M105.62 191.51V207.29C105.62 209.92 105 212.4 103.88 214.59C103.68 214.98 103.1 214.89 103.04 214.46C102.84 212.97 102.4 211.53 101.74 210.11C101.43 209.43 100.63 209.14 99.95 209.45C99.27 209.77 98.98 210.57 99.29 211.25C100.41 213.65 100.74 216.18 100.27 218.91C100.21 219.25 100.03 219.56 99.77 219.78C99.77 219.78 99.75 219.8 99.74 219.8C98.81 220.57 97.39 219.94 97.38 218.74C97.36 216.31 96.83 214 95.79 211.74C95.48 211.06 94.67 210.78 93.99 211.09C93.31 211.4 93.02 212.2 93.34 212.89C94.64 215.68 94.98 218.61 94.38 221.81C94.26 222.44 93.76 222.92 93.14 223.06C93.13 223.06 93.11 223.06 93.1 223.06C92.06 223.29 91.11 222.48 91.13 221.42C91.19 218.81 90.67 216.32 89.55 213.91C89.24 213.23 88.43 212.94 87.75 213.25C87.07 213.56 86.79 214.37 87.1 215.05C88.09 217.18 88.53 219.39 88.42 221.73C88.37 222.69 87.49 223.43 86.54 223.26C78.88 221.89 73.19 214.95 73.19 206.93V191.63C73.19 184.58 77.41 178.08 84 175.56C84.27 175.47 84.55 175.36 84.85 175.26C88.23 182.81 95.17 188.23 105.63 191.52L105.62 191.51Z" fill="#C1AC24"/>
<path d="M161.07 157.95C159.91 163.37 158.11 169.49 155.67 176.47L154.14 180.83C152.73 181.32 151.53 181.72 150.95 181.94V207.3C150.95 209.65 150.46 211.85 149.55 213.86C149.36 214.29 148.73 214.21 148.64 213.75C148.41 212.51 148.02 211.3 147.47 210.12C147.15 209.44 146.35 209.15 145.67 209.46C144.99 209.78 144.7 210.58 145.01 211.26C146.07 213.52 146.43 215.91 146.06 218.46C146.01 218.8 145.84 219.13 145.58 219.37C145.58 219.37 145.56 219.39 145.55 219.4C144.62 220.24 143.14 219.59 143.1 218.34C143.03 216.07 142.5 213.88 141.51 211.75C141.2 211.07 140.4 210.79 139.72 211.1C139.04 211.41 138.75 212.21 139.06 212.9C140.34 215.66 140.7 218.56 140.13 221.71C140.02 222.31 139.57 222.81 138.98 222.97C138.95 222.97 138.91 222.99 138.88 223C137.83 223.28 136.85 222.41 136.87 221.33C136.92 218.76 136.39 216.3 135.28 213.93C134.97 213.25 134.17 212.96 133.49 213.27C132.8 213.58 132.52 214.39 132.83 215.07C133.78 217.12 134.22 219.25 134.16 221.49C134.13 222.61 133.1 223.48 131.99 223.29C124.35 221.98 118.53 215.33 118.53 207.31V185.45C113.76 184.61 109.45 183.12 105.61 181.12C98.41 177.39 92.91 171.87 89.39 165.44C83.15 165.26 77.65 166.9 73.17 170.81C72.93 171.03 72.7 171.26 72.45 171.47C68.11 175.64 65.82 181.49 65.82 187.5V206.91C65.82 209.91 65.03 212.75 63.63 215.21C63.4 215.61 62.79 215.49 62.74 215.02C62.57 213.33 62.11 211.7 61.37 210.11C61.06 209.43 60.26 209.14 59.57 209.45C58.89 209.77 58.61 210.57 58.92 211.25C60.1 213.8 60.39 216.49 59.79 219.43C59.72 219.75 59.54 220.04 59.29 220.23C59.25 220.26 59.21 220.29 59.17 220.32C58.25 221.01 56.99 220.32 57.01 219.18C57.06 216.59 56.53 214.13 55.42 211.74C55.11 211.06 54.3 210.78 53.62 211.09C52.94 211.4 52.65 212.2 52.96 212.89C54.27 215.72 54.62 218.69 53.99 221.94C53.87 222.57 53.37 223.09 52.74 223.22C52.73 223.22 52.72 223.22 52.71 223.22C51.67 223.43 50.74 222.56 50.77 221.5C50.85 218.86 50.32 216.35 49.19 213.92C48.88 213.24 48.07 212.95 47.39 213.26C46.71 213.57 46.42 214.38 46.73 215.06C47.78 217.34 48.21 219.71 48.02 222.23C47.97 222.89 47.34 223.38 46.69 223.26C39.13 221.89 33.42 215.27 33.42 207.31V161.08C33.42 156.94 33.89 152.9 34.81 149.03C26.02 148.38 18.05 144.74 11.91 138.4C2.30995 128.47 -1.49005 113.11 2.40995 100.18C5.25995 90.77 11.85 83.64 20.89 80C23.28 74.22 29.35 70.35 36.17 71.28C42.58 72.15 47.71 77.45 48.4 83.89C49.32 92.53 42.59 99.8 34.16 99.8C30.01 99.8 26.26 98.03 23.64 95.2C19.53 97.76 17.58 101.44 16.66 104.49C14.29 112.28 16.74 121.98 22.61 128.05C26.03 131.59 31.88 135.25 40.95 134.07C49.93 119.31 66.03 109.39 84.48 109.05C84.82 109.02 85.14 109.02 85.48 109.02H99.64C100.33 112.83 101.38 116.8 102.79 120.94L110.04 142.12L113.12 124.66C114.86 134.1 119.06 143.38 125.67 152.42L137.6 168.73L136.07 148.59C135.95 146.97 135.87 145.42 135.81 143.94C136.09 144.66 136.39 145.37 136.7 146.09C138.4 151.87 138.92 158.07 138.21 164.57L136.91 176.49L147.03 170.07C152.39 166.69 157.07 162.64 161.06 157.99L161.07 157.95Z" fill="#C1AC24"/>
<path d="M193.58 171.5V206.9C193.58 209.48 193 211.93 191.95 214.13C191.7 214.65 190.94 214.53 190.84 213.96C190.62 212.65 190.21 211.36 189.63 210.1C189.32 209.42 188.51 209.13 187.83 209.44C187.15 209.76 186.86 210.56 187.17 211.24C188.29 213.63 188.62 216.15 188.15 218.87C188.09 219.2 187.92 219.51 187.66 219.73C187.66 219.73 187.64 219.75 187.63 219.75C186.71 220.53 185.27 219.9 185.26 218.69C185.24 216.28 184.71 213.97 183.68 211.72C183.36 211.04 182.56 210.76 181.88 211.07C181.2 211.38 180.91 212.18 181.22 212.87C182.52 215.67 182.86 218.6 182.26 221.8C182.14 222.41 181.67 222.92 181.06 223.07C181.04 223.07 181.02 223.07 181 223.08C179.95 223.33 178.99 222.46 179.01 221.38C179.07 218.78 178.55 216.3 177.44 213.9C177.12 213.22 176.32 212.93 175.64 213.24C174.96 213.55 174.67 214.36 174.98 215.04C175.92 217.07 176.37 219.16 176.31 221.38C176.28 222.53 175.18 223.39 174.05 223.16C166.68 221.63 161.17 215.12 161.17 207.29V184.38L162.75 183.91C173.6 180.69 184.19 176.86 193.58 171.51V171.5Z" fill="#C1AC24"/>
<path d="M112.56 59.25C97.94 58.31 88.76 74.62 89.69 96.27C95.22 87.8 101.66 81.43 109.37 77.99C102.26 91.49 103.52 105.22 108.25 119.04C110.29 107.48 114.37 98.58 121.89 94.16C114.51 113.42 117.65 131.66 130.32 148.99C129.29 135.45 130.44 123.9 135.52 115.95C136.1 125.84 138.26 135.23 142.13 144.07C144.21 150.88 144.75 157.92 143.96 165.16C154.78 158.31 162.85 148.49 167.58 135.08C170.27 147.3 166.72 162.37 161.11 178.38C193.34 168.83 221.64 154.86 222.26 109.64C226.96 115.44 228.95 124.29 229.57 134.66C237.88 117.71 242.71 99.95 225.49 77.02C239.78 66.79 239.26 54.59 229.57 41.17C231.3 60.76 223.06 66.57 214.53 66.47C234.3 47.82 219.4 17.9199 193.16 29.3599C186.27 0.119947 152.99 -7.46005 126.81 9.95995C143.78 9.74995 156.38 12.49 156.61 23.6C133.84 -1.56003 94.01 30.77 112.56 59.26V59.25Z" fill="#96CA50"/>
<path d="M172.08 45.95C187.73 25.89 213.6 47.26 203.29 68.72C213.25 79.59 214.4 92 210.62 102.26C204.69 118.35 187.19 127 170.62 122.62C153.04 117.98 145.02 99.6 149.31 80.99C112.95 63.56 150.25 19.32 172.08 45.94V45.95Z" fill="white"/>
<path d="M159.58 63.87C162.551 63.87 164.96 61.4613 164.96 58.49C164.96 55.5187 162.551 53.11 159.58 53.11C156.609 53.11 154.2 55.5187 154.2 58.49C154.2 61.4613 156.609 63.87 159.58 63.87Z" fill="#C1AC24"/>
<path d="M191.74 63.87C194.711 63.87 197.12 61.4613 197.12 58.49C197.12 55.5187 194.711 53.11 191.74 53.11C188.769 53.11 186.36 55.5187 186.36 58.49C186.36 61.4613 188.769 63.87 191.74 63.87Z" fill="#C1AC24"/>
<path d="M176.61 70.78H194.92C196.32 70.78 197.66 71.51 198.29 72.76C200.38 76.89 194.15 82.26 188.95 82.5C188.12 93.54 192.87 97.37 201.23 96.56C198.08 121.23 161.77 122.9 158.68 93.56C172.26 100.71 184.36 96.65 182.58 82.88C176.15 81.99 170.14 75.98 173.32 72.24C174.13 71.28 175.37 70.79 176.62 70.79L176.61 70.78Z" fill="#C1AC24"/>
<path d="M167.48 89.95C167.29 89.95 167.1 89.92 166.9 89.87L160.34 88.09C159.17 87.77 158.47 86.56 158.79 85.39C159.11 84.22 160.32 83.52 161.49 83.84L168.05 85.62C169.22 85.94 169.92 87.15 169.6 88.32C169.33 89.3 168.45 89.95 167.48 89.95Z" fill="#C1AC24"/>
<path d="M168.89 82.8999C168.48 82.8999 168.06 82.7899 167.69 82.5499L162.66 79.2899C161.64 78.6299 161.35 77.2599 162.01 76.2399C162.67 75.2199 164.04 74.9299 165.06 75.5899L170.09 78.8499C171.11 79.5099 171.4 80.8799 170.74 81.8999C170.32 82.5499 169.61 82.8999 168.89 82.8999Z" fill="#C1AC24"/>
<path d="M203.4 90.11C202.53 90.11 201.71 89.59 201.36 88.73C200.9 87.6 201.45 86.32 202.57 85.86L205.64 84.62C206.77 84.16 208.05 84.71 208.51 85.83C208.97 86.96 208.42 88.24 207.3 88.7L204.23 89.94C203.96 90.05 203.68 90.1 203.4 90.1V90.11Z" fill="#C1AC24"/>
<path d="M201.55 83.15C201.03 83.15 200.5 82.96 200.08 82.59C199.17 81.78 199.1 80.39 199.91 79.48L202.13 77.01C202.94 76.1 204.33 76.03 205.24 76.84C206.15 77.65 206.22 79.04 205.41 79.95L203.19 82.42C202.76 82.91 202.15 83.15 201.55 83.15Z" fill="#C1AC24"/>
</svg>
