<svg width="1915" height="814" viewBox="0 0 1915 814" fill="none" xmlns="http://www.w3.org/2000/svg">
<path d="M424 0L424 691" stroke="white" stroke-opacity="0.6" stroke-width="6" stroke-dasharray="16 16"/>
<path d="M119.18 34H114.275V23.2773H105.979V34H101.074V8.63477H105.979V18.9707H114.275V8.63477H119.18V34ZM142.137 23.2598C142.137 30.3086 138.463 34.5098 132.381 34.5098C126.299 34.5098 122.625 30.3086 122.625 23.2598V19.375C122.625 12.3262 126.299 8.125 132.381 8.125C138.463 8.125 142.137 12.3262 142.137 19.375V23.2598ZM132.381 30.0801C135.439 30.0801 137.057 27.7773 137.057 23.207V19.4277C137.057 14.8574 135.439 12.5547 132.381 12.5547C129.322 12.5547 127.705 14.8574 127.705 19.4277V23.207C127.705 27.7773 129.322 30.0801 132.381 30.0801ZM145.178 26.8984H149.889C150.117 29.0957 151.91 30.3613 154.793 30.3613C157.535 30.3613 159.275 29.043 159.275 26.9863C159.275 25.2637 158.15 24.3496 155.215 23.6992L152.578 23.084C147.99 22.0469 145.74 19.6211 145.74 15.8594C145.74 11.1309 149.238 8.125 154.723 8.125C160.031 8.125 163.6 11.0957 163.758 15.6309H159.047C158.854 13.5391 157.254 12.2559 154.775 12.2559C152.262 12.2559 150.697 13.4336 150.697 15.332C150.697 17.125 151.822 18.1094 154.564 18.707L157.166 19.3047C162.07 20.3945 164.215 22.5918 164.215 26.4766C164.215 31.4863 160.629 34.5098 154.705 34.5098C148.957 34.5098 145.354 31.6445 145.178 26.8984ZM179.385 34H174.393V12.9414H167.133V8.63477H186.645V12.9414H179.385V34ZM211.939 26.8984H216.65C216.879 29.0957 218.672 30.3613 221.555 30.3613C224.297 30.3613 226.037 29.043 226.037 26.9863C226.037 25.2637 224.912 24.3496 221.977 23.6992L219.34 23.084C214.752 22.0469 212.502 19.6211 212.502 15.8594C212.502 11.1309 216 8.125 221.484 8.125C226.793 8.125 230.361 11.0957 230.52 15.6309H225.809C225.615 13.5391 224.016 12.2559 221.537 12.2559C219.023 12.2559 217.459 13.4336 217.459 15.332C217.459 17.125 218.584 18.1094 221.326 18.707L223.928 19.3047C228.832 20.3945 230.977 22.5918 230.977 26.4766C230.977 31.4863 227.391 34.5098 221.467 34.5098C215.719 34.5098 212.115 31.6445 211.939 26.8984ZM246.146 34H241.154V24.6309L233.016 8.63477H238.412L243.492 19.4453H243.809L248.889 8.63477H254.285L246.146 24.6309V34ZM256.447 26.8984H261.158C261.387 29.0957 263.18 30.3613 266.062 30.3613C268.805 30.3613 270.545 29.043 270.545 26.9863C270.545 25.2637 269.42 24.3496 266.484 23.6992L263.848 23.084C259.26 22.0469 257.01 19.6211 257.01 15.8594C257.01 11.1309 260.508 8.125 265.992 8.125C271.301 8.125 274.869 11.0957 275.027 15.6309H270.316C270.123 13.5391 268.523 12.2559 266.045 12.2559C263.531 12.2559 261.967 13.4336 261.967 15.332C261.967 17.125 263.092 18.1094 265.834 18.707L268.436 19.3047C273.34 20.3945 275.484 22.5918 275.484 26.4766C275.484 31.4863 271.898 34.5098 265.975 34.5098C260.227 34.5098 256.623 31.6445 256.447 26.8984ZM290.654 34H285.662V12.9414H278.402V8.63477H297.914V12.9414H290.654V34ZM318.762 29.6934V34H302.766V8.63477H318.762V12.9414H307.775V19.1816H318.111V23.1719H307.775V29.6934H318.762ZM327.252 25.6328V34H323.068V8.63477H328.236L332.525 23.1367H332.824L337.096 8.63477H342.264V34H338.08V25.6328L338.713 15.5078H338.344L334.354 28.041H330.979L326.988 15.5078H326.619L327.252 25.6328Z" fill="white" fill-opacity="0.6"/>
<path d="M517.623 34H512.631V12.9414H505.371V8.63477H524.883V12.9414H517.623V34ZM534.428 23.8926H539.965L537.328 13.6094H537.1L534.428 23.8926ZM542.549 34L540.967 27.7949H533.426L531.809 34H526.816L534.428 8.63477H540.334L547.945 34H542.549ZM555.996 12.7129V20.834H559.529C562.359 20.834 564.047 19.3047 564.047 16.7383C564.047 14.2246 562.395 12.7129 559.582 12.7129H555.996ZM559.617 24.666H555.996V34H551.021V8.63477H560.232C565.752 8.63477 569.127 11.6934 569.127 16.7207C569.127 20.0078 567.387 22.75 564.627 23.8398L569.707 34H564.082L559.617 24.666ZM586.582 25.6855V24.2793H581.854V20.5176H591.662V25.791C591.662 31.082 587.971 34.5098 582.363 34.5098C576.105 34.5098 572.449 30.625 572.449 23.9102V18.7246C572.449 12.0098 576.105 8.125 582.363 8.125C587.971 8.125 591.504 11.4824 591.645 17.002H586.564C586.441 14.3477 584.701 12.6074 582.223 12.6074C579.129 12.6074 577.529 14.6816 577.529 18.7246V23.9102C577.529 27.9707 579.146 30.0273 582.293 30.0273C584.965 30.0273 586.582 28.4102 586.582 25.6855ZM612.492 29.6934V34H596.496V8.63477H612.492V12.9414H601.506V19.1816H611.842V23.1719H601.506V29.6934H612.492ZM628.893 34H623.9V12.9414H616.641V8.63477H636.152V12.9414H628.893V34ZM661.447 26.8984H666.158C666.387 29.0957 668.18 30.3613 671.062 30.3613C673.805 30.3613 675.545 29.043 675.545 26.9863C675.545 25.2637 674.42 24.3496 671.484 23.6992L668.848 23.084C664.26 22.0469 662.01 19.6211 662.01 15.8594C662.01 11.1309 665.508 8.125 670.992 8.125C676.301 8.125 679.869 11.0957 680.027 15.6309H675.316C675.123 13.5391 673.523 12.2559 671.045 12.2559C668.531 12.2559 666.967 13.4336 666.967 15.332C666.967 17.125 668.092 18.1094 670.834 18.707L673.436 19.3047C678.34 20.3945 680.484 22.5918 680.484 26.4766C680.484 31.4863 676.898 34.5098 670.975 34.5098C665.227 34.5098 661.623 31.6445 661.447 26.8984ZM695.654 34H690.662V24.6309L682.523 8.63477H687.92L693 19.4453H693.316L698.396 8.63477H703.793L695.654 24.6309V34ZM705.955 26.8984H710.666C710.895 29.0957 712.688 30.3613 715.57 30.3613C718.312 30.3613 720.053 29.043 720.053 26.9863C720.053 25.2637 718.928 24.3496 715.992 23.6992L713.355 23.084C708.768 22.0469 706.518 19.6211 706.518 15.8594C706.518 11.1309 710.016 8.125 715.5 8.125C720.809 8.125 724.377 11.0957 724.535 15.6309H719.824C719.631 13.5391 718.031 12.2559 715.553 12.2559C713.039 12.2559 711.475 13.4336 711.475 15.332C711.475 17.125 712.6 18.1094 715.342 18.707L717.943 19.3047C722.848 20.3945 724.992 22.5918 724.992 26.4766C724.992 31.4863 721.406 34.5098 715.482 34.5098C709.734 34.5098 706.131 31.6445 705.955 26.8984ZM740.162 34H735.17V12.9414H727.91V8.63477H747.422V12.9414H740.162V34ZM768.27 29.6934V34H752.273V8.63477H768.27V12.9414H757.283V19.1816H767.619V23.1719H757.283V29.6934H768.27ZM776.76 25.6328V34H772.576V8.63477H777.744L782.033 23.1367H782.332L786.604 8.63477H791.771V34H787.588V25.6328L788.221 15.5078H787.852L783.861 28.041H780.486L776.496 15.5078H776.127L776.76 25.6328Z" fill="white" fill-opacity="0.6"/>
<rect x="619" y="487" width="1292" height="110" fill="#54C75F" stroke="#44894B" stroke-width="6"/>
<path d="M1231.78 540.284L1225.14 540.693C1225.02 540.125 1224.78 539.614 1224.4 539.159C1224.03 538.693 1223.53 538.324 1222.92 538.051C1222.32 537.767 1221.6 537.625 1220.76 537.625C1219.63 537.625 1218.68 537.864 1217.91 538.341C1217.14 538.807 1216.75 539.432 1216.75 540.216C1216.75 540.841 1217 541.369 1217.5 541.801C1218 542.233 1218.86 542.58 1220.07 542.841L1224.81 543.795C1227.36 544.318 1229.26 545.159 1230.51 546.318C1231.76 547.477 1232.38 549 1232.38 550.886C1232.38 552.602 1231.88 554.108 1230.86 555.403C1229.86 556.699 1228.49 557.71 1226.74 558.438C1225 559.153 1222.99 559.511 1220.72 559.511C1217.26 559.511 1214.49 558.79 1212.44 557.347C1210.39 555.892 1209.19 553.915 1208.84 551.415L1215.98 551.04C1216.2 552.097 1216.72 552.903 1217.55 553.46C1218.38 554.006 1219.44 554.278 1220.74 554.278C1222.01 554.278 1223.03 554.034 1223.81 553.545C1224.59 553.045 1224.99 552.403 1225 551.619C1224.99 550.96 1224.71 550.42 1224.17 550C1223.62 549.568 1222.78 549.239 1221.64 549.011L1217.11 548.108C1214.55 547.597 1212.65 546.71 1211.4 545.449C1210.16 544.187 1209.54 542.58 1209.54 540.625C1209.54 538.943 1209.99 537.494 1210.9 536.278C1211.82 535.062 1213.11 534.125 1214.77 533.466C1216.44 532.807 1218.4 532.477 1220.64 532.477C1223.94 532.477 1226.55 533.176 1228.44 534.574C1230.35 535.972 1231.47 537.875 1231.78 540.284ZM1248.89 559.511C1246.19 559.511 1243.87 558.966 1241.93 557.875C1240 556.773 1238.51 555.216 1237.46 553.205C1236.42 551.182 1235.9 548.79 1235.9 546.028C1235.9 543.335 1236.42 540.972 1237.46 538.938C1238.51 536.903 1239.98 535.318 1241.88 534.182C1243.79 533.045 1246.03 532.477 1248.6 532.477C1250.32 532.477 1251.93 532.756 1253.42 533.312C1254.92 533.858 1256.23 534.682 1257.34 535.784C1258.46 536.886 1259.34 538.273 1259.96 539.943C1260.59 541.602 1260.9 543.545 1260.9 545.773V547.767H1238.79V543.267H1254.07C1254.07 542.222 1253.84 541.295 1253.39 540.489C1252.93 539.682 1252.3 539.051 1251.49 538.597C1250.7 538.131 1249.77 537.898 1248.71 537.898C1247.61 537.898 1246.64 538.153 1245.78 538.665C1244.94 539.165 1244.28 539.841 1243.81 540.693C1243.33 541.534 1243.08 542.472 1243.07 543.506V547.784C1243.07 549.08 1243.31 550.199 1243.79 551.142C1244.28 552.085 1244.96 552.812 1245.85 553.324C1246.74 553.835 1247.79 554.091 1249 554.091C1249.81 554.091 1250.55 553.977 1251.22 553.75C1251.89 553.523 1252.46 553.182 1252.94 552.727C1253.42 552.273 1253.78 551.716 1254.03 551.057L1260.75 551.5C1260.41 553.114 1259.71 554.523 1258.65 555.727C1257.61 556.92 1256.25 557.852 1254.6 558.523C1252.95 559.182 1251.04 559.511 1248.89 559.511ZM1265.78 559V524.091H1273.16V552.915H1288.12V559H1265.78ZM1292.28 552.864V547.051L1306.85 524.091H1311.86V532.136H1308.9L1299.71 546.676V546.949H1320.42V552.864H1292.28ZM1309.03 559V551.091L1309.17 548.517V524.091H1316.09V559H1309.03Z" fill="white"/>
<rect x="1601.75" y="226" width="309.489" height="137.253" fill="#2C6AB1" stroke="#233E5C" stroke-width="6"/>
<rect x="1581.87" y="245.873" width="309.489" height="137.253" fill="#2C6AB1" stroke="#233E5C" stroke-width="6"/>
<rect x="1562" y="265.747" width="309.489" height="137.253" fill="#2C6AB1" stroke="#233E5C" stroke-width="6"/>
<path d="M1680.3 349V319.909H1691.78C1693.98 319.909 1695.86 320.33 1697.41 321.173C1698.97 322.007 1700.15 323.167 1700.97 324.653C1701.79 326.131 1702.2 327.835 1702.2 329.767C1702.2 331.699 1701.78 333.403 1700.95 334.881C1700.12 336.358 1698.91 337.509 1697.33 338.332C1695.76 339.156 1693.85 339.568 1691.62 339.568H1684.3V334.639H1690.62C1691.81 334.639 1692.78 334.436 1693.55 334.028C1694.33 333.612 1694.9 333.039 1695.28 332.31C1695.67 331.571 1695.87 330.723 1695.87 329.767C1695.87 328.801 1695.67 327.958 1695.28 327.239C1694.9 326.509 1694.33 325.946 1693.55 325.548C1692.77 325.141 1691.79 324.938 1690.6 324.938H1686.45V349H1680.3ZM1716.51 349H1706.2V319.909H1716.59C1719.52 319.909 1722.04 320.491 1724.15 321.656C1726.26 322.812 1727.89 324.473 1729.02 326.642C1730.17 328.811 1730.74 331.405 1730.74 334.426C1730.74 337.456 1730.17 340.061 1729.02 342.239C1727.89 344.417 1726.25 346.088 1724.12 347.253C1722 348.418 1719.46 349 1716.51 349ZM1712.35 343.73H1716.25C1718.07 343.73 1719.6 343.408 1720.84 342.764C1722.09 342.111 1723.03 341.102 1723.65 339.739C1724.29 338.366 1724.61 336.595 1724.61 334.426C1724.61 332.277 1724.29 330.52 1723.65 329.156C1723.03 327.793 1722.1 326.789 1720.86 326.145C1719.61 325.501 1718.09 325.179 1716.27 325.179H1712.35V343.73ZM1753.34 333.403L1747.8 333.744C1747.7 333.271 1747.5 332.845 1747.19 332.466C1746.87 332.078 1746.46 331.77 1745.95 331.543C1745.45 331.306 1744.85 331.188 1744.15 331.188C1743.21 331.188 1742.42 331.386 1741.78 331.784C1741.13 332.172 1740.81 332.693 1740.81 333.347C1740.81 333.867 1741.02 334.308 1741.43 334.668C1741.85 335.027 1742.57 335.316 1743.58 335.534L1747.53 336.33C1749.65 336.765 1751.23 337.466 1752.27 338.432C1753.31 339.398 1753.83 340.667 1753.83 342.239C1753.83 343.669 1753.41 344.923 1752.57 346.003C1751.74 347.082 1750.59 347.925 1749.13 348.531C1747.68 349.128 1746.01 349.426 1744.12 349.426C1741.23 349.426 1738.93 348.825 1737.22 347.622C1735.51 346.41 1734.51 344.762 1734.22 342.679L1740.17 342.366C1740.35 343.247 1740.79 343.92 1741.48 344.384C1742.17 344.838 1743.05 345.065 1744.13 345.065C1745.19 345.065 1746.05 344.862 1746.69 344.455C1747.34 344.038 1747.67 343.503 1747.68 342.849C1747.67 342.3 1747.44 341.85 1746.99 341.5C1746.53 341.14 1745.83 340.866 1744.89 340.676L1741.11 339.923C1738.98 339.497 1737.39 338.759 1736.35 337.707C1735.32 336.656 1734.8 335.316 1734.8 333.688C1734.8 332.286 1735.18 331.079 1735.94 330.065C1736.7 329.052 1737.78 328.271 1739.16 327.722C1740.55 327.172 1742.18 326.898 1744.05 326.898C1746.8 326.898 1748.97 327.48 1750.55 328.645C1752.14 329.81 1753.07 331.396 1753.34 333.403Z" fill="white"/>
<path d="M616 291L591 276.566V305.434L616 291ZM232 291L257 305.434V276.566L232 291ZM593.5 288.5L254.5 288.5V293.5L593.5 293.5V288.5Z" fill="white"/>
<rect x="1226" y="266" width="310" height="137" fill="#2C6AB1" stroke="#233E5C" stroke-width="6"/>
<path d="M1258.53 350V320.909H1270.01C1272.21 320.909 1274.09 321.33 1275.64 322.173C1277.2 323.007 1278.38 324.167 1279.2 325.653C1280.02 327.131 1280.43 328.835 1280.43 330.767C1280.43 332.699 1280.02 334.403 1279.18 335.881C1278.35 337.358 1277.14 338.509 1275.56 339.332C1273.99 340.156 1272.08 340.568 1269.85 340.568H1262.53V335.639H1268.86C1270.04 335.639 1271.01 335.436 1271.78 335.028C1272.56 334.612 1273.14 334.039 1273.51 333.31C1273.9 332.571 1274.1 331.723 1274.1 330.767C1274.1 329.801 1273.9 328.958 1273.51 328.239C1273.14 327.509 1272.56 326.946 1271.78 326.548C1271 326.141 1270.02 325.938 1268.83 325.938H1264.68V350H1258.53ZM1284.43 320.909H1292.01L1300.02 340.455H1300.36L1308.38 320.909H1315.96V350H1310V331.065H1309.75L1302.23 349.858H1298.16L1290.63 330.994H1290.39V350H1284.43V320.909ZM1339 320.909H1345.15V339.801C1345.15 341.922 1344.64 343.778 1343.63 345.369C1342.62 346.96 1341.22 348.201 1339.41 349.091C1337.6 349.972 1335.49 350.412 1333.09 350.412C1330.67 350.412 1328.56 349.972 1326.75 349.091C1324.94 348.201 1323.54 346.96 1322.53 345.369C1321.53 343.778 1321.03 341.922 1321.03 339.801V320.909H1327.18V339.276C1327.18 340.384 1327.42 341.368 1327.9 342.23C1328.4 343.092 1329.09 343.769 1329.98 344.261C1330.87 344.754 1331.9 345 1333.09 345C1334.28 345 1335.32 344.754 1336.2 344.261C1337.09 343.769 1337.78 343.092 1338.26 342.23C1338.75 341.368 1339 340.384 1339 339.276V320.909ZM1369.78 350H1359.47V320.909H1369.86C1372.79 320.909 1375.31 321.491 1377.42 322.656C1379.53 323.812 1381.16 325.473 1382.29 327.642C1383.44 329.811 1384.01 332.405 1384.01 335.426C1384.01 338.456 1383.44 341.061 1382.29 343.239C1381.16 345.417 1379.52 347.088 1377.39 348.253C1375.27 349.418 1372.73 350 1369.78 350ZM1365.62 344.73H1369.52C1371.34 344.73 1372.87 344.408 1374.11 343.764C1375.36 343.111 1376.3 342.102 1376.92 340.739C1377.56 339.366 1377.88 337.595 1377.88 335.426C1377.88 333.277 1377.56 331.52 1376.92 330.156C1376.3 328.793 1375.37 327.789 1374.12 327.145C1372.88 326.501 1371.36 326.179 1369.54 326.179H1365.62V344.73ZM1388.57 350V320.909H1400.04C1402.24 320.909 1404.12 321.302 1405.67 322.088C1407.23 322.865 1408.42 323.968 1409.24 325.398C1410.06 326.818 1410.47 328.49 1410.47 330.412C1410.47 332.344 1410.05 334.006 1409.22 335.398C1408.39 336.78 1407.18 337.841 1405.6 338.58C1404.03 339.318 1402.12 339.688 1399.89 339.688H1392.2V334.744H1398.89C1400.07 334.744 1401.04 334.583 1401.82 334.261C1402.6 333.939 1403.17 333.456 1403.55 332.812C1403.94 332.169 1404.14 331.368 1404.14 330.412C1404.14 329.446 1403.94 328.632 1403.55 327.969C1403.17 327.306 1402.59 326.804 1401.81 326.463C1401.03 326.113 1400.05 325.938 1398.87 325.938H1394.72V350H1388.57ZM1404.28 336.761L1411.51 350H1404.72L1397.64 336.761H1404.28ZM1420.97 320.909V350H1414.82V320.909H1420.97ZM1431.28 320.909L1438.32 343.011H1438.59L1445.63 320.909H1452.45L1442.42 350H1434.49L1424.45 320.909H1431.28ZM1455.95 350V320.909H1475.55V325.98H1462.1V332.912H1474.54V337.983H1462.1V344.929H1475.61V350H1455.95ZM1480.44 350V320.909H1491.92C1494.12 320.909 1495.99 321.302 1497.54 322.088C1499.11 322.865 1500.3 323.968 1501.11 325.398C1501.93 326.818 1502.35 328.49 1502.35 330.412C1502.35 332.344 1501.93 334.006 1501.1 335.398C1500.26 336.78 1499.06 337.841 1497.47 338.58C1495.9 339.318 1494 339.688 1491.76 339.688H1484.08V334.744H1490.77C1491.94 334.744 1492.92 334.583 1493.7 334.261C1494.47 333.939 1495.05 333.456 1495.43 332.812C1495.82 332.169 1496.01 331.368 1496.01 330.412C1496.01 329.446 1495.82 328.632 1495.43 327.969C1495.05 327.306 1494.47 326.804 1493.68 326.463C1492.9 326.113 1491.92 325.938 1490.74 325.938H1486.59V350H1480.44ZM1496.15 336.761L1503.38 350H1496.59L1489.52 336.761H1496.15Z" fill="white"/>
<path d="M616 377L591 362.566L591 391.434L616 377ZM232 377L257 391.434L257 362.566L232 377ZM593.5 374.5L254.5 374.5L254.5 379.5L593.5 379.5L593.5 374.5Z" fill="white"/>
<rect x="329" y="263" width="189" height="57" fill="white"/>
<path d="M395.398 279.727H400.318V294.841C400.318 296.538 399.913 298.023 399.102 299.295C398.299 300.568 397.174 301.561 395.727 302.273C394.28 302.977 392.595 303.33 390.67 303.33C388.739 303.33 387.049 302.977 385.602 302.273C384.155 301.561 383.03 300.568 382.227 299.295C381.424 298.023 381.023 296.538 381.023 294.841V279.727H385.943V294.42C385.943 295.307 386.136 296.095 386.523 296.784C386.917 297.473 387.47 298.015 388.182 298.409C388.894 298.803 389.723 299 390.67 299C391.625 299 392.455 298.803 393.159 298.409C393.871 298.015 394.42 297.473 394.807 296.784C395.201 296.095 395.398 295.307 395.398 294.42V279.727ZM408.378 303H403.105L411.139 279.727H417.48L425.503 303H420.23L414.401 285.045H414.219L408.378 303ZM408.048 293.852H420.503V297.693H408.048V293.852ZM428.304 303V279.727H437.486C439.243 279.727 440.743 280.042 441.986 280.67C443.236 281.292 444.187 282.174 444.838 283.318C445.497 284.455 445.827 285.792 445.827 287.33C445.827 288.875 445.493 290.205 444.827 291.318C444.16 292.424 443.194 293.273 441.929 293.864C440.671 294.455 439.149 294.75 437.361 294.75H431.213V290.795H436.565C437.505 290.795 438.285 290.667 438.906 290.409C439.527 290.152 439.99 289.765 440.293 289.25C440.603 288.735 440.759 288.095 440.759 287.33C440.759 286.557 440.603 285.905 440.293 285.375C439.99 284.845 439.524 284.443 438.895 284.17C438.274 283.89 437.49 283.75 436.543 283.75H433.224V303H428.304ZM440.872 292.409L446.656 303H441.224L435.565 292.409H440.872ZM448.418 283.784V279.727H467.531V283.784H460.406V303H455.543V283.784H448.418Z" fill="black"/>
<rect x="329" y="349" width="189" height="57" fill="white"/>
<path d="M342.023 389V365.727H357.705V369.784H346.943V375.33H356.898V379.386H346.943V384.943H357.75V389H342.023ZM360.73 369.784V365.727H379.844V369.784H372.719V389H367.855V369.784H360.73ZM382.991 389V365.727H387.912V375.33H397.901V365.727H402.81V389H397.901V379.386H387.912V389H382.991ZM406.866 389V365.727H422.548V369.784H411.787V375.33H421.741V379.386H411.787V384.943H422.594V389H406.866ZM426.46 389V365.727H435.642C437.4 365.727 438.9 366.042 440.142 366.67C441.392 367.292 442.343 368.174 442.994 369.318C443.653 370.455 443.983 371.792 443.983 373.33C443.983 374.875 443.65 376.205 442.983 377.318C442.316 378.424 441.35 379.273 440.085 379.864C438.828 380.455 437.305 380.75 435.517 380.75H429.369V376.795H434.722C435.661 376.795 436.441 376.667 437.062 376.409C437.684 376.152 438.146 375.765 438.449 375.25C438.759 374.735 438.915 374.095 438.915 373.33C438.915 372.557 438.759 371.905 438.449 371.375C438.146 370.845 437.68 370.443 437.051 370.17C436.43 369.89 435.646 369.75 434.699 369.75H431.381V389H426.46ZM439.028 378.409L444.812 389H439.381L433.722 378.409H439.028ZM466.926 365.727V389H462.676L452.551 374.352H452.381V389H447.46V365.727H451.778L461.824 380.364H462.028V365.727H466.926ZM470.991 389V365.727H486.673V369.784H475.912V375.33H485.866V379.386H475.912V384.943H486.719V389H470.991ZM489.699 369.784V365.727H508.812V369.784H501.688V389H496.824V369.784H489.699Z" fill="black"/>
<path d="M1351 403L1336.57 428L1365.43 428L1351 403ZM1351 481L1365.43 456L1336.57 456L1351 481ZM1348.5 425.5L1348.5 458.5L1353.5 458.5L1353.5 425.5L1348.5 425.5Z" fill="white"/>
<path d="M1351 600L1336.57 625L1365.43 625L1351 600ZM1351 711L1365.43 686L1336.57 686L1351 711ZM1348.5 622.5L1348.5 688.5L1353.5 688.5L1353.5 622.5L1348.5 622.5Z" fill="white"/>
<path d="M934 334L909 319.566L909 348.434L934 334ZM852 334L877 348.434L877 319.566L852 334ZM911.5 331.5L874.5 331.5L874.5 336.5L911.5 336.5L911.5 331.5Z" fill="white"/>
<path d="M1223 335L1198 320.566L1198 349.434L1223 335ZM1141 335L1166 349.434L1166 320.566L1141 335ZM1200.5 332.5L1163.5 332.5L1163.5 337.5L1200.5 337.5L1200.5 332.5Z" fill="white"/>
<path d="M40.6584 296.348C40.5561 295.317 40.1172 294.516 39.3416 293.945C38.5661 293.374 37.5135 293.088 36.1839 293.088C35.2805 293.088 34.5178 293.216 33.8956 293.472C33.2734 293.719 32.7962 294.064 32.4638 294.507C32.1399 294.95 31.978 295.453 31.978 296.016C31.9609 296.484 32.0589 296.893 32.272 297.243C32.4936 297.592 32.7962 297.895 33.1797 298.151C33.5632 298.398 34.0064 298.615 34.5092 298.803C35.0121 298.982 35.549 299.135 36.12 299.263L38.4723 299.825C39.6143 300.081 40.6626 300.422 41.6172 300.848C42.5717 301.274 43.3984 301.798 44.0973 302.42C44.7962 303.043 45.3374 303.776 45.7209 304.619C46.1129 305.463 46.3132 306.43 46.3217 307.521C46.3132 309.124 45.9041 310.513 45.0945 311.689C44.2933 312.857 43.1342 313.764 41.6172 314.412C40.1087 315.051 38.2891 315.371 36.1584 315.371C34.0447 315.371 32.2038 315.047 30.6357 314.399C29.076 313.751 27.8572 312.793 26.9794 311.523C26.1101 310.244 25.6541 308.663 25.6115 306.78H30.968C31.0277 307.658 31.2791 308.391 31.7223 308.979C32.174 309.558 32.7749 309.997 33.5249 310.295C34.2834 310.585 35.1399 310.73 36.0945 310.73C37.032 310.73 37.8459 310.594 38.5362 310.321C39.2351 310.048 39.7763 309.669 40.1598 309.183C40.5433 308.697 40.7351 308.139 40.7351 307.509C40.7351 306.92 40.5604 306.426 40.2109 306.026C39.87 305.625 39.3672 305.284 38.7024 305.003C38.0462 304.722 37.2408 304.466 36.2862 304.236L33.4354 303.52C31.228 302.983 29.4851 302.143 28.2067 301.001C26.9283 299.859 26.2933 298.321 26.3018 296.386C26.2933 294.801 26.7152 293.416 27.5675 292.232C28.4283 291.047 29.6087 290.122 31.1087 289.457C32.6087 288.793 34.3132 288.46 36.2223 288.46C38.1655 288.46 39.8615 288.793 41.3104 289.457C42.7678 290.122 43.9013 291.047 44.7109 292.232C45.5206 293.416 45.9382 294.788 45.9638 296.348H40.6584ZM53.9602 315H48.0284L57.0668 288.818H64.2003L73.2259 315H67.294L60.7358 294.801H60.5312L53.9602 315ZM53.5895 304.709H67.6009V309.03H53.5895V304.709ZM76.3771 288.818H83.2038L90.4141 306.409H90.7209L97.9311 288.818H104.758V315H99.3885V297.959H99.1712L92.3956 314.872H88.7393L81.9638 297.895H81.7464V315H76.3771V288.818ZM109.319 315V288.818H119.648C121.634 288.818 123.326 289.197 124.723 289.956C126.121 290.706 127.186 291.75 127.919 293.088C128.661 294.418 129.032 295.952 129.032 297.69C129.032 299.429 128.657 300.963 127.907 302.293C127.157 303.622 126.07 304.658 124.647 305.399C123.232 306.141 121.519 306.511 119.507 306.511H112.924V302.075H118.613C119.678 302.075 120.556 301.892 121.246 301.526C121.945 301.151 122.465 300.635 122.806 299.979C123.155 299.314 123.33 298.551 123.33 297.69C123.33 296.821 123.155 296.062 122.806 295.415C122.465 294.759 121.945 294.251 121.246 293.893C120.547 293.527 119.661 293.344 118.587 293.344H114.854V315H109.319ZM132.627 315V288.818H138.163V310.436H149.387V315H132.627ZM153.053 315V288.818H170.695V293.382H158.588V299.621H169.787V304.185H158.588V310.436H170.746V315H153.053ZM2.58416 359V332.818H12.9137C14.891 332.818 16.5785 333.172 17.9762 333.879C19.3825 334.578 20.4521 335.571 21.185 336.858C21.9265 338.136 22.2972 339.641 22.2972 341.371C22.2972 343.109 21.9222 344.605 21.1722 345.858C20.4222 347.102 19.3356 348.057 17.9123 348.722C16.4975 349.386 14.7844 349.719 12.7731 349.719H5.85689V345.27H11.8782C12.935 345.27 13.8129 345.125 14.5117 344.835C15.2106 344.545 15.7305 344.111 16.0714 343.531C16.4208 342.952 16.5955 342.232 16.5955 341.371C16.5955 340.501 16.4208 339.768 16.0714 339.172C15.7305 338.575 15.2063 338.124 14.4989 337.817C13.8001 337.501 12.918 337.344 11.8526 337.344H8.11967V359H2.58416ZM16.7234 347.085L23.2305 359H17.1197L10.7532 347.085H16.7234ZM26.2092 359V332.818H43.8512V337.382H31.7447V343.621H42.9435V348.185H31.7447V354.436H43.9023V359H26.2092ZM71.353 341.984H65.7536C65.6513 341.26 65.4425 340.616 65.1271 340.054C64.8118 339.483 64.407 338.997 63.9126 338.597C63.4183 338.196 62.8473 337.889 62.1996 337.676C61.5604 337.463 60.8658 337.357 60.1158 337.357C58.7607 337.357 57.5803 337.693 56.5746 338.366C55.5689 339.031 54.7891 340.003 54.2351 341.281C53.6811 342.551 53.4041 344.094 53.4041 345.909C53.4041 347.776 53.6811 349.344 54.2351 350.614C54.7976 351.884 55.5817 352.842 56.5874 353.49C57.593 354.138 58.7564 354.462 60.0774 354.462C60.8189 354.462 61.505 354.364 62.1357 354.168C62.7749 353.972 63.3416 353.686 63.8359 353.311C64.3303 352.928 64.7393 352.463 65.0632 351.918C65.3956 351.372 65.6257 350.75 65.7536 350.051L71.353 350.077C71.2081 351.278 70.8459 352.438 70.2663 353.554C69.6953 354.662 68.924 355.655 67.9524 356.533C66.9893 357.402 65.8388 358.092 64.5007 358.604C63.1712 359.107 61.6669 359.358 59.9879 359.358C57.6527 359.358 55.5646 358.83 53.7237 357.773C51.8913 356.716 50.4425 355.186 49.3771 353.183C48.3203 351.18 47.7919 348.756 47.7919 345.909C47.7919 343.054 48.3288 340.625 49.4027 338.622C50.4766 336.619 51.9339 335.094 53.7749 334.045C55.6158 332.989 57.6868 332.46 59.9879 332.46C61.505 332.46 62.9112 332.673 64.2067 333.099C65.5107 333.526 66.6655 334.148 67.6712 334.966C68.6768 335.776 69.495 336.768 70.1257 337.945C70.7649 339.121 71.174 340.467 71.353 341.984ZM99.3821 345.909C99.3821 348.764 98.8409 351.193 97.7585 353.196C96.6847 355.199 95.2188 356.729 93.3608 357.786C91.5114 358.834 89.4318 359.358 87.1222 359.358C84.7955 359.358 82.7074 358.83 80.858 357.773C79.0085 356.716 77.5469 355.186 76.473 353.183C75.3991 351.18 74.8622 348.756 74.8622 345.909C74.8622 343.054 75.3991 340.625 76.473 338.622C77.5469 336.619 79.0085 335.094 80.858 334.045C82.7074 332.989 84.7955 332.46 87.1222 332.46C89.4318 332.46 91.5114 332.989 93.3608 334.045C95.2188 335.094 96.6847 336.619 97.7585 338.622C98.8409 340.625 99.3821 343.054 99.3821 345.909ZM93.7699 345.909C93.7699 344.06 93.4929 342.5 92.9389 341.23C92.3935 339.96 91.6222 338.997 90.625 338.341C89.6278 337.685 88.4602 337.357 87.1222 337.357C85.7841 337.357 84.6165 337.685 83.6193 338.341C82.6222 338.997 81.8466 339.96 81.2926 341.23C80.7472 342.5 80.4744 344.06 80.4744 345.909C80.4744 347.759 80.7472 349.318 81.2926 350.588C81.8466 351.858 82.6222 352.821 83.6193 353.477C84.6165 354.134 85.7841 354.462 87.1222 354.462C88.4602 354.462 89.6278 354.134 90.625 353.477C91.6222 352.821 92.3935 351.858 92.9389 350.588C93.4929 349.318 93.7699 347.759 93.7699 345.909ZM103.483 359V332.818H113.812C115.789 332.818 117.477 333.172 118.875 333.879C120.281 334.578 121.35 335.571 122.083 336.858C122.825 338.136 123.196 339.641 123.196 341.371C123.196 343.109 122.821 344.605 122.071 345.858C121.321 347.102 120.234 348.057 118.811 348.722C117.396 349.386 115.683 349.719 113.672 349.719H106.755V345.27H112.777C113.833 345.27 114.711 345.125 115.41 344.835C116.109 344.545 116.629 344.111 116.97 343.531C117.319 342.952 117.494 342.232 117.494 341.371C117.494 340.501 117.319 339.768 116.97 339.172C116.629 338.575 116.105 338.124 115.397 337.817C114.699 337.501 113.816 337.344 112.751 337.344H109.018V359H103.483ZM117.622 347.085L124.129 359H118.018L111.652 347.085H117.622ZM136.389 359H127.108V332.818H136.466C139.099 332.818 141.366 333.342 143.267 334.391C145.167 335.43 146.629 336.926 147.652 338.878C148.683 340.83 149.199 343.165 149.199 345.884C149.199 348.611 148.683 350.955 147.652 352.915C146.629 354.875 145.159 356.379 143.241 357.428C141.332 358.476 139.048 359 136.389 359ZM132.643 354.257H136.159C137.795 354.257 139.172 353.967 140.288 353.388C141.413 352.8 142.257 351.892 142.819 350.665C143.39 349.429 143.676 347.835 143.676 345.884C143.676 343.949 143.39 342.368 142.819 341.141C142.257 339.913 141.417 339.01 140.301 338.43C139.184 337.851 137.808 337.561 136.172 337.561H132.643V354.257ZM153.299 359V332.818H170.941V337.382H158.835V343.621H170.033V348.185H158.835V354.436H170.992V359H153.299ZM175.342 359V332.818H185.672C187.649 332.818 189.336 333.172 190.734 333.879C192.14 334.578 193.21 335.571 193.943 336.858C194.684 338.136 195.055 339.641 195.055 341.371C195.055 343.109 194.68 344.605 193.93 345.858C193.18 347.102 192.093 348.057 190.67 348.722C189.255 349.386 187.542 349.719 185.531 349.719H178.615V345.27H184.636C185.693 345.27 186.571 345.125 187.27 344.835C187.968 344.545 188.488 344.111 188.829 343.531C189.179 342.952 189.353 342.232 189.353 341.371C189.353 340.501 189.179 339.768 188.829 339.172C188.488 338.575 187.964 338.124 187.257 337.817C186.558 337.501 185.676 337.344 184.61 337.344H180.877V359H175.342ZM189.481 347.085L195.988 359H189.877L183.511 347.085H189.481Z" fill="white"/>
<rect x="1223" y="714" width="256" height="100" fill="white"/>
<path d="M1312.52 777V750.818H1322.85C1324.84 750.818 1326.53 751.197 1327.92 751.956C1329.32 752.706 1330.39 753.75 1331.12 755.088C1331.86 756.418 1332.23 757.952 1332.23 759.69C1332.23 761.429 1331.86 762.963 1331.11 764.293C1330.36 765.622 1329.27 766.658 1327.85 767.399C1326.43 768.141 1324.72 768.511 1322.71 768.511H1316.12V764.075H1321.81C1322.88 764.075 1323.76 763.892 1324.45 763.526C1325.15 763.151 1325.67 762.635 1326.01 761.979C1326.36 761.314 1326.53 760.551 1326.53 759.69C1326.53 758.821 1326.36 758.062 1326.01 757.415C1325.67 756.759 1325.15 756.251 1324.45 755.893C1323.75 755.527 1322.86 755.344 1321.79 755.344H1318.06V777H1312.52ZM1335.83 750.818H1342.66L1349.87 768.409H1350.17L1357.38 750.818H1364.21V777H1358.84V759.959H1358.62L1351.85 776.872H1348.19L1341.41 759.895H1341.2V777H1335.83V750.818ZM1384.94 750.818H1390.48V767.821C1390.48 769.73 1390.02 771.401 1389.11 772.832C1388.21 774.264 1386.94 775.381 1385.31 776.182C1383.68 776.974 1381.79 777.371 1379.62 777.371C1377.45 777.371 1375.55 776.974 1373.92 776.182C1372.29 775.381 1371.03 774.264 1370.12 772.832C1369.22 771.401 1368.77 769.73 1368.77 767.821V750.818H1374.31V767.348C1374.31 768.345 1374.52 769.232 1374.96 770.007C1375.4 770.783 1376.02 771.392 1376.82 771.835C1377.62 772.278 1378.56 772.5 1379.62 772.5C1380.7 772.5 1381.63 772.278 1382.42 771.835C1383.22 771.392 1383.84 770.783 1384.28 770.007C1384.72 769.232 1384.94 768.345 1384.94 767.348V750.818Z" fill="black"/>
<rect x="615" y="263" width="234" height="137" stroke="white" stroke-width="6" stroke-dasharray="16 16"/>
<path d="M637.253 322V287.091H644.634V315.915H659.599V322H637.253ZM664.351 322V295.818H671.612V322H664.351ZM667.999 292.443C666.919 292.443 665.993 292.085 665.22 291.369C664.459 290.642 664.078 289.773 664.078 288.761C664.078 287.761 664.459 286.903 665.22 286.188C665.993 285.46 666.919 285.097 667.999 285.097C669.078 285.097 669.999 285.46 670.76 286.188C671.533 286.903 671.919 287.761 671.919 288.761C671.919 289.773 671.533 290.642 670.76 291.369C669.999 292.085 669.078 292.443 667.999 292.443ZM689.259 322.511C686.611 322.511 684.321 321.949 682.389 320.824C680.469 319.687 678.986 318.108 677.94 316.085C676.895 314.051 676.372 311.693 676.372 309.011C676.372 306.307 676.895 303.943 677.94 301.92C678.986 299.886 680.469 298.307 682.389 297.182C684.321 296.045 686.611 295.477 689.259 295.477C691.906 295.477 694.19 296.045 696.111 297.182C698.043 298.307 699.531 299.886 700.577 301.92C701.622 303.943 702.145 306.307 702.145 309.011C702.145 311.693 701.622 314.051 700.577 316.085C699.531 318.108 698.043 319.687 696.111 320.824C694.19 321.949 691.906 322.511 689.259 322.511ZM689.293 316.886C690.497 316.886 691.503 316.545 692.31 315.864C693.116 315.17 693.724 314.227 694.134 313.034C694.554 311.841 694.764 310.483 694.764 308.96C694.764 307.438 694.554 306.08 694.134 304.886C693.724 303.693 693.116 302.75 692.31 302.057C691.503 301.364 690.497 301.017 689.293 301.017C688.077 301.017 687.054 301.364 686.224 302.057C685.406 302.75 684.787 303.693 684.366 304.886C683.957 306.08 683.753 307.438 683.753 308.96C683.753 310.483 683.957 311.841 684.366 313.034C684.787 314.227 685.406 315.17 686.224 315.864C687.054 316.545 688.077 316.886 689.293 316.886ZM714.128 306.864V322H706.866V295.818H713.787V300.438H714.094C714.673 298.915 715.645 297.71 717.009 296.824C718.372 295.926 720.026 295.477 721.969 295.477C723.787 295.477 725.372 295.875 726.724 296.67C728.077 297.466 729.128 298.602 729.878 300.08C730.628 301.545 731.003 303.295 731.003 305.33V322H723.741V306.625C723.753 305.023 723.344 303.773 722.514 302.875C721.685 301.966 720.543 301.511 719.088 301.511C718.111 301.511 717.247 301.722 716.497 302.142C715.759 302.562 715.179 303.176 714.759 303.983C714.349 304.778 714.139 305.739 714.128 306.864ZM758.51 303.284L751.862 303.693C751.749 303.125 751.504 302.614 751.129 302.159C750.754 301.693 750.26 301.324 749.646 301.051C749.044 300.767 748.322 300.625 747.482 300.625C746.357 300.625 745.408 300.864 744.635 301.341C743.862 301.807 743.476 302.432 743.476 303.216C743.476 303.841 743.726 304.369 744.226 304.801C744.726 305.233 745.584 305.58 746.8 305.841L751.538 306.795C754.084 307.318 755.982 308.159 757.232 309.318C758.482 310.477 759.107 312 759.107 313.886C759.107 315.602 758.601 317.108 757.589 318.403C756.589 319.699 755.214 320.71 753.464 321.438C751.726 322.153 749.72 322.511 747.447 322.511C743.982 322.511 741.22 321.79 739.163 320.347C737.118 318.892 735.919 316.915 735.567 314.415L742.709 314.04C742.925 315.097 743.447 315.903 744.277 316.46C745.107 317.006 746.169 317.278 747.464 317.278C748.737 317.278 749.76 317.034 750.533 316.545C751.317 316.045 751.714 315.403 751.726 314.619C751.714 313.96 751.436 313.42 750.891 313C750.345 312.568 749.504 312.239 748.368 312.011L743.834 311.108C741.277 310.597 739.374 309.71 738.124 308.449C736.885 307.187 736.266 305.58 736.266 303.625C736.266 301.943 736.72 300.494 737.629 299.278C738.55 298.062 739.839 297.125 741.499 296.466C743.169 295.807 745.124 295.477 747.362 295.477C750.669 295.477 753.271 296.176 755.169 297.574C757.078 298.972 758.192 300.875 758.51 303.284ZM795.895 304.545C795.895 308.352 795.173 311.591 793.73 314.261C792.298 316.932 790.344 318.972 787.866 320.381C785.401 321.778 782.628 322.477 779.548 322.477C776.446 322.477 773.662 321.773 771.196 320.364C768.73 318.955 766.781 316.915 765.349 314.244C763.918 311.574 763.202 308.341 763.202 304.545C763.202 300.739 763.918 297.5 765.349 294.83C766.781 292.159 768.73 290.125 771.196 288.727C773.662 287.318 776.446 286.614 779.548 286.614C782.628 286.614 785.401 287.318 787.866 288.727C790.344 290.125 792.298 292.159 793.73 294.83C795.173 297.5 795.895 300.739 795.895 304.545ZM788.412 304.545C788.412 302.08 788.043 300 787.304 298.307C786.577 296.614 785.548 295.33 784.219 294.455C782.889 293.58 781.332 293.142 779.548 293.142C777.764 293.142 776.207 293.58 774.878 294.455C773.548 295.33 772.514 296.614 771.776 298.307C771.048 300 770.685 302.08 770.685 304.545C770.685 307.011 771.048 309.091 771.776 310.784C772.514 312.477 773.548 313.761 774.878 314.636C776.207 315.511 777.764 315.949 779.548 315.949C781.332 315.949 782.889 315.511 784.219 314.636C785.548 313.761 786.577 312.477 787.304 310.784C788.043 309.091 788.412 307.011 788.412 304.545ZM820.3 297.131C820.163 295.756 819.578 294.687 818.544 293.926C817.51 293.165 816.107 292.784 814.334 292.784C813.129 292.784 812.112 292.955 811.283 293.295C810.453 293.625 809.817 294.085 809.374 294.676C808.942 295.267 808.726 295.938 808.726 296.688C808.703 297.312 808.834 297.858 809.118 298.324C809.413 298.79 809.817 299.193 810.328 299.534C810.839 299.864 811.43 300.153 812.101 300.403C812.771 300.642 813.487 300.847 814.249 301.017L817.385 301.767C818.908 302.108 820.305 302.562 821.578 303.131C822.851 303.699 823.953 304.398 824.885 305.227C825.817 306.057 826.538 307.034 827.05 308.159C827.572 309.284 827.839 310.574 827.851 312.028C827.839 314.165 827.294 316.017 826.214 317.585C825.146 319.142 823.601 320.352 821.578 321.216C819.567 322.068 817.141 322.494 814.3 322.494C811.482 322.494 809.027 322.062 806.936 321.199C804.857 320.335 803.232 319.057 802.061 317.364C800.902 315.659 800.294 313.551 800.237 311.04H807.379C807.459 312.21 807.794 313.187 808.385 313.972C808.987 314.744 809.788 315.33 810.788 315.727C811.8 316.114 812.942 316.307 814.214 316.307C815.464 316.307 816.55 316.125 817.47 315.761C818.402 315.398 819.124 314.892 819.635 314.244C820.146 313.597 820.402 312.852 820.402 312.011C820.402 311.227 820.169 310.568 819.703 310.034C819.249 309.5 818.578 309.045 817.692 308.67C816.817 308.295 815.743 307.955 814.47 307.648L810.669 306.693C807.726 305.977 805.402 304.858 803.697 303.335C801.993 301.812 801.146 299.761 801.158 297.182C801.146 295.068 801.709 293.222 802.845 291.642C803.993 290.062 805.567 288.83 807.567 287.943C809.567 287.057 811.839 286.614 814.385 286.614C816.976 286.614 819.237 287.057 821.169 287.943C823.112 288.83 824.624 290.062 825.703 291.642C826.783 293.222 827.339 295.051 827.374 297.131H820.3ZM707.563 345.091V380H700.183V345.091H707.563ZM728.704 343.455L717.454 385.25H711.198L722.448 343.455H728.704ZM764.418 362.545C764.418 366.352 763.697 369.591 762.254 372.261C760.822 374.932 758.867 376.972 756.39 378.381C753.924 379.778 751.151 380.477 748.072 380.477C744.969 380.477 742.185 379.773 739.719 378.364C737.254 376.955 735.305 374.915 733.873 372.244C732.441 369.574 731.725 366.341 731.725 362.545C731.725 358.739 732.441 355.5 733.873 352.83C735.305 350.159 737.254 348.125 739.719 346.727C742.185 345.318 744.969 344.614 748.072 344.614C751.151 344.614 753.924 345.318 756.39 346.727C758.867 348.125 760.822 350.159 762.254 352.83C763.697 355.5 764.418 358.739 764.418 362.545ZM756.935 362.545C756.935 360.08 756.566 358 755.827 356.307C755.1 354.614 754.072 353.33 752.742 352.455C751.413 351.58 749.856 351.142 748.072 351.142C746.288 351.142 744.731 351.58 743.401 352.455C742.072 353.33 741.038 354.614 740.299 356.307C739.572 358 739.208 360.08 739.208 362.545C739.208 365.011 739.572 367.091 740.299 368.784C741.038 370.477 742.072 371.761 743.401 372.636C744.731 373.511 746.288 373.949 748.072 373.949C749.856 373.949 751.413 373.511 752.742 372.636C754.072 371.761 755.1 370.477 755.827 368.784C756.566 367.091 756.935 365.011 756.935 362.545Z" fill="white"/>
<rect x="937" y="266" width="203" height="137" fill="#2C6AB1" stroke="#233E5C" stroke-width="6"/>
<path d="M994.391 331.094H988.17C988.056 330.289 987.824 329.574 987.474 328.949C987.123 328.314 986.674 327.775 986.124 327.33C985.575 326.884 984.941 326.544 984.221 326.307C983.511 326.07 982.739 325.952 981.906 325.952C980.4 325.952 979.088 326.326 977.971 327.074C976.853 327.812 975.987 328.892 975.371 330.312C974.756 331.723 974.448 333.437 974.448 335.455C974.448 337.528 974.756 339.271 975.371 340.682C975.996 342.093 976.868 343.158 977.985 343.878C979.103 344.598 980.395 344.957 981.863 344.957C982.687 344.957 983.449 344.848 984.15 344.631C984.86 344.413 985.49 344.096 986.039 343.679C986.588 343.253 987.043 342.737 987.403 342.131C987.772 341.525 988.028 340.833 988.17 340.057L994.391 340.085C994.23 341.42 993.828 342.708 993.184 343.949C992.549 345.18 991.692 346.283 990.613 347.259C989.543 348.224 988.264 348.991 986.778 349.56C985.3 350.118 983.629 350.398 981.763 350.398C979.169 350.398 976.849 349.811 974.803 348.636C972.767 347.462 971.157 345.762 969.974 343.537C968.799 341.312 968.212 338.617 968.212 335.455C968.212 332.282 968.809 329.583 970.002 327.358C971.195 325.133 972.815 323.437 974.86 322.273C976.906 321.098 979.207 320.511 981.763 320.511C983.449 320.511 985.012 320.748 986.451 321.222C987.9 321.695 989.183 322.386 990.3 323.295C991.418 324.195 992.327 325.298 993.028 326.605C993.738 327.912 994.192 329.408 994.391 331.094ZM998.802 350V320.909H1004.95V344.929H1017.42V350H998.802ZM1027.65 320.909V350H1021.5V320.909H1027.65ZM1032.71 350V320.909H1052.31V325.98H1038.86V332.912H1051.3V337.983H1038.86V344.929H1052.37V350H1032.71ZM1081.53 320.909V350H1076.22L1063.56 331.69H1063.35V350H1057.2V320.909H1062.6L1075.15 339.205H1075.41V320.909H1081.53ZM1085.51 325.98V320.909H1109.4V325.98H1100.49V350H1094.41V325.98H1085.51Z" fill="white"/>
</svg>
