<svg width="962" height="1071" viewBox="0 0 962 1071" fill="none" xmlns="http://www.w3.org/2000/svg">
<path d="M0 1000L691 1000" stroke="white" stroke-opacity="0.6" stroke-width="6" stroke-dasharray="16 16"/>
<path d="M1.66992 950.898H6.38086C6.60938 953.096 8.40234 954.361 11.2852 954.361C14.0273 954.361 15.7676 953.043 15.7676 950.986C15.7676 949.264 14.6426 948.35 11.707 947.699L9.07031 947.084C4.48242 946.047 2.23242 943.621 2.23242 939.859C2.23242 935.131 5.73047 932.125 11.2148 932.125C16.5234 932.125 20.0918 935.096 20.25 939.631H15.5391C15.3457 937.539 13.7461 936.256 11.2676 936.256C8.75391 936.256 7.18945 937.434 7.18945 939.332C7.18945 941.125 8.31445 942.109 11.0566 942.707L13.6582 943.305C18.5625 944.395 20.707 946.592 20.707 950.477C20.707 955.486 17.1211 958.51 11.1973 958.51C5.44922 958.51 1.8457 955.645 1.66992 950.898ZM43.1367 947.26C43.1367 954.309 39.4629 958.51 33.3809 958.51C27.2988 958.51 23.625 954.309 23.625 947.26V943.375C23.625 936.326 27.2988 932.125 33.3809 932.125C39.4629 932.125 43.1367 936.326 43.1367 943.375V947.26ZM33.3809 954.08C36.4395 954.08 38.0566 951.777 38.0566 947.207V943.428C38.0566 938.857 36.4395 936.555 33.3809 936.555C30.3223 936.555 28.7051 938.857 28.7051 943.428V947.207C28.7051 951.777 30.3223 954.08 33.3809 954.08ZM53.2969 958H48.2871V932.635H64.3184V936.941H53.2969V943.814H63.3164V947.945H53.2969V958ZM80.3848 958H75.3926V936.941H68.1328V932.635H87.6445V936.941H80.3848V958ZM100.283 943.059H100.002L97.3477 958H92.9531L89.0156 932.635H93.5508L94.5703 941.389L95.5723 951.408H95.8535L98.209 938.436H102.076L104.432 951.408H104.713L105.715 941.389L106.734 932.635H111.27L107.332 958H102.938L100.283 943.059ZM119.443 947.893H124.98L122.344 937.609H122.115L119.443 947.893ZM127.564 958L125.982 951.795H118.441L116.824 958H111.832L119.443 932.635H125.35L132.961 958H127.564ZM141.012 936.713V944.834H144.545C147.375 944.834 149.062 943.305 149.062 940.738C149.062 938.225 147.41 936.713 144.598 936.713H141.012ZM144.633 948.666H141.012V958H136.037V932.635H145.248C150.768 932.635 154.143 935.693 154.143 940.721C154.143 944.008 152.402 946.75 149.643 947.84L154.723 958H149.098L144.633 948.666ZM175.254 953.693V958H159.258V932.635H175.254V936.941H164.268V943.182H174.604V947.172H164.268V953.693H175.254Z" fill="white" fill-opacity="0.6"/>
<path d="M20.1797 1062H15.2754V1051.28H6.97852V1062H2.07422V1036.63H6.97852V1046.97H15.2754V1036.63H20.1797V1062ZM30.4277 1051.89H35.9648L33.3281 1041.61H33.0996L30.4277 1051.89ZM38.5488 1062L36.9668 1055.79H29.4258L27.8086 1062H22.8164L30.4277 1036.63H36.334L43.9453 1062H38.5488ZM51.9961 1040.71V1048.83H55.5293C58.3594 1048.83 60.0469 1047.3 60.0469 1044.74C60.0469 1042.22 58.3945 1040.71 55.582 1040.71H51.9961ZM55.6172 1052.67H51.9961V1062H47.0215V1036.63H56.2324C61.752 1036.63 65.127 1039.69 65.127 1044.72C65.127 1048.01 63.3867 1050.75 60.627 1051.84L65.707 1062H60.082L55.6172 1052.67ZM68.8887 1036.63H77.0273C84.1289 1036.63 87.8379 1040.92 87.8379 1049.13C87.8379 1057.64 84.1816 1062 77.0273 1062H68.8887V1036.63ZM73.8809 1040.94V1057.69H76.3418C80.7363 1057.69 82.7402 1055.06 82.7402 1049.22C82.7402 1043.63 80.666 1040.94 76.3418 1040.94H73.8809ZM100.283 1047.06H100.002L97.3477 1062H92.9531L89.0156 1036.63H93.5508L94.5703 1045.39L95.5723 1055.41H95.8535L98.209 1042.44H102.076L104.432 1055.41H104.713L105.715 1045.39L106.734 1036.63H111.27L107.332 1062H102.938L100.283 1047.06ZM119.443 1051.89H124.98L122.344 1041.61H122.115L119.443 1051.89ZM127.564 1062L125.982 1055.79H118.441L116.824 1062H111.832L119.443 1036.63H125.35L132.961 1062H127.564ZM141.012 1040.71V1048.83H144.545C147.375 1048.83 149.062 1047.3 149.062 1044.74C149.062 1042.22 147.41 1040.71 144.598 1040.71H141.012ZM144.633 1052.67H141.012V1062H136.037V1036.63H145.248C150.768 1036.63 154.143 1039.69 154.143 1044.72C154.143 1048.01 152.402 1050.75 149.643 1051.84L154.723 1062H149.098L144.633 1052.67ZM175.254 1057.69V1062H159.258V1036.63H175.254V1040.94H164.268V1047.18H174.604V1051.17H164.268V1057.69H175.254Z" fill="white" fill-opacity="0.6"/>
<path d="M653 1053L670.321 1023L635.679 1023L653 1053ZM653 953L635.679 983L670.321 983L653 953ZM656 1026L656 980L650 980L650 1026L656 1026Z" fill="white"/>
<path d="M653 837L670.321 807L635.679 807L653 837ZM653 753L635.679 783L670.321 783L653 753ZM656 810L656 780L650 780L650 810L656 810Z" fill="white"/>
<path d="M653 580L670.321 550L635.679 550L653 580ZM653 480L635.679 510L670.321 510L653 480ZM656 553L656 507L650 507L650 553L656 553Z" fill="white"/>
<rect x="465" y="583" width="375" height="167" fill="#2C6AB1" stroke="#233E5C" stroke-width="6"/>
<path d="M600.341 648.091L608.778 674.614H609.102L617.557 648.091H625.739L613.705 683H604.193L592.142 648.091H600.341ZM629.94 648.091H639.043L648.656 671.545H649.065L658.679 648.091H667.781V683H660.622V660.278H660.332L651.298 682.83H646.423L637.389 660.193H637.099V683H629.94V648.091ZM673.862 648.091H682.964L692.578 671.545H692.987L702.601 648.091H711.703V683H704.544V660.278H704.254L695.22 682.83H690.345L681.311 660.193H681.021V683H673.862V648.091Z" fill="white"/>
<rect x="465" y="221" width="375" height="256" fill="#D75A49" stroke="#761A0D" stroke-width="6"/>
<path d="M596.463 313.375C596.224 312.545 595.889 311.812 595.457 311.176C595.026 310.528 594.497 309.983 593.872 309.54C593.259 309.085 592.554 308.739 591.759 308.5C590.974 308.261 590.105 308.142 589.151 308.142C587.366 308.142 585.798 308.585 584.446 309.472C583.105 310.358 582.06 311.648 581.31 313.341C580.56 315.023 580.185 317.08 580.185 319.511C580.185 321.943 580.554 324.011 581.293 325.716C582.031 327.42 583.077 328.722 584.429 329.619C585.781 330.506 587.378 330.949 589.219 330.949C590.889 330.949 592.315 330.653 593.497 330.062C594.69 329.46 595.599 328.614 596.224 327.523C596.861 326.432 597.179 325.142 597.179 323.653L598.679 323.875H589.679V318.318H604.287V322.716C604.287 325.784 603.639 328.42 602.344 330.625C601.048 332.818 599.264 334.511 596.991 335.705C594.719 336.886 592.116 337.477 589.185 337.477C585.912 337.477 583.037 336.756 580.56 335.312C578.082 333.858 576.151 331.795 574.764 329.125C573.389 326.443 572.702 323.261 572.702 319.58C572.702 316.75 573.111 314.227 573.929 312.011C574.759 309.784 575.918 307.898 577.406 306.352C578.895 304.807 580.628 303.631 582.605 302.824C584.582 302.017 586.724 301.614 589.031 301.614C591.009 301.614 592.849 301.903 594.554 302.483C596.259 303.051 597.77 303.858 599.088 304.903C600.418 305.949 601.503 307.193 602.344 308.636C603.185 310.068 603.724 311.648 603.963 313.375H596.463ZM631.393 302.091H638.774V324.761C638.774 327.307 638.166 329.534 636.95 331.443C635.746 333.352 634.058 334.841 631.888 335.909C629.717 336.966 627.189 337.494 624.303 337.494C621.405 337.494 618.871 336.966 616.7 335.909C614.53 334.841 612.842 333.352 611.638 331.443C610.433 329.534 609.831 327.307 609.831 324.761V302.091H617.212V324.131C617.212 325.46 617.501 326.642 618.081 327.676C618.672 328.71 619.501 329.523 620.57 330.114C621.638 330.705 622.882 331 624.303 331C625.734 331 626.979 330.705 628.036 330.114C629.104 329.523 629.928 328.71 630.507 327.676C631.098 326.642 631.393 325.46 631.393 324.131V302.091ZM644.847 337V302.091H668.369V308.176H652.227V316.494H667.159V322.58H652.227V330.915H668.438V337H644.847ZM693.175 312.131C693.038 310.756 692.453 309.687 691.419 308.926C690.385 308.165 688.982 307.784 687.209 307.784C686.004 307.784 684.987 307.955 684.158 308.295C683.328 308.625 682.692 309.085 682.249 309.676C681.817 310.267 681.601 310.938 681.601 311.688C681.578 312.312 681.709 312.858 681.993 313.324C682.288 313.79 682.692 314.193 683.203 314.534C683.714 314.864 684.305 315.153 684.976 315.403C685.646 315.642 686.362 315.847 687.124 316.017L690.26 316.767C691.783 317.108 693.18 317.562 694.453 318.131C695.726 318.699 696.828 319.398 697.76 320.227C698.692 321.057 699.413 322.034 699.925 323.159C700.447 324.284 700.714 325.574 700.726 327.028C700.714 329.165 700.169 331.017 699.089 332.585C698.021 334.142 696.476 335.352 694.453 336.216C692.442 337.068 690.016 337.494 687.175 337.494C684.357 337.494 681.902 337.062 679.811 336.199C677.732 335.335 676.107 334.057 674.936 332.364C673.777 330.659 673.169 328.551 673.112 326.04H680.254C680.334 327.21 680.669 328.187 681.26 328.972C681.862 329.744 682.663 330.33 683.663 330.727C684.675 331.114 685.817 331.307 687.089 331.307C688.339 331.307 689.425 331.125 690.345 330.761C691.277 330.398 691.999 329.892 692.51 329.244C693.021 328.597 693.277 327.852 693.277 327.011C693.277 326.227 693.044 325.568 692.578 325.034C692.124 324.5 691.453 324.045 690.567 323.67C689.692 323.295 688.618 322.955 687.345 322.648L683.544 321.693C680.601 320.977 678.277 319.858 676.572 318.335C674.868 316.812 674.021 314.761 674.033 312.182C674.021 310.068 674.584 308.222 675.72 306.642C676.868 305.062 678.442 303.83 680.442 302.943C682.442 302.057 684.714 301.614 687.26 301.614C689.851 301.614 692.112 302.057 694.044 302.943C695.987 303.83 697.499 305.062 698.578 306.642C699.658 308.222 700.214 310.051 700.249 312.131H693.175ZM704.361 308.176V302.091H733.031V308.176H722.344V337H715.048V308.176H704.361ZM562.581 395V360.091H569.962V375.483H570.422L582.984 360.091H591.831L578.876 375.722L591.984 395H583.155L573.592 380.648L569.962 385.08V395H562.581ZM595.675 395V360.091H619.197V366.176H603.055V374.494H617.987V380.58H603.055V388.915H619.266V395H595.675ZM625.065 395V360.091H638.838C641.474 360.091 643.724 360.562 645.588 361.506C647.463 362.437 648.889 363.761 649.866 365.477C650.855 367.182 651.349 369.187 651.349 371.494C651.349 373.812 650.849 375.807 649.849 377.477C648.849 379.136 647.401 380.409 645.503 381.295C643.616 382.182 641.332 382.625 638.651 382.625H629.429V376.693H637.457C638.866 376.693 640.037 376.5 640.969 376.114C641.901 375.727 642.594 375.148 643.048 374.375C643.514 373.602 643.747 372.642 643.747 371.494C643.747 370.335 643.514 369.358 643.048 368.562C642.594 367.767 641.895 367.165 640.952 366.756C640.02 366.335 638.844 366.125 637.423 366.125H632.446V395H625.065ZM643.918 379.114L652.594 395H644.446L635.957 379.114H643.918ZM685.764 360.091V395H679.389L664.202 373.028H663.946V395H656.565V360.091H663.043L678.111 382.045H678.418V360.091H685.764ZM691.862 395V360.091H715.385V366.176H699.243V374.494H714.175V380.58H699.243V388.915H715.453V395H691.862ZM721.253 395V360.091H728.634V388.915H743.599V395H721.253Z" fill="white"/>
<rect x="346" y="840" width="613" height="110" fill="#54C75F" stroke="#44894B" stroke-width="6"/>
<path d="M619.682 893.284L613.034 893.693C612.92 893.125 612.676 892.614 612.301 892.159C611.926 891.693 611.432 891.324 610.818 891.051C610.216 890.767 609.494 890.625 608.653 890.625C607.528 890.625 606.58 890.864 605.807 891.341C605.034 891.807 604.648 892.432 604.648 893.216C604.648 893.841 604.898 894.369 605.398 894.801C605.898 895.233 606.756 895.58 607.972 895.841L612.71 896.795C615.256 897.318 617.153 898.159 618.403 899.318C619.653 900.477 620.278 902 620.278 903.886C620.278 905.602 619.773 907.108 618.761 908.403C617.761 909.699 616.386 910.71 614.636 911.438C612.898 912.153 610.892 912.511 608.619 912.511C605.153 912.511 602.392 911.79 600.335 910.347C598.29 908.892 597.091 906.915 596.739 904.415L603.881 904.04C604.097 905.097 604.619 905.903 605.449 906.46C606.278 907.006 607.341 907.278 608.636 907.278C609.909 907.278 610.932 907.034 611.705 906.545C612.489 906.045 612.886 905.403 612.898 904.619C612.886 903.96 612.608 903.42 612.062 903C611.517 902.568 610.676 902.239 609.54 902.011L605.006 901.108C602.449 900.597 600.545 899.71 599.295 898.449C598.057 897.187 597.438 895.58 597.438 893.625C597.438 891.943 597.892 890.494 598.801 889.278C599.722 888.062 601.011 887.125 602.67 886.466C604.341 885.807 606.295 885.477 608.534 885.477C611.841 885.477 614.443 886.176 616.341 887.574C618.25 888.972 619.364 890.875 619.682 893.284ZM636.783 912.511C634.089 912.511 631.771 911.966 629.828 910.875C627.896 909.773 626.408 908.216 625.362 906.205C624.317 904.182 623.794 901.79 623.794 899.028C623.794 896.335 624.317 893.972 625.362 891.938C626.408 889.903 627.879 888.318 629.777 887.182C631.686 886.045 633.925 885.477 636.493 885.477C638.22 885.477 639.828 885.756 641.317 886.312C642.817 886.858 644.124 887.682 645.237 888.784C646.362 889.886 647.237 891.273 647.862 892.943C648.487 894.602 648.8 896.545 648.8 898.773V900.767H626.692V896.267H641.964C641.964 895.222 641.737 894.295 641.283 893.489C640.828 892.682 640.197 892.051 639.391 891.597C638.595 891.131 637.669 890.898 636.612 890.898C635.51 890.898 634.533 891.153 633.68 891.665C632.839 892.165 632.18 892.841 631.703 893.693C631.226 894.534 630.982 895.472 630.97 896.506V900.784C630.97 902.08 631.209 903.199 631.686 904.142C632.175 905.085 632.862 905.812 633.749 906.324C634.635 906.835 635.686 907.091 636.902 907.091C637.709 907.091 638.447 906.977 639.118 906.75C639.788 906.523 640.362 906.182 640.839 905.727C641.317 905.273 641.68 904.716 641.93 904.057L648.646 904.5C648.305 906.114 647.607 907.523 646.55 908.727C645.504 909.92 644.152 910.852 642.493 911.523C640.845 912.182 638.942 912.511 636.783 912.511ZM653.675 912V877.091H661.055V905.915H676.021V912H653.675ZM680.176 905.864V900.051L694.75 877.091H699.761V885.136H696.795L687.608 899.676V899.949H708.318V905.864H680.176ZM696.932 912V904.091L697.068 901.517V877.091H703.989V912H696.932Z" fill="white"/>
<rect x="464" y="2" width="377" height="114" fill="#F97968" stroke="#761A0D" stroke-width="4"/>
<path d="M550.609 32.2812C550.43 31.6591 550.179 31.1094 549.855 30.6321C549.531 30.1463 549.135 29.7372 548.666 29.4048C548.206 29.0639 547.677 28.804 547.081 28.625C546.493 28.446 545.841 28.3565 545.125 28.3565C543.787 28.3565 542.61 28.6889 541.596 29.3537C540.591 30.0185 539.806 30.9858 539.244 32.2557C538.681 33.517 538.4 35.0597 538.4 36.8835C538.4 38.7074 538.677 40.2585 539.231 41.5369C539.785 42.8153 540.569 43.7912 541.583 44.4645C542.598 45.1293 543.795 45.4616 545.176 45.4616C546.429 45.4616 547.498 45.2401 548.385 44.7969C549.279 44.3452 549.961 43.7102 550.43 42.892C550.907 42.0739 551.146 41.1065 551.146 39.9901L552.271 40.1562H545.521V35.9886H556.477V39.2869C556.477 41.5881 555.991 43.5653 555.02 45.2188C554.048 46.8636 552.71 48.1335 551.005 49.0284C549.301 49.9148 547.349 50.358 545.15 50.358C542.696 50.358 540.539 49.8168 538.681 48.7344C536.824 47.6435 535.375 46.0966 534.335 44.0938C533.304 42.0824 532.788 39.696 532.788 36.9347C532.788 34.8125 533.095 32.9205 533.708 31.2585C534.331 29.5881 535.2 28.1733 536.316 27.0142C537.433 25.8551 538.733 24.973 540.216 24.3679C541.699 23.7628 543.305 23.4602 545.035 23.4602C546.518 23.4602 547.899 23.6776 549.177 24.1122C550.456 24.5384 551.589 25.1435 552.578 25.9276C553.575 26.7116 554.389 27.6449 555.02 28.7273C555.65 29.8011 556.055 30.9858 556.234 32.2812H550.609ZM576.807 23.8182H582.342V40.821C582.342 42.7301 581.886 44.4006 580.974 45.8324C580.071 47.2642 578.805 48.3807 577.178 49.1818C575.55 49.9744 573.653 50.3707 571.489 50.3707C569.315 50.3707 567.415 49.9744 565.787 49.1818C564.159 48.3807 562.893 47.2642 561.99 45.8324C561.087 44.4006 560.635 42.7301 560.635 40.821V23.8182H566.17V40.348C566.17 41.3452 566.388 42.2315 566.822 43.0071C567.266 43.7827 567.888 44.392 568.689 44.8352C569.49 45.2784 570.423 45.5 571.489 45.5C572.563 45.5 573.496 45.2784 574.288 44.8352C575.089 44.392 575.707 43.7827 576.142 43.0071C576.585 42.2315 576.807 41.3452 576.807 40.348V23.8182ZM586.897 50V23.8182H604.539V28.3821H592.432V34.6207H603.631V39.1847H592.432V45.4361H604.59V50H586.897ZM623.143 31.348C623.04 30.3168 622.602 29.5156 621.826 28.9446C621.05 28.3736 619.998 28.0881 618.668 28.0881C617.765 28.0881 617.002 28.2159 616.38 28.4716C615.758 28.7188 615.281 29.0639 614.948 29.5071C614.624 29.9503 614.462 30.4531 614.462 31.0156C614.445 31.4844 614.543 31.8935 614.756 32.2429C614.978 32.5923 615.281 32.8949 615.664 33.1506C616.048 33.3977 616.491 33.6151 616.994 33.8026C617.496 33.9815 618.033 34.1349 618.604 34.2628L620.957 34.8253C622.099 35.081 623.147 35.4219 624.102 35.848C625.056 36.2741 625.883 36.7983 626.582 37.4205C627.281 38.0426 627.822 38.7756 628.205 39.6193C628.597 40.4631 628.798 41.4304 628.806 42.5213C628.798 44.1236 628.388 45.5128 627.579 46.6889C626.778 47.8565 625.619 48.7642 624.102 49.4119C622.593 50.0511 620.773 50.3707 618.643 50.3707C616.529 50.3707 614.688 50.0469 613.12 49.3991C611.56 48.7514 610.342 47.7926 609.464 46.5227C608.594 45.2443 608.138 43.6634 608.096 41.7798H613.452C613.512 42.6577 613.763 43.3906 614.207 43.9787C614.658 44.5582 615.259 44.9972 616.009 45.2955C616.768 45.5852 617.624 45.7301 618.579 45.7301C619.516 45.7301 620.33 45.5937 621.021 45.321C621.719 45.0483 622.261 44.669 622.644 44.1832C623.028 43.6974 623.219 43.1392 623.219 42.5085C623.219 41.9205 623.045 41.4261 622.695 41.0256C622.354 40.625 621.852 40.2841 621.187 40.0028C620.531 39.7216 619.725 39.4659 618.771 39.2358L615.92 38.5199C613.712 37.983 611.969 37.1435 610.691 36.0014C609.413 34.8594 608.778 33.321 608.786 31.3864C608.778 29.8011 609.2 28.4162 610.052 27.2315C610.913 26.0469 612.093 25.1222 613.593 24.4574C615.093 23.7926 616.798 23.4602 618.707 23.4602C620.65 23.4602 622.346 23.7926 623.795 24.4574C625.252 25.1222 626.386 26.0469 627.195 27.2315C628.005 28.4162 628.423 29.7884 628.448 31.348H623.143ZM631.532 28.3821V23.8182H653.035V28.3821H645.02V50H639.548V28.3821H631.532ZM681.08 23.8182H686.616V40.821C686.616 42.7301 686.16 44.4006 685.248 45.8324C684.344 47.2642 683.079 48.3807 681.451 49.1818C679.823 49.9744 677.927 50.3707 675.762 50.3707C673.589 50.3707 671.688 49.9744 670.06 49.1818C668.433 48.3807 667.167 47.2642 666.263 45.8324C665.36 44.4006 664.908 42.7301 664.908 40.821V23.8182H670.444V40.348C670.444 41.3452 670.661 42.2315 671.096 43.0071C671.539 43.7827 672.161 44.392 672.962 44.8352C673.763 45.2784 674.697 45.5 675.762 45.5C676.836 45.5 677.769 45.2784 678.562 44.8352C679.363 44.392 679.981 43.7827 680.415 43.0071C680.859 42.2315 681.08 41.3452 681.08 40.348V23.8182ZM705.373 31.348C705.271 30.3168 704.832 29.5156 704.056 28.9446C703.281 28.3736 702.228 28.0881 700.899 28.0881C699.995 28.0881 699.233 28.2159 698.61 28.4716C697.988 28.7188 697.511 29.0639 697.179 29.5071C696.855 29.9503 696.693 30.4531 696.693 31.0156C696.676 31.4844 696.774 31.8935 696.987 32.2429C697.208 32.5923 697.511 32.8949 697.895 33.1506C698.278 33.3977 698.721 33.6151 699.224 33.8026C699.727 33.9815 700.264 34.1349 700.835 34.2628L703.187 34.8253C704.329 35.081 705.377 35.4219 706.332 35.848C707.287 36.2741 708.113 36.7983 708.812 37.4205C709.511 38.0426 710.052 38.7756 710.436 39.6193C710.828 40.4631 711.028 41.4304 711.037 42.5213C711.028 44.1236 710.619 45.5128 709.809 46.6889C709.008 47.8565 707.849 48.7642 706.332 49.4119C704.824 50.0511 703.004 50.3707 700.873 50.3707C698.76 50.3707 696.919 50.0469 695.35 49.3991C693.791 48.7514 692.572 47.7926 691.694 46.5227C690.825 45.2443 690.369 43.6634 690.326 41.7798H695.683C695.743 42.6577 695.994 43.3906 696.437 43.9787C696.889 44.5582 697.49 44.9972 698.24 45.2955C698.998 45.5852 699.855 45.7301 700.809 45.7301C701.747 45.7301 702.561 45.5937 703.251 45.321C703.95 45.0483 704.491 44.669 704.875 44.1832C705.258 43.6974 705.45 43.1392 705.45 42.5085C705.45 41.9205 705.275 41.4261 704.926 41.0256C704.585 40.625 704.082 40.2841 703.417 40.0028C702.761 39.7216 701.956 39.4659 701.001 39.2358L698.15 38.5199C695.943 37.983 694.2 37.1435 692.922 36.0014C691.643 34.8594 691.008 33.321 691.017 31.3864C691.008 29.8011 691.43 28.4162 692.282 27.2315C693.143 26.0469 694.324 25.1222 695.824 24.4574C697.324 23.7926 699.028 23.4602 700.937 23.4602C702.88 23.4602 704.576 23.7926 706.025 24.4574C707.483 25.1222 708.616 26.0469 709.426 27.2315C710.235 28.4162 710.653 29.7884 710.679 31.348H705.373ZM714.76 50V23.8182H732.402V28.3821H720.295V34.6207H731.494V39.1847H720.295V45.4361H732.453V50H714.76ZM736.803 50V23.8182H747.132C749.11 23.8182 750.797 24.1719 752.195 24.8793C753.601 25.5781 754.671 26.571 755.404 27.858C756.145 29.1364 756.516 30.6406 756.516 32.3707C756.516 34.1094 756.141 35.6051 755.391 36.858C754.641 38.1023 753.554 39.0568 752.131 39.7216C750.716 40.3864 749.003 40.7188 746.992 40.7188H740.076V36.2699H746.097C747.154 36.2699 748.032 36.125 748.73 35.8352C749.429 35.5455 749.949 35.1108 750.29 34.5312C750.64 33.9517 750.814 33.2315 750.814 32.3707C750.814 31.5014 750.64 30.7685 750.29 30.1719C749.949 29.5753 749.425 29.1236 748.718 28.8168C748.019 28.5014 747.137 28.3438 746.071 28.3438H742.338V50H736.803ZM750.942 38.0852L757.449 50H751.338L744.972 38.0852H750.942ZM772.56 34.7486V39.0696H760.62V34.7486H772.56ZM610.135 75.348C610.033 74.3168 609.594 73.5156 608.818 72.9446C608.043 72.3736 606.99 72.0881 605.661 72.0881C604.757 72.0881 603.994 72.2159 603.372 72.4716C602.75 72.7188 602.273 73.0639 601.94 73.5071C601.616 73.9503 601.455 74.4531 601.455 75.0156C601.438 75.4844 601.536 75.8935 601.749 76.2429C601.97 76.5923 602.273 76.8949 602.656 77.1506C603.04 77.3977 603.483 77.6151 603.986 77.8026C604.489 77.9815 605.026 78.1349 605.597 78.2628L607.949 78.8253C609.091 79.081 610.139 79.4219 611.094 79.848C612.048 80.2741 612.875 80.7983 613.574 81.4205C614.273 82.0426 614.814 82.7756 615.197 83.6193C615.589 84.4631 615.79 85.4304 615.798 86.5213C615.79 88.1236 615.381 89.5128 614.571 90.6889C613.77 91.8565 612.611 92.7642 611.094 93.4119C609.585 94.0511 607.766 94.3707 605.635 94.3707C603.521 94.3707 601.68 94.0469 600.112 93.3991C598.553 92.7514 597.334 91.7926 596.456 90.5227C595.587 89.2443 595.131 87.6634 595.088 85.7798H600.445C600.504 86.6577 600.756 87.3906 601.199 87.9787C601.651 88.5582 602.251 88.9972 603.001 89.2955C603.76 89.5852 604.616 89.7301 605.571 89.7301C606.509 89.7301 607.322 89.5937 608.013 89.321C608.712 89.0483 609.253 88.669 609.636 88.1832C610.02 87.6974 610.212 87.1392 610.212 86.5085C610.212 85.9205 610.037 85.4261 609.688 85.0256C609.347 84.625 608.844 84.2841 608.179 84.0028C607.523 83.7216 606.717 83.4659 605.763 83.2358L602.912 82.5199C600.705 81.983 598.962 81.1435 597.683 80.0014C596.405 78.8594 595.77 77.321 595.778 75.3864C595.77 73.8011 596.192 72.4162 597.044 71.2315C597.905 70.0469 599.085 69.1222 600.585 68.4574C602.085 67.7926 603.79 67.4602 605.699 67.4602C607.642 67.4602 609.338 67.7926 610.787 68.4574C612.244 69.1222 613.378 70.0469 614.188 71.2315C614.997 72.4162 615.415 73.7884 615.44 75.348H610.135ZM619.522 94V67.8182H629.851C631.837 67.8182 633.529 68.1974 634.926 68.956C636.324 69.706 637.39 70.75 638.123 72.0881C638.864 73.4176 639.235 74.9517 639.235 76.6903C639.235 78.429 638.86 79.9631 638.11 81.2926C637.36 82.6222 636.273 83.6577 634.85 84.3991C633.435 85.1406 631.722 85.5114 629.711 85.5114H623.127V81.0753H628.816C629.881 81.0753 630.759 80.892 631.449 80.5256C632.148 80.1506 632.668 79.6349 633.009 78.9787C633.358 78.3139 633.533 77.5511 633.533 76.6903C633.533 75.821 633.358 75.0625 633.009 74.4148C632.668 73.7585 632.148 73.2514 631.449 72.8935C630.75 72.527 629.864 72.3438 628.79 72.3438H625.057V94H619.522ZM644.32 94H638.388L647.426 67.8182H654.56L663.585 94H657.653L651.095 73.8011H650.891L644.32 94ZM643.949 83.7088H657.96V88.0298H643.949V83.7088ZM688.607 76.9844H683.007C682.905 76.2599 682.696 75.6165 682.381 75.054C682.066 74.483 681.661 73.9972 681.167 73.5966C680.672 73.196 680.101 72.8892 679.453 72.6761C678.814 72.4631 678.12 72.3565 677.37 72.3565C676.015 72.3565 674.834 72.6932 673.828 73.3665C672.823 74.0312 672.043 75.0028 671.489 76.2812C670.935 77.5511 670.658 79.0937 670.658 80.9091C670.658 82.7756 670.935 84.3437 671.489 85.6136C672.051 86.8835 672.836 87.8423 673.841 88.4901C674.847 89.1378 676.01 89.4616 677.331 89.4616C678.073 89.4616 678.759 89.3636 679.39 89.1676C680.029 88.9716 680.596 88.6861 681.09 88.3111C681.584 87.9276 681.993 87.4631 682.317 86.9176C682.65 86.3722 682.88 85.75 683.007 85.0511L688.607 85.0767C688.462 86.2784 688.1 87.4375 687.52 88.554C686.949 89.6619 686.178 90.6548 685.206 91.5327C684.243 92.402 683.093 93.0923 681.755 93.6037C680.425 94.1065 678.921 94.358 677.242 94.358C674.907 94.358 672.819 93.8295 670.978 92.7727C669.145 91.7159 667.696 90.1861 666.631 88.1832C665.574 86.1804 665.046 83.7557 665.046 80.9091C665.046 78.054 665.583 75.625 666.657 73.6222C667.73 71.6193 669.188 70.0937 671.029 69.0455C672.87 67.9886 674.941 67.4602 677.242 67.4602C678.759 67.4602 680.165 67.6733 681.461 68.0994C682.765 68.5256 683.919 69.1477 684.925 69.9659C685.931 70.7756 686.749 71.7685 687.38 72.9446C688.019 74.1207 688.428 75.4673 688.607 76.9844ZM692.576 94V67.8182H710.218V72.3821H698.112V78.6207H709.311V83.1847H698.112V89.4361H710.27V94H692.576Z" fill="white"/>
<path d="M653 218L635.679 188L670.321 188L653 218ZM653 118L670.321 148L635.679 148L653 118ZM650 191L650 145L656 145L656 191L650 191Z" fill="white"/>
</svg>
